<svg width="36" height="36" viewBox="0 0 36 36" fill="none" xmlns="http://www.w3.org/2000/svg">
<path fill-rule="evenodd" clip-rule="evenodd" d="M7.32352 5.64922C6.85576 6.08674 6.77877 6.39408 6.77877 6.55603C6.77877 6.71798 6.85576 7.02533 7.32352 7.46285C7.79368 7.90262 8.55381 8.36635 9.61571 8.7865C11.731 9.62333 14.7536 10.1733 18.1666 10.1733C21.5797 10.1733 24.6023 9.62333 26.7175 8.7865C27.7794 8.36635 28.5395 7.90262 29.0097 7.46285C29.4775 7.02533 29.5545 6.71798 29.5545 6.55603C29.5545 6.39408 29.4775 6.08674 29.0097 5.64922C28.5395 5.20944 27.7794 4.74572 26.7175 4.3256C24.6023 3.48875 21.5797 2.9388 18.1666 2.9388C14.7536 2.9388 11.731 3.48875 9.61571 4.3256C8.55381 4.74572 7.79368 5.20944 7.32352 5.64922ZM8.53461 1.59288C11.0727 0.588725 14.4788 0 18.1666 0C21.8545 0 25.2604 0.588725 27.7986 1.59288C29.0634 2.09326 30.1862 2.72563 31.0172 3.50296C31.8507 4.28256 32.4933 5.31336 32.4933 6.55603C32.4933 7.79875 31.8507 8.8295 31.0172 9.60912C30.1862 10.3864 29.0634 11.0188 27.7986 11.5192C25.2604 12.5233 21.8545 13.1121 18.1666 13.1121C14.4788 13.1121 11.0727 12.5233 8.53461 11.5192C7.26981 11.0188 6.14704 10.3864 5.31601 9.60912C4.48252 8.8295 3.83997 7.79875 3.83997 6.55603C3.83997 5.31336 4.48252 4.28256 5.31601 3.50296C6.14704 2.72563 7.26981 2.09326 8.53461 1.59288Z" fill="#6DBFB8"/>
<path fill-rule="evenodd" clip-rule="evenodd" d="M5.30934 5.08691C6.12088 5.08691 6.77877 5.74447 6.77877 6.556V14.1863C6.77877 14.3483 6.85581 14.6557 7.32352 15.0932C7.79368 15.533 8.55376 15.9967 9.61566 16.4168C11.7309 17.2536 14.7535 17.8035 18.1666 17.8035C21.5798 17.8035 24.6024 17.2536 26.7176 16.4168C27.7795 15.9967 28.5396 15.533 29.0097 15.0932C29.4774 14.6557 29.5545 14.3483 29.5545 14.1863V6.556C29.5545 5.74447 30.2123 5.08691 31.0239 5.08691C31.8354 5.08691 32.4933 5.74447 32.4933 6.556V14.1863C32.4933 15.429 31.8507 16.4598 31.0173 17.2394C30.1862 18.0168 29.0634 18.6492 27.7987 19.1495C25.2605 20.1536 21.8545 20.7423 18.1666 20.7423C14.4787 20.7423 11.0727 20.1536 8.53456 19.1495C7.26981 18.6492 6.14699 18.0168 5.31597 17.2394C4.48246 16.4598 3.83997 15.429 3.83997 14.1863V6.556C3.83997 5.74447 4.49784 5.08691 5.30934 5.08691Z" fill="#6DBFB8"/>
<path fill-rule="evenodd" clip-rule="evenodd" d="M5.30934 12.7169C6.12088 12.7169 6.77877 13.3748 6.77877 14.1863V21.8163C6.77877 21.9783 6.85581 22.2857 7.32352 22.7232C7.79368 23.163 8.55376 23.6267 9.61566 24.0468C11.7309 24.8836 14.7535 25.4335 18.1666 25.4335C21.5798 25.4335 24.6024 24.8836 26.7176 24.0468C27.7795 23.6267 28.5396 23.163 29.0097 22.7232C29.4774 22.2857 29.5545 21.9783 29.5545 21.8163V14.1863C29.5545 13.3748 30.2123 12.7169 31.0239 12.7169C31.8354 12.7169 32.4933 13.3748 32.4933 14.1863V21.8163C32.4933 23.059 31.8507 24.0898 31.0173 24.8695C30.1862 25.6468 29.0634 26.2792 27.7987 26.7795C25.2605 27.7837 21.8545 28.3723 18.1666 28.3723C14.4787 28.3723 11.0727 27.7837 8.53456 26.7795C7.26981 26.2792 6.14699 25.6468 5.31597 24.8695C4.48246 24.0898 3.83997 23.059 3.83997 21.8163V14.1863C3.83997 13.3748 4.49784 12.7169 5.30934 12.7169Z" fill="#6DBFB8"/>
<path fill-rule="evenodd" clip-rule="evenodd" d="M5.30934 20.3446C6.12088 20.3446 6.77877 21.0025 6.77877 21.814V29.444C6.77877 29.606 6.85581 29.9134 7.32352 30.3509C7.79368 30.7907 8.55376 31.2544 9.61566 31.6745C11.7309 32.5113 14.7535 33.0612 18.1666 33.0612C21.5798 33.0612 24.6024 32.5113 26.7176 31.6745C27.7795 31.2544 28.5396 30.7907 29.0097 30.3509C29.4774 29.9134 29.5545 29.606 29.5545 29.444V21.814C29.5545 21.0025 30.2123 20.3446 31.0239 20.3446C31.8354 20.3446 32.4933 21.0025 32.4933 21.814V29.444C32.4933 30.6867 31.8507 31.7175 31.0173 32.4971C30.1862 33.2745 29.0634 33.9069 27.7987 34.4072C25.2605 35.4113 21.8545 36 18.1666 36C14.4787 36 11.0727 35.4113 8.53456 34.4072C7.26981 33.9069 6.14699 33.2745 5.31597 32.4971C4.48246 31.7175 3.83997 30.6867 3.83997 29.444V21.814C3.83997 21.0025 4.49784 20.3446 5.30934 20.3446Z" fill="#6DBFB8"/>
</svg>
