<svg width="45" height="41" viewBox="0 0 45 41" fill="none" xmlns="http://www.w3.org/2000/svg">
<path d="M43.83 2.89801L35.6088 0.0927107C35.0637 -0.0937337 34.4544 0.00466785 33.9958 0.355114L15.4627 14.5283L6.08712 8.8815C5.60596 8.58974 5.01404 8.55004 4.49827 8.77619L1.03673 10.2867C0.406731 10.5612 0 11.1827 0 11.8681V29.1314C0 29.8168 0.406731 30.4383 1.03673 30.7128L4.49827 32.2233C5.01231 32.4495 5.60423 32.408 6.08712 32.118L15.461 26.4711L33.994 40.6444C34.3004 40.8792 34.6725 41 35.0463 41C35.235 41 35.4237 40.9689 35.6071 40.9068L43.8283 38.1015C44.5292 37.8632 45 37.2072 45 36.4684V4.53112C45 3.79225 44.5292 3.13624 43.83 2.89801ZM6.92308 23.5485V17.451L11.9821 20.4997L6.92308 23.5485ZM34.6154 28.6429L22.5658 20.4997L34.6154 12.3566V28.6429Z" fill="#6DBFB8"/>
</svg>
