<svg width="36" height="36" viewBox="0 0 36 36" fill="none" xmlns="http://www.w3.org/2000/svg">
<path d="M35.6501 14.6051C35.5498 14.5213 34.6481 13.8348 32.7113 13.8348C32.2103 13.8348 31.6928 13.885 31.1917 13.9688C30.8247 11.406 28.7038 10.1664 28.6206 10.0991L28.1031 9.79749L27.7691 10.2832C27.3519 10.9367 27.0344 11.6739 26.8509 12.4276C26.5003 13.885 26.7175 15.2585 27.4522 16.4314C26.567 16.9336 25.1313 17.0511 24.8309 17.0677H1.12109C0.503227 17.0677 0.00220913 17.5699 0.00220913 18.1903C-0.0314461 20.2674 0.319712 22.3445 1.03727 24.3048C1.85515 26.4492 3.07436 28.0406 4.64346 29.0121C6.41323 30.1011 9.30187 30.7209 12.5575 30.7209C14.0269 30.7209 15.4963 30.5869 16.9486 30.3189C18.9685 29.9506 20.9059 29.247 22.6922 28.2253C24.1616 27.3712 25.4805 26.2822 26.5994 25.009C28.486 22.8818 29.6049 20.503 30.4227 18.3923H30.7568C32.8104 18.3923 34.0798 17.5712 34.7808 16.8676C35.2482 16.432 35.5987 15.8961 35.8495 15.2928L36 14.8572L35.6495 14.6057L35.6501 14.6051Z" fill="#6DBFB8"/>
<path d="M3.33976 16.394H6.51224C6.66272 16.394 6.79607 16.2765 6.79607 16.1088V13.2564C6.79607 13.1053 6.67924 12.9713 6.51224 12.9713H3.33976C3.18926 12.9713 3.05591 13.0888 3.05591 13.2564V16.1088C3.07242 16.2765 3.18926 16.394 3.33976 16.394ZM7.71368 16.394H10.8861C11.0366 16.394 11.17 16.2765 11.17 16.1088V13.2564C11.17 13.1053 11.0531 12.9713 10.8861 12.9713H7.71368C7.56316 12.9713 7.42981 13.0888 7.42981 13.2564V16.1088C7.44632 16.2765 7.56316 16.394 7.71368 16.394ZM12.172 16.394H15.3445C15.495 16.394 15.6284 16.2765 15.6284 16.1088V13.2564C15.6284 13.1053 15.5115 12.9713 15.3445 12.9713H12.172C12.0215 12.9713 11.8882 13.0888 11.8882 13.2564V16.1088C11.8882 16.2765 12.005 16.394 12.172 16.394ZM16.5631 16.394H19.7356C19.8861 16.394 20.0194 16.2765 20.0194 16.1088V13.2564C20.0194 13.1053 19.9026 12.9713 19.7356 12.9713H16.5631C16.4126 12.9713 16.2792 13.0888 16.2792 13.2564V16.1088C16.2792 16.2765 16.4126 16.394 16.5631 16.394ZM7.71368 12.3172H10.8861C11.0366 12.3172 11.17 12.1833 11.17 12.0321V9.17967C11.17 9.02856 11.0531 8.89454 10.8861 8.89454H7.71368C7.56316 8.89454 7.42981 9.01205 7.42981 9.17967V12.0321C7.44632 12.1833 7.56316 12.3172 7.71368 12.3172ZM12.172 12.3172H15.3445C15.495 12.3172 15.6284 12.1833 15.6284 12.0321V9.17967C15.6284 9.02856 15.5115 8.89454 15.3445 8.89454H12.172C12.0215 8.89454 11.8882 9.01205 11.8882 9.17967V12.0321C11.8882 12.1833 12.005 12.3172 12.172 12.3172ZM16.5631 12.3172H19.7356C19.8861 12.3172 20.0194 12.1833 20.0194 12.0321V9.17967C20.0194 9.02856 19.8861 8.89454 19.7356 8.89454H16.5631C16.4126 8.89454 16.2792 9.01205 16.2792 9.17967V12.0321C16.2792 12.1833 16.4126 12.3172 16.5631 12.3172ZM16.5631 8.22274H19.7356C19.8861 8.22274 20.0194 8.10523 20.0194 7.93762V5.08517C20.0194 4.93402 19.8861 4.80005 19.7356 4.80005H16.5631C16.4126 4.80005 16.2792 4.9175 16.2792 5.08517V7.93762C16.2792 8.08872 16.4126 8.22274 16.5631 8.22274ZM20.9872 16.394H24.1597C24.3102 16.394 24.4435 16.2765 24.4435 16.1088V13.2564C24.4435 13.1053 24.3267 12.9713 24.1597 12.9713H20.9872C20.8367 12.9713 20.7033 13.0888 20.7033 13.2564V16.1088C20.7199 16.2765 20.8367 16.394 20.9872 16.394Z" fill="#6DBFB8"/>
</svg>
