<svg width="36" height="36" viewBox="0 0 36 36" fill="none" xmlns="http://www.w3.org/2000/svg">
<g clip-path="url(#clip0_2005_468)">
<path fill-rule="evenodd" clip-rule="evenodd" d="M25.3139 3.36011H19.4193V12.2577C18.5393 12.0323 17.8111 11.957 16.8552 11.957C10.6952 11.957 6.71997 15.8197 6.71997 21.7715C6.71997 27.9487 10.4676 31.165 17.6669 31.1725C20.0719 31.1725 22.2946 30.9478 25.3139 30.3767V3.36011ZM17.6383 16.8258C18.3666 16.8258 18.9355 16.9009 19.6259 17.1264V26.4981C18.7839 26.6108 18.2528 26.6476 17.6005 26.6476C14.5812 26.6476 12.9349 24.9342 12.9349 21.8313C12.9349 18.6443 14.657 16.8258 17.6383 16.8258Z" fill="#6DBFB8"/>
<path d="M34.9538 26.2092V12.6825H29.0668V24.1952C29.0668 29.2752 28.8012 31.2066 27.9593 32.8741C27.1551 34.5048 25.8958 35.5733 23.2937 36.7826L28.7634 39.3601C31.3655 38.0669 32.6247 36.896 33.5806 35.0392C34.6048 33.1077 34.9538 30.8676 34.9538 26.2092Z" fill="#6DBFB8"/>
<path d="M34.3672 3.36011H28.4727V9.34944H34.3672V3.36011Z" fill="#6DBFB8"/>
</g>
<defs>
<clipPath id="clip0_2005_468">
<rect width="36" height="36" fill="white"/>
</clipPath>
</defs>
</svg>
