<svg width="46" height="45" viewBox="0 0 46 45" fill="none" xmlns="http://www.w3.org/2000/svg">
<path d="M44.8808 20.5179L25.207 0.844209C24.0814 -0.281403 22.2217 -0.281403 21.0961 0.844209L17.0341 4.9062L22.2217 10.0938C23.4452 9.70228 24.8155 9.94698 25.7454 10.9258C26.7242 11.9046 26.9689 13.2749 26.5773 14.4984L31.5692 19.4902C32.7927 19.0987 34.163 19.3434 35.1418 20.3222C36.5121 21.6436 36.5121 23.8458 35.1418 25.2162C33.7715 26.5865 31.6181 26.5865 30.2478 25.2162C29.2201 24.1884 28.9754 22.7202 29.5137 21.4478L24.8645 16.7985V29.0334C25.207 29.1803 25.5007 29.425 25.7943 29.6697C27.1646 30.991 27.1646 33.1933 25.7943 34.5636C24.424 35.885 22.2707 35.885 20.9003 34.5636C19.53 33.1933 19.53 31.04 20.9003 29.6697C21.2429 29.3271 21.6344 29.0824 22.026 28.9356V16.5538C21.6344 16.407 21.2429 16.1134 20.9003 15.8197C19.8726 14.792 19.6279 13.3238 20.1663 12.0514L15.0276 6.96166L1.56918 20.4201C0.443573 21.5457 0.443573 23.4054 1.56918 24.531L21.194 44.1558C22.3196 45.2814 24.1793 45.2814 25.3049 44.1558L44.8318 24.6289C46.0064 23.4543 46.0064 21.6436 44.8808 20.5179Z" fill="#6DBFB8"/>
</svg>
