<svg width="42" height="45" viewBox="0 0 42 45" fill="none" xmlns="http://www.w3.org/2000/svg">
<path d="M15.6106 41.1688C12.615 40.3159 9.98042 38.7455 7.68021 36.5523C6.95806 36.8096 6.22253 37.0668 5.47362 37.3105C5.12592 37.4188 4.77821 37.3782 4.41713 37.2428C3.77521 36.9991 3.38739 36.5253 3.10655 35.9431C2.71873 35.1715 2.22391 34.4675 1.83609 33.6958C1.48838 32.9783 0.980199 32.3556 0.685987 31.611C0.538881 31.2455 0.151056 31.0018 0.151056 30.5415C-0.19665 29.9729 0.137682 29.472 0.338281 28.9711C0.391775 28.8357 0.458641 28.6597 0.579001 28.6056C1.06044 28.389 1.30116 27.9016 1.70236 27.6038C1.88958 27.4684 2.09018 27.3195 2.30415 27.157C1.99657 25.6002 1.7291 24.0433 1.7291 22.4458C1.7291 20.8619 2.00994 19.3321 2.30415 17.8159C1.7826 17.3285 1.30116 16.8547 0.792973 16.4079C0.271415 15.9477 -0.0361704 15.3791 0.030696 14.7834C0.0708159 14.4585 0.164429 14.1065 0.324908 13.8357C0.81972 13.037 1.27441 12.1977 1.75585 11.3854C2.14367 10.7356 2.47801 10.0587 2.90595 9.42238C3.1333 9.09747 3.26703 8.71841 3.49438 8.37996C3.93569 7.74368 4.81833 7.43231 5.54049 7.64892C6.1824 7.83845 6.7842 8.12274 7.43949 8.24459C7.50636 8.25812 7.55985 8.35289 7.62672 8.42058C9.9403 6.24097 12.5748 4.68412 15.5972 3.77708C15.7176 3.41155 15.7443 3.01895 15.8914 2.63989C15.9984 2.3556 15.9716 2.00361 16.0251 1.69224C16.1722 0.879964 16.6671 0.406137 17.3758 0.162455C17.6299 0.0812274 17.884 0 18.1916 0C20.0639 0.0270758 21.9361 0.0270758 23.8084 0C24.3433 0 24.798 0.216607 25.226 0.460289C25.6138 0.663357 25.8278 1.09657 25.9347 1.50271C26.122 2.24729 26.229 3.00542 26.3761 3.79061C29.385 4.65704 32.0196 6.2139 34.3198 8.40704C35.0419 8.14982 35.7775 7.8926 36.5264 7.64892C36.8741 7.54061 37.2218 7.58123 37.5829 7.71661C38.2248 7.96029 38.6126 8.43412 38.8935 9.01624C39.2813 9.78791 39.7761 10.4919 40.1639 11.2635C40.5116 11.981 41.0198 12.6038 41.314 13.3484C41.4611 13.7139 41.8489 13.9576 41.8489 14.4179C42.1967 14.9865 41.8623 15.4874 41.6617 15.9883C41.6082 16.1236 41.5414 16.2996 41.421 16.3538C40.9396 16.5704 40.6988 17.0578 40.2976 17.3556C40.1104 17.491 39.9098 17.6399 39.6958 17.8023C40.0034 19.3592 40.2709 20.9161 40.2709 22.5135C40.2709 24.0975 40.0302 25.6273 39.6958 27.1435C40.2174 27.6309 40.6988 28.1047 41.207 28.5514C41.7286 29.0117 42.0362 29.5803 41.9693 30.176C41.9292 30.5009 41.8489 30.8529 41.6751 31.1236C41.1937 31.9088 40.739 32.7211 40.2709 33.5199C39.6825 34.5081 39.201 35.5776 38.519 36.5117C38.3986 37.0262 37.9172 37.0668 37.5695 37.2563C37.195 37.4594 36.8206 37.4052 36.406 37.2834C35.7908 37.1074 35.2024 36.796 34.5605 36.7148C34.4936 36.7013 34.4402 36.6065 34.3733 36.5388C32.0597 38.7455 29.4385 40.3159 26.3761 41.1958C26.229 41.9269 26.0952 42.685 25.9347 43.4296C25.7743 44.1606 25.2928 44.6209 24.6108 44.8375C24.3567 44.9188 24.0892 45 23.795 45C21.9228 44.9729 20.0505 44.9729 18.1782 45C17.6433 45 17.1886 44.7834 16.7607 44.5397C16.3728 44.3366 16.1455 43.9034 16.0653 43.4973C15.9182 42.6986 15.771 41.954 15.6106 41.1688ZM16.4798 29.2419C16.7473 29.093 17.0549 28.9982 17.0683 28.6733C17.095 28.1859 17.1619 27.685 17.0549 27.2247C16.8677 26.4395 16.5333 25.6814 16.3327 24.8962C16.199 24.3953 15.9048 23.9215 15.9182 23.38C15.4902 22.3105 15.2227 21.1868 14.8617 20.1038C14.5675 19.2103 14.3535 18.2897 14.0325 17.4097C13.8587 16.9224 13.8185 16.3809 13.4976 15.9477C13.4708 15.907 13.4575 15.88 13.4575 15.88C13.0964 15.6363 12.7219 15.7175 12.401 15.7175C12.2138 15.8935 12.0533 16.0424 11.9062 16.1778C11.8928 16.611 11.5852 16.9495 11.6387 17.3691C11.1706 18.4251 10.97 19.5623 10.5822 20.6453C10.3816 21.2004 10.2613 21.769 10.1008 22.3375C9.95367 22.9061 9.63271 23.4206 9.63271 24.0298C9.12453 25.1805 8.87043 26.4125 8.49598 27.6173C8.40237 27.9152 8.34888 28.1995 8.5361 28.4838C8.5896 28.565 8.56285 28.6868 8.56285 28.6733C8.77682 28.9034 8.9373 29.0659 9.07103 29.2283C9.32513 29.2283 9.59259 29.2283 9.87343 29.2283C10.0607 28.9847 10.2479 28.7545 10.4217 28.5244C10.3816 27.7527 10.5421 27.2383 10.8898 26.4125C12.2004 26.4125 13.511 26.4125 14.8215 26.4125C14.9285 26.8457 14.982 27.2653 15.1291 27.6579C15.196 27.8204 15.2629 27.9829 15.2361 28.1453C15.196 28.6462 15.3565 29.0388 15.9182 29.2283C16.0519 29.2419 16.2525 29.2419 16.4798 29.2419ZM19.6092 29.2419C19.9703 29.2148 20.3848 29.3231 20.679 29.0253C20.786 28.8899 20.8796 28.7545 21.0134 28.565C21.0134 27.2112 21.0134 25.7897 21.0134 24.3682C21.9896 24.3682 22.9525 24.3276 23.902 24.3818C24.4771 24.4088 24.9451 24.2329 25.3998 23.9486C25.6138 23.8132 25.801 23.6101 25.9882 23.4206C26.483 22.9332 26.7238 22.3375 26.7371 21.6336C26.7371 20.5235 26.7371 19.4269 26.7371 18.3168C26.7371 18.1543 26.697 17.9783 26.6569 17.8159C26.5098 17.2338 26.2022 16.8005 25.7876 16.4215C25.3062 15.9747 24.7445 15.704 24.0759 15.704C22.578 15.704 21.0936 15.704 19.5824 15.704C19.4353 15.8664 19.2882 16.0289 19.1144 16.1913C19.1144 20.361 19.1144 24.5578 19.1144 28.7681C19.2882 28.917 19.4487 29.0794 19.6092 29.2419ZM29.2379 29.2419C30.1607 29.2419 31.0968 29.2419 32.0196 29.2419C32.1801 29.0794 32.3405 28.917 32.501 28.7681C32.501 28.5108 32.501 28.2671 32.501 28.0099C32.501 27.9829 32.501 27.9693 32.501 27.9558C32.3004 27.5767 31.9928 27.3466 31.5916 27.306C31.5916 24.0704 31.5916 20.8484 31.5916 17.694C31.8859 17.5451 32.1399 17.4097 32.4342 17.2473C32.4743 16.8953 32.501 16.5298 32.5278 16.2726C32.3138 16.0289 32.1667 15.8529 32.0463 15.7175C31.0835 15.7175 30.1473 15.7175 29.3182 15.7175C29.0908 15.9206 28.9304 16.0695 28.7298 16.259C28.7699 16.5839 28.8234 16.9495 28.8635 17.2608C29.1844 17.4233 29.4385 17.5587 29.6659 17.6805C29.6659 20.9025 29.6659 24.1245 29.6659 27.3195C29.5322 27.3466 29.385 27.3195 29.3316 27.3872C29.1443 27.5767 28.8234 27.6309 28.7565 27.9422C28.7565 28.213 28.7565 28.4838 28.7565 28.7545C28.917 28.917 29.0775 29.0794 29.2379 29.2419Z" fill="#6DBFB8"/>
<path d="M14.1125 24.3409C13.3235 24.368 12.4943 24.3815 11.6652 24.4086C11.6384 24.4086 11.5983 24.4628 11.5181 24.5305C11.5314 23.6911 11.9995 23.0142 12.053 22.2425C12.4542 21.5656 12.4943 20.7669 12.7618 20.0088C12.842 20.09 12.9624 20.1712 12.9624 20.2389C12.9758 20.8211 13.3101 21.322 13.4171 21.877C13.4973 22.2561 13.7113 22.6216 13.7648 23.0007C13.8183 23.488 14.1392 23.8536 14.1125 24.3409Z" fill="#6DBFB8"/>
<path d="M24.8779 21.715C24.7843 21.864 24.704 22.0129 24.597 22.1483C24.4098 22.3649 24.1691 22.4867 23.8615 22.4732C22.9254 22.4596 21.9892 22.4732 21.0264 22.4732C21.0264 20.8622 21.0264 19.2511 21.0264 17.5995C22.0026 17.5995 23.0056 17.586 23.9952 17.5995C24.4633 17.6131 24.8645 18.1004 24.8779 18.6149C24.8779 19.4678 24.8779 20.3206 24.8779 21.1735C24.8779 21.3631 24.8779 21.5391 24.8779 21.715Z" fill="#6DBFB8"/>
</svg>
