<svg width="35" height="36" viewBox="0 0 35 36" fill="none" xmlns="http://www.w3.org/2000/svg">
<path fill-rule="evenodd" clip-rule="evenodd" d="M18.2232 35.1776C18.8783 35.7194 19.6464 35.9505 20.4756 35.9932C20.8185 36.0111 21.1713 35.9943 21.5088 35.9329C22.044 35.8356 22.5778 35.7135 23.0984 35.5567C24.1586 35.2368 25.0748 34.684 25.7589 33.7912C26.1486 33.2823 26.4685 32.7321 26.6739 32.1237C26.8436 31.6218 27.003 31.1147 27.1298 30.601C27.23 30.1963 27.2797 29.7784 27.3405 29.3649C27.381 29.0915 27.4055 28.8151 27.4308 28.539C27.4717 28.0912 27.5145 27.6441 27.5441 27.1951C27.5649 26.8829 27.5642 26.5692 27.5762 26.2566C27.5803 26.1612 27.5956 26.0665 27.6048 25.9718C27.6124 25.8837 27.6571 25.8533 27.747 25.8548C28.0629 25.8596 28.3795 25.8676 28.695 25.8533C29.0485 25.8376 29.4046 25.8223 29.7527 25.7641C30.248 25.6812 30.7393 25.5763 31.2253 25.4497C31.7986 25.2995 32.3246 25.0308 32.8314 24.7251C33.4207 24.3686 33.9589 23.9508 34.3943 23.4122C34.7742 22.9435 34.954 22.4003 34.8623 21.8076C34.7292 20.9466 34.0057 20.3825 33.1644 20.3441C32.8595 20.3303 32.5502 20.3624 32.2468 20.4008C31.8793 20.4476 31.5174 20.5302 31.1511 20.5847C30.8981 20.6227 30.6418 20.6395 30.3895 20.6659L30.3826 20.6329C30.8542 19.742 31.3456 18.8613 31.7916 17.9582C32.1342 17.2651 32.4266 16.5474 32.729 15.8345C33.2299 14.6543 33.6295 13.438 33.9607 12.2011C34.2777 11.0173 34.549 9.8207 34.6349 8.59229C34.6692 8.10206 34.693 7.60958 34.6897 7.11859C34.6875 6.72667 34.6451 6.33437 34.606 5.94389C34.5614 5.49643 34.4261 5.0723 34.2389 4.66431C33.9925 4.12615 33.6097 3.68487 33.2072 3.2659C32.8851 2.93028 32.5305 2.62464 32.1792 2.319C31.6779 1.8832 31.1142 1.53479 30.5292 1.22585C29.8661 0.873653 29.1636 0.601214 28.4365 0.414224C27.9934 0.302504 27.5475 0.202417 27.0992 0.114067C26.9398 0.0818942 26.7789 0 26.6184 0H23.5956C23.4863 0 23.3781 0.0716573 23.268 0.0837221C22.5446 0.162685 21.8303 0.310197 21.1348 0.52427C20.8752 0.604334 20.6383 0.557539 20.3915 0.534504C20.2021 0.516955 20.016 0.468333 19.8266 0.458827C19.1061 0.422998 18.3847 0.371083 17.6638 0.378761C16.9735 0.386073 16.2902 0.500141 15.6223 0.68952C15.0633 0.848923 14.516 1.04232 14.0144 1.33663C13.8001 1.4624 13.6297 1.43863 13.4078 1.37502C12.6625 1.15668 11.9108 0.961118 11.1535 0.788597C10.6815 0.682939 10.1957 0.629563 9.71342 0.57984C9.25066 0.531773 8.78606 0.502862 8.3209 0.493195C7.86682 0.483322 7.40981 0.483686 6.95755 0.523906C6.2377 0.587885 5.53171 0.734122 4.84512 0.970301C4.08828 1.22906 3.38108 1.61493 2.7539 2.11133C2.1141 2.61769 1.6008 3.23519 1.18877 3.94116C0.754075 4.68588 0.455381 5.48323 0.270389 6.32011C-0.0957028 7.97218 -0.067043 9.82742 0.218472 11.5003C0.304022 12.0055 0.381163 12.509 0.484997 13.0106C0.630139 13.7114 0.768701 14.4116 0.929563 15.1091C1.04655 15.6169 1.17342 16.1218 1.31271 16.6238C1.52476 17.3908 1.73169 18.1589 1.97189 18.9168C2.19527 19.6213 2.44972 20.3156 2.70382 21.0103C3.05198 21.9708 3.47874 22.9009 3.97976 23.7913C4.41662 24.5631 4.91496 25.2859 5.58398 25.88C6.0253 26.2719 6.51557 26.5728 7.08624 26.7235C7.53206 26.8419 7.9993 26.8549 8.45102 26.7615C8.97466 26.6551 9.46382 26.4208 9.87504 26.0796C9.92328 26.0405 9.9756 26.0102 10.033 26.0826C10.2502 26.3575 10.5404 26.541 10.8443 26.6993C11.6639 27.1271 12.5571 27.2554 13.4641 27.3073C13.6842 27.3198 13.9058 27.2883 14.127 27.2825C14.5587 27.2704 14.9777 27.1863 15.3898 27.0672C15.6062 27.0046 15.8171 26.9249 16.0372 26.8511C16.0486 27.0854 16.0632 27.3106 16.0705 27.5362L16.1008 28.7657C16.1067 28.9529 16.114 29.1401 16.1312 29.3265C16.1758 29.8069 16.2193 30.2873 16.2767 30.7663C16.3162 31.0964 16.3578 31.4287 16.4353 31.7512C16.5912 32.401 16.8043 33.0357 17.0722 33.6479C17.3287 34.2421 17.7233 34.7665 18.2232 35.1776ZM16.9103 29.0472C16.8843 28.4699 16.8649 27.8924 16.8521 27.3146C16.8368 26.6046 16.8317 25.8943 16.8218 25.1843L16.82 25.1572C16.4591 25.374 16.1034 25.6109 15.7272 25.8065C15.2859 26.0358 14.807 26.1685 14.3109 26.2061C13.9222 26.2354 13.5277 26.2621 13.141 26.2314C12.5063 26.1798 11.8716 26.0808 11.3034 25.7678C11.0731 25.6409 10.8325 25.4863 10.6735 25.2841C10.2929 24.7982 10.4754 24.1844 11.0494 23.889C11.446 23.6843 11.8789 23.5991 12.3088 23.4996C12.6831 23.4148 13.0534 23.3135 13.4188 23.1961C13.7793 23.0781 14.0067 22.7856 14.2315 22.4986L14.5876 22.0409L14.1595 21.9963C13.7347 21.9568 13.3292 21.8394 12.9417 21.6676C12.6105 21.521 12.6053 21.5049 12.3618 21.7689C11.956 22.2094 11.5612 22.6609 11.163 23.1092C10.8702 23.4389 10.5795 23.7705 10.2875 24.1014C9.99936 24.4286 9.72878 24.7741 9.4177 25.0783C8.95627 25.5301 8.39986 25.8018 7.73592 25.7711C7.31002 25.7513 6.92026 25.6022 6.56928 25.3583C5.84578 24.8545 5.35843 24.1489 4.91424 23.4086C4.34573 22.4595 3.90883 21.4486 3.53556 20.4103C3.27708 19.6922 3.01714 18.9739 2.79192 18.2456C2.54661 17.454 2.33127 16.6534 2.11959 15.852C1.95946 15.2477 1.8176 14.6382 1.68233 14.0277C1.52661 13.3337 1.38254 12.6371 1.25019 11.9383C1.16208 11.4663 1.11127 10.9873 1.03997 10.5124C0.943824 9.87154 0.926275 9.2255 0.961373 8.58245C0.992448 8.00294 1.07544 7.42531 1.15806 6.84989C1.27249 6.05357 1.535 5.30227 1.91229 4.59265C2.14503 4.16023 2.43029 3.75819 2.76158 3.39568C3.30632 2.79281 3.9655 2.35739 4.69891 2.03017C5.21107 1.80167 5.75256 1.66457 6.30422 1.55672C7.1232 1.39732 7.94942 1.4039 8.7757 1.42072C9.1369 1.42839 9.49699 1.49384 9.85786 1.53003C10.6351 1.60717 11.3967 1.77096 12.1487 1.97241C12.6971 2.11938 13.2342 2.31022 13.7774 2.47547C13.8315 2.49192 13.9116 2.49046 13.9566 2.46158C14.6933 1.98045 15.498 1.66311 16.3546 1.48141C16.6796 1.41267 17.0152 1.38233 17.3475 1.36113C17.7512 1.3359 18.1588 1.31177 18.5617 1.33553C19.0461 1.36332 19.529 1.43461 20.0105 1.50042C20.2445 1.53259 20.4727 1.61339 20.7067 1.63533C20.8192 1.64592 20.9381 1.5644 21.0565 1.53661C21.6612 1.39659 22.2634 1.24121 22.8735 1.13116C23.3276 1.04927 23.7919 1.01052 24.2533 0.984192C24.7688 0.954581 25.2872 0.93301 25.802 0.957869C26.4528 0.989309 27.0988 1.08181 27.7364 1.23024C28.5268 1.41414 29.2843 1.68102 30.0049 2.05174C30.5435 2.32923 31.0549 2.65023 31.5159 3.04508C31.818 3.30429 32.1272 3.55984 32.3996 3.84866C32.736 4.20476 33.0789 4.56048 33.2902 5.01638C33.4492 5.3604 33.5626 5.71651 33.594 6.09269C33.6328 6.56102 33.6799 7.03085 33.6759 7.4999C33.6719 7.94813 33.6105 8.39597 33.5673 8.84347C33.4682 9.86275 33.2471 10.8601 32.9776 11.8443C32.7528 12.6573 32.498 13.4616 32.2139 14.2558C31.9547 14.9881 31.6552 15.7068 31.3529 16.4231C31.13 16.9534 30.8881 17.4754 30.6276 17.9882C30.1325 18.9578 29.6178 19.9175 29.0222 20.8315C28.9195 20.9891 28.8218 21.1506 28.7217 21.3119C28.9816 21.487 29.2759 21.5488 29.5721 21.5809C29.8539 21.6113 30.1413 21.63 30.4228 21.6087C30.8736 21.5751 31.3229 21.5108 31.7712 21.4482C32.215 21.3861 32.6496 21.26 33.1059 21.2932C33.5607 21.3265 33.8868 21.6723 33.8558 22.0986C33.8361 22.3684 33.7121 22.5999 33.5329 22.7976C32.6866 23.7314 31.6242 24.2974 30.4089 24.5763C29.9472 24.6823 29.4711 24.7368 28.9984 24.7811C28.5948 24.8167 28.1892 24.8262 27.7843 24.8096C27.4874 24.7986 27.1931 24.7306 26.8896 24.6867C26.8589 24.9642 26.8301 25.2534 26.795 25.5415L26.6535 26.6467C26.6107 26.9969 26.5775 27.3486 26.5332 27.6989C26.49 28.0389 26.4363 28.3771 26.391 28.7167C26.3489 29.0329 26.3179 29.351 26.2704 29.6669C26.1983 30.151 26.1292 30.6361 26.0345 31.1165C25.9212 31.6905 25.7479 32.2462 25.4638 32.7643C25.118 33.3964 24.6277 33.8779 24.0033 34.2343C23.3598 34.6018 22.656 34.793 21.9435 34.9531C21.4382 35.0668 20.9187 35.0851 20.4072 35.0387C19.5206 34.9586 18.7639 34.5794 18.1917 33.8918C17.6459 33.2355 17.2763 32.4839 17.1443 31.6324C17.0821 31.2272 17.0338 30.8201 16.9995 30.4116C16.9599 29.9575 16.9301 29.5026 16.9103 29.0472ZM17.9069 23.2144C17.9124 23.5179 17.8809 23.8213 17.8824 24.1248C17.8886 25.5371 17.8989 26.9498 17.9109 28.3624C17.9131 28.5931 17.9244 28.8246 17.9409 29.0549C17.9756 29.5375 18.01 30.0204 18.0568 30.5016C18.0904 30.8434 18.1361 31.1842 18.1899 31.5234C18.2666 32.0034 18.4853 32.4312 18.7332 32.8403C18.9467 33.192 19.2249 33.4903 19.5909 33.6965C20.2131 34.0464 20.8825 34.0757 21.5574 33.947C22.0133 33.8603 22.4615 33.7203 22.9039 33.5759C23.3393 33.4363 23.7368 33.1985 24.0658 32.8809C24.3762 32.5804 24.5963 32.2137 24.7447 31.8089C25.0324 31.0244 25.1227 30.1978 25.2415 29.3781C25.2862 29.071 25.3249 28.7631 25.3655 28.4557C25.4119 28.1058 25.4587 27.7563 25.5033 27.4064C25.537 27.1453 25.5669 26.8847 25.5987 26.624C25.6444 26.2497 25.6923 25.8756 25.7358 25.5012C25.7691 25.2117 25.7969 24.9211 25.8269 24.6308C25.8649 24.2597 25.9055 23.8897 25.9387 23.5179C25.9636 23.2364 25.9534 22.9494 26.0034 22.6726C26.0952 22.1655 26.3351 21.7341 26.7847 21.4548C26.9726 21.3385 27.1854 21.2618 27.3938 21.1631L27.358 21.1086C27.1653 20.8585 26.9679 20.6125 26.7789 20.3595C26.482 19.9624 26.2685 19.5197 26.0539 19.0748C25.8506 18.6528 25.602 18.2536 25.3882 17.8365C25.0149 17.1089 24.6347 16.3832 24.2906 15.6421C23.8581 14.7099 23.5174 13.7454 23.4103 12.713C23.3646 12.2764 23.3529 11.8399 23.4417 11.4074C23.5832 10.7164 23.9436 10.1761 24.5506 9.80534C25.1136 9.46171 25.7406 9.35054 26.383 9.31584C26.7815 9.29424 27.1825 9.31181 27.596 9.31181L27.5825 9.24197C27.3251 8.70384 27.0849 8.1565 26.803 7.63152C26.406 6.89006 25.8971 6.22176 25.3311 5.60136C24.9135 5.14003 24.4546 4.71783 23.9601 4.34003C23.4709 3.96968 22.9554 3.63881 22.4052 3.36863C21.7516 3.0435 21.0612 2.79801 20.3491 2.63743C19.6599 2.48461 18.9671 2.39102 18.2601 2.38334C17.6576 2.37676 17.0587 2.40455 16.4715 2.54018C15.5853 2.74528 14.7748 3.11015 14.0703 3.70096C13.6801 4.02804 13.3315 4.40181 13.0323 4.81382C12.6788 5.29824 12.3944 5.82254 12.1509 6.37128C11.8167 7.12478 11.5875 7.90829 11.4303 8.71406C11.352 9.11621 11.2907 9.52094 11.2281 9.92563C11.2062 10.0679 11.2047 10.2123 11.1916 10.375L11.4592 10.2357L11.7202 10.1187C12.6039 9.71472 13.519 9.45475 14.5024 9.48437C14.9207 9.4968 15.3199 9.57979 15.6921 9.76296C16.405 10.1147 16.8218 10.7124 17.0031 11.4685C17.1282 11.9905 17.2141 12.5229 17.2974 13.0541C17.3625 13.4687 17.4294 13.8876 17.4367 14.3059C17.4473 14.9172 17.4166 15.5299 17.3833 16.1408C17.3549 16.6603 17.2474 17.1724 17.0645 17.6595C16.734 18.5428 16.3655 19.4119 16.0215 20.29C15.9078 20.5803 15.8204 20.8805 15.7133 21.1996L16.1476 21.2C16.2003 21.2011 16.254 21.2026 16.3048 21.2146C16.7001 21.3078 17.0434 21.487 17.3245 21.7912C17.7003 22.1948 17.897 22.6671 17.9069 23.2144ZM10.3584 19.0265C10.1343 18.4993 9.99922 17.9388 9.95842 17.3674C9.9204 16.8285 9.98434 16.2925 10.0399 15.7559C10.0933 15.2364 10.1387 14.7143 10.154 14.1929C10.1799 13.3349 10.1222 12.479 10.0812 11.6217C10.0568 11.1113 10.116 10.5947 10.1613 10.0832C10.2023 9.62256 10.2534 9.1608 10.3408 8.70672C10.4867 7.94482 10.6808 7.1939 10.9569 6.46598C11.2183 5.77574 11.5195 5.10413 11.9436 4.49906C12.235 4.08374 12.5648 3.69657 12.8817 3.29076L12.7874 3.25712C11.7553 2.92955 10.7061 2.67289 9.62645 2.56139C9.11645 2.50837 8.60424 2.47766 8.09275 2.44695C7.93555 2.43781 7.77614 2.45902 7.61856 2.47401C7.22846 2.51167 6.83328 2.52629 6.44938 2.59941C5.79605 2.72371 5.16907 2.93283 4.58885 3.27321C4.07537 3.57535 3.62521 3.97399 3.26318 4.44715C2.85846 4.9703 2.58536 5.56186 2.38977 6.19214C2.15871 6.93614 2.04829 7.70208 2.01868 8.47459C1.99272 9.15206 1.97993 9.83314 2.09692 10.5081C2.18357 11.01 2.2417 11.5178 2.33748 12.0183C2.46625 12.7008 2.61083 13.3801 2.77109 14.0558C3.00251 15.0225 3.2343 15.9899 3.50887 16.9448C3.77136 17.8592 4.06714 18.7655 4.38888 19.6612C4.65134 20.392 4.95518 21.1093 5.27506 21.8168C5.48347 22.2778 5.73571 22.7216 6.00043 23.153C6.28157 23.6115 6.60182 24.0466 7.03546 24.3792C7.58347 24.799 8.00722 24.8644 8.56435 24.4034C8.80272 24.2063 9.00418 23.9621 9.21182 23.73C9.54125 23.3614 9.85934 22.9819 10.1876 22.6116C10.6055 22.1403 11.0285 21.6738 11.4486 21.204C11.5374 21.1049 11.6233 21.0026 11.7096 20.9024L11.5659 20.777C11.048 20.2822 10.637 19.6864 10.3584 19.0265ZM26.2038 4.98638C26.5474 5.38555 26.8733 5.79955 27.1807 6.22723C27.7698 7.05331 28.2439 7.95557 28.59 8.90928C28.7436 9.33154 28.8664 9.75782 28.8116 10.2196C28.7736 10.5432 28.7761 10.8711 28.748 11.1965C28.7243 11.467 28.6811 11.7361 28.6464 12.0059C28.5937 12.4125 28.5177 12.8183 28.495 13.2266C28.4731 13.6156 28.4961 14.0083 28.5206 14.3976C28.5451 14.7936 28.5984 15.1877 28.6346 15.5826C28.6756 16.0311 28.7312 16.4786 28.7436 16.928C28.7538 17.2965 28.7209 17.6668 28.6891 18.0354C28.6483 18.4769 28.541 18.9098 28.3711 19.3193C28.253 19.6096 28.1122 19.8904 27.9795 20.1807L28.0329 20.237L28.114 20.2999L28.1963 20.1537C28.8867 19.0674 29.5001 17.934 30.032 16.762C30.373 16.0055 30.6965 15.2412 31.0023 14.4697C31.479 13.2705 31.8641 12.0368 32.1543 10.7793C32.2859 10.2148 32.3868 9.64157 32.476 9.0683C32.5458 8.62008 32.6036 8.16677 32.6168 7.71451C32.6303 7.23485 32.604 6.75154 32.5597 6.27331C32.5265 5.91211 32.4372 5.5487 32.2113 5.25437C31.8472 4.78167 31.4545 4.32979 30.9716 3.97187C30.5647 3.67098 30.1588 3.36132 29.7227 3.10832C29.0306 2.70653 28.2815 2.43964 27.4988 2.25757C26.7343 2.07953 25.9607 2.00275 25.182 1.9863C24.7227 1.97643 24.2614 2.02578 23.8032 2.06929C23.388 2.10804 22.9752 2.17458 22.5573 2.22942C23.0059 2.48169 23.4486 2.70616 23.8654 2.97049C24.7428 3.5262 25.5296 4.19488 26.2038 4.98638ZM14.8044 20.5474C15.0877 19.6407 15.4742 18.7742 15.8482 17.9034C16.152 17.1967 16.3176 16.4527 16.3728 15.6878C16.4003 15.3109 16.393 14.9292 16.3743 14.5512C16.3561 14.1306 16.3176 13.7112 16.2588 13.2943C16.1802 12.7627 16.0909 12.2307 15.9652 11.709C15.8288 11.1445 15.4852 10.7512 14.8958 10.606C14.5372 10.5179 14.1804 10.5216 13.8173 10.579C12.9314 10.7183 12.1206 11.0448 11.3652 11.523C11.2131 11.6191 11.129 11.697 11.1557 11.9145C11.2113 12.3766 11.2234 12.846 11.2212 13.3122C11.2183 13.9721 11.1901 14.632 11.1652 15.2916C11.1572 15.5062 11.1261 15.7204 11.1027 15.9343C11.0676 16.2618 10.9992 16.589 11.0015 16.9163C11.0037 17.2534 11.038 17.5981 11.1199 17.9246C11.3798 18.96 11.9297 19.8067 12.8316 20.4045C13.3862 20.7722 13.9997 20.9572 14.6736 20.9927C14.7181 20.838 14.7594 20.6922 14.8044 20.5474ZM13.7456 11.6674C13.6268 11.4184 13.6948 11.2118 13.9698 11.116C14.037 11.093 14.1058 11.0674 14.1752 11.0608C14.2714 11.0513 14.3683 11.0583 14.4651 11.0583C14.8143 11.0604 15.1499 11.1091 15.4376 11.3306C15.6226 11.4732 15.6723 11.6615 15.5524 11.856C15.3824 12.1313 15.1239 12.2695 14.8059 12.2958C14.3054 12.3372 13.954 12.1039 13.7456 11.6674ZM27.6293 11.5764L27.7429 10.5801C27.7594 10.447 27.6896 10.4104 27.5777 10.4071C27.2256 10.3976 26.874 10.3848 26.5219 10.379C26.1255 10.3717 25.7391 10.4353 25.3721 10.5859C24.9648 10.7537 24.6548 11.0221 24.5279 11.4656C24.4351 11.7924 24.4058 12.1339 24.4416 12.4717C24.4911 12.9944 24.6095 13.5082 24.7937 13.9999C25.0401 14.6554 25.2975 15.3106 25.6057 15.9386C26.0228 16.7887 26.4945 17.612 26.9376 18.4492C27.0556 18.6726 27.1558 18.9062 27.279 19.1669C27.5278 18.6483 27.6636 18.0828 27.6775 17.5078C27.6896 17.0322 27.6519 16.5554 27.6241 16.0798C27.607 15.7888 27.5656 15.4992 27.5375 15.2089C27.4984 14.8046 27.4384 14.3999 27.4289 13.9944C27.4198 13.582 27.449 13.1674 27.4841 12.7554C27.517 12.3612 27.5821 11.9697 27.6293 11.5764ZM26.8363 11.2568C26.7054 11.6176 26.4261 11.8216 26.0634 11.8812C25.7256 11.9372 25.4294 11.8125 25.2094 11.5427C25.0525 11.3508 25.1125 11.1237 25.3476 10.9936C25.6174 10.8444 25.9139 10.8067 26.2638 10.7841C26.3592 10.8012 26.5018 10.8163 26.6377 10.8546C26.8348 10.9102 26.9079 11.0594 26.8363 11.2568ZM16.3809 22.3721C16.1879 22.2142 15.9319 22.205 15.7484 22.3783C15.5203 22.594 15.3195 22.8404 15.1188 23.0832C14.8874 23.364 14.6695 23.6557 14.3712 23.8733C13.9365 24.1895 13.4287 24.3204 12.919 24.4443C12.5139 24.543 12.1067 24.6348 11.7005 24.7291L11.6953 24.7818C11.816 24.8374 11.9327 24.9072 12.0588 24.947C12.6785 25.143 13.3091 25.2409 13.9643 25.1854C14.4366 25.1448 14.8871 25.0417 15.3137 24.8395C15.9012 24.5613 16.3535 24.12 16.7377 23.6075C16.8021 23.5219 16.8313 23.3954 16.8386 23.285C16.8646 22.8953 16.6668 22.6054 16.3809 22.3721ZM27.6943 22.2032C27.3905 22.3052 27.1434 22.4606 27.0699 22.7892C27.0198 23.0115 27.0015 23.2415 26.9821 23.4693C26.9785 23.5095 27.0286 23.5833 27.0666 23.5936C27.3006 23.6554 27.536 23.7281 27.7752 23.7497C28.0694 23.7764 28.3685 23.768 28.6646 23.7533C28.9842 23.7372 29.3059 23.7164 29.621 23.6638C30.3628 23.5387 31.0812 23.3362 31.7188 22.915C31.9492 22.7633 32.1766 22.6083 32.4055 22.454L32.3865 22.4215C32.1426 22.4577 31.8995 22.5019 31.6545 22.5278C31.1558 22.5812 30.6568 22.6375 30.1563 22.6664C29.9146 22.6803 29.6697 22.6339 29.4262 22.6141C29.0174 22.5809 28.6182 22.4902 28.2727 22.2716C28.0735 22.1458 27.9068 22.1319 27.6943 22.2032Z" fill="#6DBFB8"/>
</svg>
