<svg width="46" height="45" viewBox="0 0 46 45" fill="none" xmlns="http://www.w3.org/2000/svg">
<g clip-path="url(#clip0_1_982)">
<path d="M6.425 7.34998V37.725C2.75 33.675 0.5 28.35 0.5 22.5C0.5 16.65 2.75 11.325 6.425 7.34998Z" fill="#6DBFB8"/>
<path d="M8.82495 10.65L21.8 36.675H8.82495V10.65Z" fill="#6DBFB8"/>
<path d="M23 33.75L10.25 8.32495H35.75L23 33.75Z" fill="#6DBFB8"/>
<path d="M22.9996 0C28.8496 0 34.1746 2.25 38.1496 5.925H7.84961C11.8246 2.25 17.1496 0 22.9996 0Z" fill="#6DBFB8"/>
<path d="M37.175 36.675H24.2L37.175 10.65V36.675Z" fill="#6DBFB8"/>
<path d="M38.1496 39.075C34.1746 42.75 28.8496 45 22.9996 45C17.1496 45 11.8246 42.75 7.84961 39.075H38.1496Z" fill="#6DBFB8"/>
<path d="M39.575 37.65V7.34998C43.25 11.325 45.5 16.65 45.5 22.5C45.5 28.35 43.25 33.675 39.575 37.65Z" fill="#6DBFB8"/>
<path d="M8.82495 10.6499L21.8 36.6749H8.82495V10.6499Z" fill="#6DBFB8"/>
<path d="M23 33.75L10.25 8.32495H35.75L23 33.75Z" fill="#6DBFB8"/>
<path d="M24.2 36.6749L37.175 10.6499V36.6749H24.2Z" fill="#6DBFB8"/>
<path d="M10.25 8.32495H35.75L23 33.75L10.25 8.32495Z" fill="#6DBFB8"/>
</g>
<defs>
<clipPath id="clip0_1_982">
<rect width="45" height="45" fill="white" transform="translate(0.5)"/>
</clipPath>
</defs>
</svg>
