<svg width="65" height="64" viewBox="0 0 65 64" fill="none" xmlns="http://www.w3.org/2000/svg">
<g clip-path="url(#clip0_35_801)">
<path d="M32.1119 63C49.785 63 64.1119 49.1208 64.1119 32C64.1119 14.8792 49.785 1 32.1119 1C14.4388 1 0.111938 14.8792 0.111938 32C0.111938 49.1208 14.4388 63 32.1119 63Z" fill="#6DBFB8"/>
<path opacity="0.1" d="M9.93192 9.71875C6.67889 12.527 4.05212 15.9492 2.21264 19.7757C0.373158 23.6021 -0.640287 27.7522 -0.765576 31.9715C-0.890865 36.1908 -0.125357 40.3905 1.48403 44.313C3.09341 48.2356 5.51276 51.7985 8.59378 54.7832C11.6748 57.7679 15.3526 60.1117 19.4017 61.6708C23.4508 63.2299 27.7859 63.9715 32.1413 63.8501C36.4967 63.7287 40.7807 62.7469 44.7306 60.9649C48.6805 59.1829 52.2131 56.6383 55.1119 53.4869L9.93192 9.71875Z" fill="#262E34"/>
<path d="M33.4019 19.7938L24.1119 44.2063H20.8219L11.6819 19.7938H14.9719L21.9719 39.1688C22.2133 39.8713 22.3841 40.5948 22.4819 41.3291H22.5519C22.6567 40.5756 22.8445 39.8351 23.1119 39.1204L30.2319 19.7454L33.4019 19.7938Z" fill="#262E34"/>
<path d="M37.0319 44.2063V19.7938H44.2019C46.0639 19.6973 47.9005 20.2468 49.3819 21.3438C50.0015 21.8284 50.4971 22.4452 50.8302 23.1459C51.1632 23.8466 51.3247 24.6124 51.3019 25.3835C51.3215 26.6783 50.9036 27.9438 50.1119 28.9873C49.313 30.0263 48.1916 30.7902 46.9119 31.1669V31.2348C48.4596 31.3556 49.9093 32.0165 50.9919 33.0948C52.0386 34.2125 52.5883 35.6848 52.5219 37.1926C52.5547 38.1533 52.363 39.1088 51.9613 39.9878C51.5596 40.8667 50.9582 41.6465 50.2019 42.2688C48.5654 43.5915 46.4819 44.2816 44.3519 44.2063H37.0319ZM40.0319 22.3707V30.2563H43.0319C44.3979 30.3185 45.7419 29.9063 46.8219 29.0938C47.2899 28.6989 47.6584 28.2055 47.8993 27.6514C48.1403 27.0973 48.2472 26.4972 48.2119 25.8969C48.2119 23.5267 46.6019 22.3416 43.3819 22.3416L40.0319 22.3707ZM40.0319 32.8235V41.6101H44.0319C45.4697 41.6908 46.8894 41.2679 48.0319 40.4185C48.5086 40.0137 48.8848 39.5099 49.1324 38.9446C49.38 38.3793 49.4926 37.7672 49.4619 37.1538C49.4619 34.2734 47.4353 32.8332 43.3819 32.8332L40.0319 32.8235Z" fill="#262E34"/>
</g>
<defs>
<clipPath id="clip0_35_801">
<rect width="64" height="62" fill="white" transform="translate(0.111938 1)"/>
</clipPath>
</defs>
</svg>
