<svg width="45" height="45" viewBox="0 0 45 45" fill="none" xmlns="http://www.w3.org/2000/svg">
<path d="M19.8 0.810046C17.235 2.11505 16.515 3.87005 16.425 9.40505C16.335 14.625 16.02 15.525 13.185 19.26C10.935 22.185 9.00004 26.46 8.91004 28.755C8.82004 30.96 7.83004 32.49 5.85004 33.3C4.41004 33.885 4.23004 34.335 3.87004 38.34C3.64504 41.3101 4.18504 42.0751 6.97504 42.5251C7.96504 42.7051 9.94504 43.2001 11.385 43.6951C14.76 44.8201 15.615 44.7751 17.685 43.3351C19.26 42.2551 19.845 42.1201 23.13 42.1201C26.64 42.1651 26.865 42.2101 28.215 43.6051C30.33 45.6751 32.355 45.4501 35.325 42.7501C36.09 42.0751 37.62 40.9951 38.745 40.365C39.915 39.69 40.95 38.835 41.13 38.475C41.265 38.07 40.905 36.855 40.275 35.82C39.645 34.74 39.15 33.57 39.15 33.21C39.15 32.805 38.835 32.22 38.43 31.905C37.935 31.5 37.8 30.87 37.98 29.79C38.52 26.28 37.395 23.67 31.95 16.11C30.51 14.085 30.42 13.635 30.15 9.27005C29.79 3.87005 28.98 2.02505 26.55 0.810046C25.695 0.360046 24.165 4.63678e-05 23.175 4.63678e-05C22.185 4.63678e-05 20.655 0.360046 19.8 0.810046ZM25.74 7.06505C26.775 7.96505 26.865 10.8 25.875 10.8C25.425 10.8 25.2 10.35 25.2 9.54005C25.2 7.96505 24.795 7.51505 23.985 8.14505C22.905 9.09005 23.31 10.35 24.975 11.07C25.83 11.43 26.55 12.015 26.55 12.375C26.55 13.23 22.68 15.75 21.33 15.75C20.79 15.75 20.115 15.435 19.8 15.075C19.35 14.535 19.35 14.4 19.8 14.4C20.115 14.4 19.89 13.995 19.305 13.545C18.72 13.05 18.135 12.78 18.045 12.87C17.91 12.96 18.225 13.365 18.72 13.725C19.395 14.22 19.44 14.4 18.9 14.4C17.685 14.445 20.25 16.2 21.555 16.2C22.185 16.2 23.625 15.705 24.705 15.075C25.74 14.445 26.685 13.95 26.775 13.95C26.865 13.95 27.045 14.49 27.225 15.165C27.36 15.885 28.485 18.63 29.655 21.375C30.87 24.075 31.95 26.685 32.085 27.09C32.265 27.54 32.625 27.9 32.895 27.9C33.255 27.9 33.345 27.09 33.21 25.29C32.985 22.905 33.03 22.815 33.57 24.075C33.885 24.795 34.155 26.01 34.2 26.685C34.2 27.54 34.65 28.35 35.55 29.115C36.315 29.7 36.9 30.465 36.9 30.735C36.9 31.05 36.675 30.915 36.405 30.465C35.865 29.565 33.66 28.35 32.535 28.35C31.05 28.35 29.205 31.275 28.755 34.38C28.215 38.25 28.08 38.52 26.055 39.33C22.905 40.59 19.575 40.23 17.46 38.34C16.74 37.71 16.695 37.62 17.415 37.125C18.585 36.27 17.775 34.47 15.39 32.58C14.22 31.635 12.915 30.51 12.51 30.015C11.43 28.845 11.475 25.92 12.6 23.49C13.77 20.88 14.085 21.105 12.96 23.805C12.285 25.38 12.105 26.415 12.33 27.63C12.735 29.655 13.275 29.43 13.68 27.09C13.815 26.145 14.58 23.94 15.345 22.23C17.1 18.405 18.495 14.04 18 13.725C17.82 13.635 17.685 12.06 17.73 10.26C17.775 7.24505 17.865 6.97505 18.765 6.84005C19.845 6.66005 20.925 8.19005 20.52 9.27005C20.34 9.67505 20.61 9.90005 21.285 9.90005C22.05 9.90005 22.275 9.63005 22.365 8.68505C22.41 7.51505 23.49 6.30005 24.48 6.30005C24.705 6.30005 25.29 6.61505 25.74 7.06505ZM31.545 20.565C32.13 21.285 32.085 21.33 31.41 20.745C30.96 20.43 30.6 20.07 30.6 19.98C30.6 19.62 30.96 19.845 31.545 20.565ZM11.79 31.14C12.15 31.455 13.05 32.715 13.725 33.975C14.445 35.19 15.66 37.08 16.515 38.16C18.225 40.455 18.405 41.9851 17.01 42.9301C15.66 43.8751 13.995 43.8301 11.25 42.7501C9.99004 42.2551 8.37004 41.8501 7.60504 41.8501C4.95004 41.8501 4.54504 41.3101 4.68004 37.71C4.81504 34.515 5.44504 33.3 7.02004 33.3C7.33504 33.3 8.01004 32.67 8.55004 31.95C9.58504 30.51 10.665 30.24 11.79 31.14ZM32.13 32.805C32.715 33.3 33.165 33.21 34.875 32.4C36.855 31.455 36.99 31.41 37.8 32.175C38.295 32.625 38.7 33.3 38.7 33.705C38.7 34.11 39.105 35.01 39.6 35.775C40.95 37.8 40.725 38.565 38.61 39.645C37.53 40.185 35.91 41.3101 35.01 42.1201C33.12 43.7851 31.59 44.3251 29.925 43.9201C28.08 43.4701 27.72 42.1651 28.53 38.79C28.89 37.125 29.295 34.875 29.475 33.75C29.79 31.32 30.6 30.105 31.095 31.365C31.275 31.815 31.725 32.49 32.13 32.805Z" fill="#6DBFB8"/>
<path d="M18.4501 9.76501C18.4501 11.295 18.4951 11.385 19.1701 10.71C19.6201 10.26 19.8001 9.67501 19.5751 9.04501C19.1251 7.51501 18.4501 7.96501 18.4501 9.76501Z" fill="#6DBFB8"/>
</svg>
