<svg width="36" height="36" viewBox="0 0 36 36" fill="none" xmlns="http://www.w3.org/2000/svg">
<path d="M3.92259 0V1.33005H9.68246V0H3.92259ZM11.4549 0V1.33005H17.2175V0H11.4549ZM18.8903 0V1.33005H24.653V0H18.8903ZM26.2937 0V1.33005H32.0565V0H26.2937ZM3.67073 2.84175C3.4864 2.84163 3.30386 2.87785 3.13354 2.94834C2.96321 3.01882 2.80846 3.12219 2.67812 3.25253C2.54778 3.38287 2.44441 3.53763 2.37392 3.70795C2.30344 3.87828 2.26722 4.06082 2.26733 4.24515C2.26733 5.02066 2.89509 5.65142 3.67073 5.65142H32.3289C33.1045 5.65142 33.7322 5.0208 33.7322 4.24515C33.7324 4.06082 33.6961 3.87828 33.6257 3.70795C33.5552 3.53763 33.4518 3.38287 33.3214 3.25253C33.1911 3.12219 33.0364 3.01882 32.866 2.94834C32.6957 2.87785 32.5132 2.84163 32.3289 2.84175H3.67073ZM3.92273 7.11331V36H9.68226V7.11331H3.92273ZM11.4549 7.11331V30.8145H17.2175V7.11331H11.4549ZM18.8903 7.11331V22.9365H24.6649V7.11331H18.8903ZM26.2937 7.11331V16.8544H32.0565V7.11331H26.2937Z" fill="#6DBFB8"/>
</svg>
