<svg width="49" height="45" viewBox="0 0 49 45" fill="none" xmlns="http://www.w3.org/2000/svg">
<path fill-rule="evenodd" clip-rule="evenodd" d="M47.5627 11.8229L43.3013 17.7812L39.04 11.8229H41.3634C41.1863 7.39583 37.5292 3.85417 33.0595 3.85417C29.2879 3.85417 26.0893 6.38542 25.0786 9.83333C23.8492 9.4375 22.5781 9.1875 21.2861 9.07292C21.432 8.52083 21.6195 7.96875 21.8488 7.4375C22.4635 5.98958 23.3387 4.6875 24.4535 3.57292C25.5683 2.45833 26.8707 1.57292 28.3189 0.96875C29.8192 0.322917 31.4133 0 33.0595 0C34.7057 0 36.2998 0.322917 37.8001 0.958333C39.2484 1.57292 40.5507 2.44792 41.6655 3.5625C42.7804 4.67708 43.6556 5.97917 44.2703 7.42708C44.8642 8.82292 45.1871 10.3021 45.2184 11.8229H47.5627Z" fill="#6DBFB8"/>
<path fill-rule="evenodd" clip-rule="evenodd" d="M41.6028 44.9999V42.4374H26.9121C27.0163 42.3853 27.1205 42.3437 27.2247 42.2916C28.8188 41.5312 30.2878 40.5416 31.6006 39.3333C31.7777 39.1666 31.9444 39.0103 32.1007 38.8541C32.2779 38.677 32.4654 38.4895 32.6425 38.2916C32.8509 38.0624 33.0593 37.8228 33.2468 37.5832H41.6028V35.0208L48.5835 40.0103L41.6028 44.9999Z" fill="#6DBFB8"/>
<path fill-rule="evenodd" clip-rule="evenodd" d="M36.1848 26.4895C36.1848 28.7083 35.7472 30.8645 34.8929 32.8958C34.1635 34.625 33.1425 36.2083 31.8714 37.5937C31.7047 37.7708 31.538 37.9479 31.3713 38.125C31.215 38.2812 31.0587 38.427 30.9024 38.5833C29.673 39.7187 28.2977 40.6458 26.7974 41.3645C26.589 41.4687 26.3702 41.5625 26.1514 41.6562C26.141 41.6562 26.141 41.6666 26.1305 41.6666C24.8803 42.1979 23.5362 42.4583 22.1714 42.4583H0.5V37.6145H20.6189C26.7036 37.6145 31.6943 32.75 31.7776 26.6666C31.7776 26.6145 31.7776 26.5625 31.7776 26.5104C31.7776 19.8645 26.3806 14.4687 19.7333 14.4687C13.0861 14.4479 7.68906 19.8333 7.68906 26.4895H10.4813L5.49066 33.4687L0.5 26.4895H3.29227C3.29227 24.2708 3.72987 22.1145 4.58422 20.0833C5.41773 18.125 6.59507 16.3645 8.10581 14.8541C9.61656 13.3437 11.3774 12.1562 13.3361 11.3333C15.3678 10.4791 17.5245 10.0416 19.7437 10.0416C20.1918 10.0416 20.6294 10.0625 21.067 10.0937C22.3589 10.1979 23.6196 10.4479 24.849 10.8541C25.2866 11 25.7138 11.1562 26.141 11.3437C28.0997 12.177 29.8605 13.3541 31.3713 14.8645C32.882 16.375 34.0698 18.1354 34.8929 20.0937C35.7472 22.1145 36.1848 24.2708 36.1848 26.4895Z" fill="#6DBFB8"/>
</svg>
