<svg width="36" height="36" viewBox="0 0 36 36" fill="none" xmlns="http://www.w3.org/2000/svg">
<g clip-path="url(#clip0_2005_497)">
<mask id="mask0_2005_497" style="mask-type:luminance" maskUnits="userSpaceOnUse" x="0" y="0" width="36" height="36">
<path d="M36 0H0V36H36V0Z" fill="white"/>
</mask>
<g mask="url(#mask0_2005_497)">
<path fill-rule="evenodd" clip-rule="evenodd" d="M3.91286 9.39101H17.9997V7.82573H9.39101V3.91286C9.39101 3.91286 9.39101 0 17.9997 0C26.6084 0 26.6084 3.91286 26.6084 3.91286C26.6084 3.91286 26.6731 10.8814 26.6408 13.2664C26.6084 15.6521 25.0431 17.2167 22.6904 17.2167H13.3045C10.1739 17.2167 7.82635 19.5643 7.82635 22.6949V26.6077H3.9135C3.9135 26.6077 0 26.6084 0 17.9997C0 9.39101 3.91286 9.39101 3.91286 9.39101ZM14.8692 3.9135C14.8692 4.77773 14.1681 5.47877 13.3039 5.47877C12.4396 5.47877 11.7386 4.77773 11.7386 3.9135C11.7386 3.04927 12.4396 2.34823 13.3039 2.34823C14.1681 2.34823 14.8692 3.04927 14.8692 3.9135Z" fill="#6DBFB8"/>
<path fill-rule="evenodd" clip-rule="evenodd" d="M32.0878 26.6083H18.001V28.1736H26.6097V32.0865C26.6097 32.0865 26.6097 35.9993 18.001 35.9993C9.39233 35.9993 9.39233 32.0865 9.39233 32.0865V22.6955C9.39233 20.3473 10.9576 18.7826 13.3052 18.7826H22.6968C25.8274 18.7826 28.175 16.435 28.175 13.3045V9.3916H32.0878C32.0878 9.3916 36.0007 9.3916 36.0007 18.0003C36.0007 26.609 32.0878 26.609 32.0878 26.609V26.6083ZM24.2608 32.0871C24.2608 32.9513 23.5598 33.6524 22.6955 33.6524C21.8313 33.6524 21.1303 32.9513 21.1303 32.0871C21.1303 31.2229 21.8313 30.5218 22.6955 30.5218C23.5598 30.5218 24.2608 31.2229 24.2608 32.0871Z" fill="#6DBFB8"/>
</g>
</g>
<defs>
<clipPath id="clip0_2005_497">
<rect width="36" height="36" fill="white"/>
</clipPath>
</defs>
</svg>
