<svg width="60" height="60" viewBox="0 0 60 60" fill="none" xmlns="http://www.w3.org/2000/svg">
<g clip-path="url(#clip0_34_778)">
<g clip-path="url(#clip1_34_778)">
<path fill-rule="evenodd" clip-rule="evenodd" d="M12.9622 5.00586C9.53867 5.00586 7.00543 8.13973 7.11887 11.5383C7.22773 14.8035 7.08629 19.0323 6.0684 22.4809C5.04688 25.9392 3.32047 28.1307 0.5 28.412V31.5878C3.32047 31.8697 5.04688 34.0601 6.06828 37.5188C7.08629 40.9675 7.22762 45.1963 7.11875 48.4614C7.00531 51.8595 9.53855 54.9939 12.9627 54.9939H48.0424C51.4659 54.9939 53.9987 51.86 53.8852 48.4614C53.7764 45.1963 53.9178 40.9675 54.9357 37.5188C55.9572 34.0601 57.6794 31.8688 60.5 31.5878V28.412C57.6795 28.1301 55.9573 25.9397 54.9357 22.4809C53.9177 19.0328 53.7764 14.8035 53.8852 11.5383C53.9987 8.14022 51.4659 5.00586 48.0424 5.00586H12.9617H12.9622ZM41.178 35.7768C41.178 40.4565 37.8404 43.2946 32.3015 43.2946H22.8729C22.6031 43.2946 22.3445 43.1826 22.1538 42.9831C21.963 42.7837 21.8559 42.5131 21.8559 42.2311V17.7688C21.8559 17.4867 21.963 17.2162 22.1538 17.0168C22.3445 16.8173 22.6031 16.7052 22.8729 16.7052H32.2479C36.8663 16.7052 39.8974 19.3217 39.8974 23.3387C39.8974 26.1582 37.8583 28.6824 35.2606 29.1246V29.2716C38.7969 29.6773 41.178 32.2388 41.178 35.7768ZM31.2734 20.0768H25.8973V28.0187H30.4254C33.9257 28.0187 35.8558 26.5445 35.8558 23.9096C35.8555 21.4403 34.1961 20.0768 31.2734 20.0768ZM25.8973 31.1698V39.922H31.4712C35.1158 39.922 37.0462 38.3926 37.0462 35.5183C37.0462 32.644 35.0616 31.1694 31.2369 31.1694H25.8973V31.1698Z" fill="#6DBFB8"/>
</g>
</g>
<defs>
<clipPath id="clip0_34_778">
<rect width="60" height="60" fill="white"/>
</clipPath>
<clipPath id="clip1_34_778">
<rect width="60" height="50" fill="white" transform="translate(0.5 5)"/>
</clipPath>
</defs>
</svg>
