<svg width="45" height="45" viewBox="0 0 45 45" fill="none" xmlns="http://www.w3.org/2000/svg">
<path d="M43.83 4.89801L35.6088 2.09271C35.0637 1.90627 34.4544 2.00467 33.9958 2.35511L15.4627 16.5283L6.08712 10.8815C5.60596 10.5897 5.01404 10.55 4.49827 10.7762L1.03673 12.2867C0.406731 12.5612 0 13.1827 0 13.8681V31.1314C0 31.8168 0.406731 32.4383 1.03673 32.7128L4.49827 34.2233C5.01231 34.4495 5.60423 34.408 6.08712 34.118L15.461 28.4711L33.994 42.6444C34.3004 42.8792 34.6725 43 35.0463 43C35.235 43 35.4237 42.9689 35.6071 42.9068L43.8283 40.1015C44.5292 39.8632 45 39.2072 45 38.4684V6.53112C45 5.79225 44.5292 5.13624 43.83 4.89801ZM6.92308 25.5485V19.451L11.9821 22.4997L6.92308 25.5485ZM34.6154 30.6429L22.5658 22.4997L34.6154 14.3566V30.6429Z" fill="#6DBFB8"/>
</svg>
