<svg width="36" height="36" viewBox="0 0 36 36" fill="none" xmlns="http://www.w3.org/2000/svg">
<g clip-path="url(#clip0_2005_495)">
<path d="M1.50165 14.125C3.39846 15.043 13.989 19.3533 15.6487 20.1516C17.3085 20.9497 18.494 20.9497 20.6279 19.8721C22.7223 18.7547 32.6806 14.6439 34.5774 13.6461C35.5653 13.1273 36 12.7282 36 12.369V8.7371C36 8.37787 35.5258 8.05862 34.5774 7.69939L20.944 2.35138C19.0472 1.63299 18.2964 1.6729 16.0834 2.47111C13.831 3.26933 3.31943 7.45997 1.46213 8.17833C0.553238 8.53752 0.0395172 8.89675 0.0395172 9.25593H0V12.8878C0 13.2869 0.553238 13.686 1.50165 14.125ZM18.7311 14.6439L12.9221 12.2093L21.2602 10.9322L18.7311 14.6439ZM31.337 8.85681L26.3974 10.8124L25.8837 11.012L20.9835 9.05635L26.4369 6.86126L31.337 8.85681ZM16.9133 5.26488L16.123 3.74825L18.6125 4.746L20.9835 3.94781L20.3513 5.5043L22.7618 6.42225L19.64 6.74155L18.9287 8.41781L17.8222 6.5819L14.2261 6.26261L16.9133 5.26488ZM10.7091 7.38014C13.1592 7.38014 15.1745 8.17833 15.1745 9.13617C15.1745 10.0941 13.1987 10.8923 10.7091 10.8923C8.25907 10.8923 6.2437 10.0941 6.2437 9.13617C6.2437 8.17833 8.25907 7.38014 10.7091 7.38014ZM1.50165 20.3511C3.39846 21.269 13.989 25.5794 15.6487 26.3776C17.3085 27.1758 18.494 27.1758 20.6279 26.0982C22.7223 24.9807 32.6806 20.8699 34.5774 19.8721C35.5653 19.3533 36 18.9542 36 18.595V14.9631C36 15.3224 35.5258 15.6816 34.6169 16.2004C32.7201 17.1982 22.7618 21.3489 20.6674 22.4265C18.573 23.544 17.3875 23.544 15.7278 22.7058C14.0681 21.9076 3.43798 17.5972 1.54116 16.6793C0.592757 16.2403 0.0395172 15.8412 0.0395172 15.482V19.1538C1.50204e-07 19.513 0.553238 19.8721 1.50165 20.3511ZM1.50165 26.3377C3.39846 27.2556 13.989 31.566 15.6487 32.3642C17.3085 33.1624 18.494 33.1624 20.6279 32.0848C22.7223 30.9673 32.6806 26.8565 34.5774 25.8588C35.5653 25.3399 36 24.9408 36 24.5816V20.9497C36 21.3089 35.5258 21.6682 34.6169 22.187C32.7201 23.1848 22.7618 27.3355 20.6674 28.413C18.573 29.5306 17.3875 29.5306 15.7278 28.6924C14.0681 27.8942 3.43798 23.5838 1.54116 22.6659C0.592757 22.2269 0.0395172 21.8278 0.0395172 21.4686V25.1404C1.50204e-07 25.4597 0.553238 25.8588 1.50165 26.3377Z" fill="#6DBFB8"/>
</g>
<defs>
<clipPath id="clip0_2005_495">
<rect width="36" height="36" fill="white"/>
</clipPath>
</defs>
</svg>
