<svg width="80" height="100" viewBox="0 0 80 100" fill="none" xmlns="http://www.w3.org/2000/svg">
<path d="M22.06 92.884C21.88 93.04 21.628 93.196 21.304 93.352C20.98 93.496 20.62 93.628 20.224 93.748C19.84 93.868 19.438 93.964 19.018 94.036C18.61 94.108 18.226 94.144 17.866 94.144C16.822 94.144 15.88 93.982 15.04 93.658C14.212 93.334 13.498 92.884 12.898 92.308C12.31 91.732 11.854 91.054 11.53 90.274C11.218 89.494 11.062 88.648 11.062 87.736C11.062 86.656 11.236 85.69 11.584 84.838C11.944 83.974 12.43 83.248 13.042 82.66C13.666 82.06 14.38 81.61 15.184 81.31C15.988 80.998 16.84 80.842 17.74 80.842C18.496 80.842 19.198 80.932 19.846 81.112C20.494 81.292 21.064 81.52 21.556 81.796L20.962 83.398C20.722 83.254 20.422 83.122 20.062 83.002C19.714 82.882 19.354 82.786 18.982 82.714C18.61 82.63 18.262 82.588 17.938 82.588C17.17 82.588 16.474 82.708 15.85 82.948C15.226 83.176 14.692 83.512 14.248 83.956C13.804 84.388 13.462 84.916 13.222 85.54C12.982 86.152 12.862 86.842 12.862 87.61C12.862 88.318 12.982 88.966 13.222 89.554C13.462 90.142 13.804 90.652 14.248 91.084C14.692 91.504 15.22 91.834 15.832 92.074C16.456 92.302 17.14 92.416 17.884 92.416C18.328 92.416 18.766 92.374 19.198 92.29C19.63 92.194 20.002 92.062 20.314 91.894V89.302H17.722V87.628H22.06V92.884ZM24.9756 86.548H26.6496V94H24.9756V86.548ZM24.8496 83.848C24.8496 83.584 24.9516 83.362 25.1556 83.182C25.3716 83.002 25.6056 82.912 25.8576 82.912C26.1096 82.912 26.3316 83.002 26.5236 83.182C26.7276 83.362 26.8296 83.584 26.8296 83.848C26.8296 84.124 26.7276 84.352 26.5236 84.532C26.3316 84.7 26.1096 84.784 25.8576 84.784C25.6056 84.784 25.3716 84.694 25.1556 84.514C24.9516 84.334 24.8496 84.112 24.8496 83.848ZM30.2659 83.272H31.9399V86.584H33.9919V87.898H31.9399V94H30.2659V87.898H28.8979V86.584H30.2659V83.272ZM46.7246 80.986V94H44.9966V88.294H38.1746V94H36.4286V80.986H38.1746V86.638H44.9966V80.986H46.7246ZM52.4176 94.288C51.7456 94.288 51.1876 94.084 50.7436 93.676C50.3116 93.256 50.0836 92.716 50.0596 92.056V86.548H51.7336V91.462C51.7576 91.87 51.8716 92.2 52.0756 92.452C52.2916 92.704 52.6276 92.836 53.0836 92.848C53.5036 92.848 53.8756 92.728 54.1996 92.488C54.5356 92.236 54.8056 91.9 55.0096 91.48C55.2136 91.048 55.3156 90.562 55.3156 90.022V86.548H56.9896V94H55.4596L55.3156 92.164L55.4056 92.488C55.2616 92.836 55.0396 93.148 54.7396 93.424C54.4516 93.688 54.1096 93.898 53.7136 94.054C53.3176 94.21 52.8856 94.288 52.4176 94.288ZM64.4217 94.18C63.7377 94.18 63.1317 94.03 62.6037 93.73C62.0877 93.43 61.6737 93.052 61.3617 92.596L61.5597 92.074V94H59.8857V80.068H61.5417V88.258L61.4877 87.628C61.7877 87.22 62.2137 86.89 62.7657 86.638C63.3297 86.374 63.9537 86.242 64.6377 86.242C65.3097 86.242 65.9217 86.404 66.4737 86.728C67.0257 87.052 67.4637 87.508 67.7877 88.096C68.1237 88.672 68.2917 89.362 68.2917 90.166C68.2917 91.006 68.1117 91.726 67.7517 92.326C67.4037 92.926 66.9357 93.388 66.3477 93.712C65.7597 94.024 65.1177 94.18 64.4217 94.18ZM64.0797 92.758C64.5597 92.758 64.9917 92.644 65.3757 92.416C65.7597 92.188 66.0597 91.882 66.2757 91.498C66.4917 91.102 66.5997 90.652 66.5997 90.148C66.5997 89.668 66.4857 89.236 66.2577 88.852C66.0417 88.456 65.7417 88.144 65.3577 87.916C64.9857 87.688 64.5597 87.574 64.0797 87.574C63.6717 87.574 63.2937 87.652 62.9457 87.808C62.5977 87.964 62.3037 88.18 62.0637 88.456C61.8237 88.72 61.6557 89.032 61.5597 89.392V90.886C61.6557 91.246 61.8177 91.57 62.0457 91.858C62.2737 92.134 62.5617 92.356 62.9097 92.524C63.2577 92.68 63.6477 92.758 64.0797 92.758Z" fill="#6DBFB8"/>
<path d="M40 5C23.425 5 10 18.5355 10 35.2469C9.9966 41.5966 11.9764 47.7861 15.6587 52.9373C19.3409 58.0886 24.5384 61.94 30.514 63.9452C32.014 64.2083 32.575 63.3009 32.575 62.5054C32.575 61.7886 32.536 59.4081 32.536 56.8734C25 58.2739 23.05 55.0223 22.45 53.3194C22.111 52.4483 20.65 49.7654 19.375 49.0455C18.325 48.4799 16.825 47.0795 19.336 47.0432C21.7 47.0039 23.386 49.2361 23.95 50.1435C26.65 54.7168 30.964 53.4313 32.686 52.6389C32.95 50.6728 33.736 49.351 34.6 48.5949C27.925 47.8387 20.95 45.2284 20.95 33.6589C20.95 30.3681 22.111 27.6489 24.025 25.5286C23.725 24.7724 22.675 21.6721 24.325 17.5131C24.325 17.5131 26.836 16.7207 32.575 20.6165C35.0172 19.9331 37.5405 19.5891 40.075 19.5941C42.625 19.5941 45.175 19.9329 47.575 20.6135C53.311 16.6814 55.825 17.5162 55.825 17.5162C57.475 21.6751 56.425 24.7754 56.125 25.5316C58.036 27.6489 59.2 30.3318 59.2 33.6589C59.2 45.2677 52.189 47.8387 45.514 48.5949C46.6 49.5386 47.539 51.3534 47.539 54.1905C47.539 58.2346 47.5 61.4861 47.5 62.5084C47.5 63.3009 48.064 64.2446 49.564 63.9421C55.5191 61.915 60.6938 58.0561 64.3597 52.9085C68.0257 47.761 69.9983 41.584 70 35.2469C70 18.5355 56.575 5 40 5Z" fill="#6DBFB8"/>
</svg>
