<svg width="80" height="100" viewBox="0 0 80 100" fill="none" xmlns="http://www.w3.org/2000/svg">
<path d="M12.5027 30.4734C15.6641 32.0034 33.315 39.1873 36.0812 40.5177C38.8474 41.848 40.8233 41.848 44.3798 40.052C47.8705 38.1895 64.4676 31.3382 67.629 29.6753C69.2755 28.8106 70 28.1454 70 27.5467V21.4936C70 20.8949 69.2097 20.3628 67.629 19.7641L44.9067 10.8507C41.7454 9.65341 40.494 9.71993 36.8057 11.0503C33.0516 12.3806 15.5324 19.365 12.4369 20.5623C10.9221 21.161 10.0659 21.7597 10.0659 22.3583H10V28.4114C10 29.0766 10.9221 29.7418 12.5027 30.4734ZM41.2185 31.3382L31.5368 27.2806L45.4336 25.1521L41.2185 31.3382ZM62.2283 21.6931L53.9956 24.9525L53.1394 25.2851L44.9726 22.0257L54.0614 18.3672L62.2283 21.6931ZM38.1888 15.7066L36.8716 13.1788L41.0209 14.8418L44.9726 13.5114L43.9188 16.1056L47.9363 17.6355L42.7333 18.1677L41.5478 20.9614L39.7036 17.9016L33.7102 17.3694L38.1888 15.7066ZM27.8485 19.232C31.9319 19.232 35.2909 20.5623 35.2909 22.1587C35.2909 23.7552 31.9978 25.0855 27.8485 25.0855C23.7651 25.0855 20.4062 23.7552 20.4062 22.1587C20.4062 20.5623 23.7651 19.232 27.8485 19.232ZM12.5027 40.8502C15.6641 42.3802 33.315 49.5641 36.0812 50.8944C38.8474 52.2248 40.8233 52.2248 44.3798 50.4288C47.8705 48.5663 64.4676 41.715 67.629 40.052C69.2755 39.1873 70 38.5222 70 37.9234V31.8703C70 32.469 69.2097 33.0677 67.6949 33.9324C64.5335 35.5954 47.9363 42.5132 44.4457 44.3092C40.955 46.1717 38.9791 46.1717 36.213 44.7748C33.4468 43.4444 15.73 36.2605 12.5686 34.7306C10.9879 33.9989 10.0659 33.3338 10.0659 32.735V38.8547C10 39.4534 10.9221 40.052 12.5027 40.8502ZM12.5027 50.8279C15.6641 52.3578 33.315 59.5418 36.0812 60.8721C38.8474 62.2025 40.8233 62.2025 44.3798 60.4065C47.8705 58.544 64.4676 51.6926 67.629 50.0297C69.2755 49.165 70 48.4998 70 47.9011V41.848C70 42.4466 69.2097 43.0454 67.6949 43.9101C64.5335 45.573 47.9363 52.4909 44.4457 54.2868C40.955 56.1494 38.9791 56.1494 36.213 54.7525C33.4468 53.4221 15.73 46.2382 12.5686 44.7082C10.9879 43.9766 10.0659 43.3114 10.0659 42.7127V48.8324C10 49.3646 10.9221 50.0297 12.5027 50.8279Z" fill="#6DBFB8"/>
<path d="M23.328 80.986C23.988 80.986 24.594 81.076 25.146 81.256C25.71 81.424 26.196 81.682 26.604 82.03C27.024 82.366 27.348 82.786 27.576 83.29C27.816 83.782 27.936 84.358 27.936 85.018C27.936 85.534 27.858 86.038 27.702 86.53C27.558 87.022 27.312 87.472 26.964 87.88C26.616 88.276 26.16 88.6 25.596 88.852C25.044 89.092 24.36 89.212 23.544 89.212H21.618V94H19.872V80.986H23.328ZM23.508 87.538C24.024 87.538 24.45 87.46 24.786 87.304C25.134 87.148 25.404 86.95 25.596 86.71C25.788 86.458 25.926 86.188 26.01 85.9C26.094 85.612 26.136 85.342 26.136 85.09C26.136 84.826 26.088 84.556 25.992 84.28C25.908 83.992 25.764 83.728 25.56 83.488C25.368 83.248 25.11 83.05 24.786 82.894C24.474 82.738 24.09 82.66 23.634 82.66H21.618V87.538H23.508ZM25.65 88.528L29.052 94H27.036L23.58 88.582L25.65 88.528ZM34.5507 94.18C33.6987 94.18 32.9667 94.012 32.3547 93.676C31.7427 93.328 31.2687 92.86 30.9327 92.272C30.6087 91.672 30.4467 90.988 30.4467 90.22C30.4467 89.488 30.6327 88.822 31.0047 88.222C31.3767 87.622 31.8747 87.142 32.4987 86.782C33.1227 86.422 33.8187 86.242 34.5867 86.242C35.5707 86.242 36.3867 86.53 37.0347 87.106C37.6827 87.682 38.1207 88.474 38.3487 89.482L32.2107 91.642L31.8147 90.652L36.8547 88.816L36.4947 89.05C36.3507 88.654 36.1107 88.312 35.7747 88.024C35.4387 87.724 35.0007 87.574 34.4607 87.574C34.0047 87.574 33.5967 87.688 33.2367 87.916C32.8767 88.132 32.5947 88.432 32.3907 88.816C32.1867 89.2 32.0847 89.638 32.0847 90.13C32.0847 90.646 32.1927 91.102 32.4087 91.498C32.6247 91.882 32.9187 92.188 33.2907 92.416C33.6747 92.632 34.1067 92.74 34.5867 92.74C34.9107 92.74 35.2227 92.68 35.5227 92.56C35.8347 92.44 36.1227 92.284 36.3867 92.092L37.1607 93.334C36.7887 93.586 36.3687 93.79 35.9007 93.946C35.4447 94.102 34.9947 94.18 34.5507 94.18ZM43.4703 94.18C42.7863 94.18 42.1623 94.018 41.5983 93.694C41.0463 93.358 40.6083 92.89 40.2843 92.29C39.9603 91.678 39.7983 90.976 39.7983 90.184C39.7983 89.356 39.9663 88.648 40.3023 88.06C40.6503 87.472 41.1183 87.022 41.7063 86.71C42.2943 86.398 42.9543 86.242 43.6863 86.242C44.2743 86.242 44.8323 86.368 45.3603 86.62C45.9003 86.872 46.3203 87.22 46.6203 87.664L46.5483 88.258V80.068H48.2043V94H46.5303V92.146L46.7103 92.614C46.3623 93.07 45.9123 93.448 45.3603 93.748C44.8083 94.036 44.1783 94.18 43.4703 94.18ZM43.9923 92.758C44.4363 92.758 44.8323 92.68 45.1803 92.524C45.5283 92.356 45.8163 92.128 46.0443 91.84C46.2723 91.552 46.4343 91.21 46.5303 90.814V89.41C46.4343 89.05 46.2603 88.738 46.0083 88.474C45.7683 88.198 45.4743 87.982 45.1263 87.826C44.7903 87.658 44.4123 87.574 43.9923 87.574C43.5363 87.574 43.1163 87.688 42.7323 87.916C42.3603 88.132 42.0603 88.432 41.8323 88.816C41.6043 89.2 41.4903 89.644 41.4903 90.148C41.4903 90.64 41.6043 91.084 41.8323 91.48C42.0603 91.864 42.3663 92.176 42.7503 92.416C43.1343 92.644 43.5483 92.758 43.9923 92.758ZM51.1162 86.548H52.7902V94H51.1162V86.548ZM50.9902 83.848C50.9902 83.584 51.0922 83.362 51.2962 83.182C51.5122 83.002 51.7462 82.912 51.9982 82.912C52.2502 82.912 52.4722 83.002 52.6642 83.182C52.8682 83.362 52.9702 83.584 52.9702 83.848C52.9702 84.124 52.8682 84.352 52.6642 84.532C52.4722 84.7 52.2502 84.784 51.9982 84.784C51.7462 84.784 51.5122 84.694 51.2962 84.514C51.0922 84.334 50.9902 84.112 50.9902 83.848ZM57.7745 94.144C57.2465 94.144 56.7305 94.054 56.2265 93.874C55.7345 93.682 55.3265 93.4 55.0025 93.028L55.7045 92.056C56.0165 92.356 56.3345 92.584 56.6585 92.74C56.9945 92.884 57.3245 92.956 57.6485 92.956C57.8885 92.956 58.1105 92.926 58.3145 92.866C58.5185 92.806 58.6805 92.71 58.8005 92.578C58.9325 92.434 58.9985 92.242 58.9985 92.002C58.9985 91.738 58.9085 91.528 58.7285 91.372C58.5605 91.216 58.3385 91.09 58.0625 90.994C57.7985 90.898 57.5165 90.808 57.2165 90.724C56.6045 90.52 56.1365 90.238 55.8125 89.878C55.4885 89.518 55.3265 89.08 55.3265 88.564C55.3265 88.168 55.4225 87.802 55.6145 87.466C55.8185 87.118 56.1125 86.836 56.4965 86.62C56.8925 86.404 57.3785 86.296 57.9545 86.296C58.4705 86.296 58.9325 86.362 59.3405 86.494C59.7485 86.614 60.1325 86.818 60.4925 87.106L59.8265 88.15C59.6105 87.922 59.3525 87.754 59.0525 87.646C58.7525 87.538 58.4825 87.478 58.2425 87.466C58.0385 87.454 57.8405 87.484 57.6485 87.556C57.4685 87.628 57.3185 87.73 57.1985 87.862C57.0785 87.994 57.0185 88.15 57.0185 88.33C57.0185 88.582 57.1025 88.786 57.2705 88.942C57.4385 89.098 57.6545 89.224 57.9185 89.32C58.1945 89.404 58.4645 89.494 58.7285 89.59C59.1005 89.698 59.4305 89.842 59.7185 90.022C60.0065 90.202 60.2345 90.424 60.4025 90.688C60.5825 90.952 60.6725 91.282 60.6725 91.678C60.6725 92.122 60.5645 92.536 60.3485 92.92C60.1445 93.292 59.8265 93.592 59.3945 93.82C58.9745 94.036 58.4345 94.144 57.7745 94.144Z" fill="#6DBFB8"/>
</svg>
