<svg width="80" height="100" viewBox="0 0 80 100" fill="none" xmlns="http://www.w3.org/2000/svg">
<g clip-path="url(#clip0_2015_554)">
<mask id="mask0_2015_554" style="mask-type:luminance" maskUnits="userSpaceOnUse" x="10" y="10" width="60" height="60">
<path d="M70 10H10V70H70V10Z" fill="white"/>
</mask>
<g mask="url(#mask0_2015_554)">
<path fill-rule="evenodd" clip-rule="evenodd" d="M16.5214 25.6517H39.9994V23.0429H25.6517V16.5214C25.6517 16.5214 25.6517 10 39.9994 10C54.3473 10 54.3473 16.5214 54.3473 16.5214C54.3473 16.5214 54.4552 28.1356 54.4013 32.1106C54.3473 36.0868 51.7385 38.6946 47.8174 38.6946H32.1742C26.9566 38.6946 23.0439 42.6072 23.0439 47.8248V54.3462H16.5225C16.5225 54.3462 10 54.3473 10 39.9994C10 25.6517 16.5214 25.6517 16.5214 25.6517ZM34.7819 16.5225C34.7819 17.9629 33.6135 19.1313 32.1731 19.1313C30.7327 19.1313 29.5643 17.9629 29.5643 16.5225C29.5643 15.0821 30.7327 13.9137 32.1731 13.9137C33.6135 13.9137 34.7819 15.0821 34.7819 16.5225Z" fill="#6DBFB8"/>
<path fill-rule="evenodd" clip-rule="evenodd" d="M63.4797 54.3473H40.0016V56.9561H54.3494V63.4775C54.3494 63.4775 54.3494 69.999 40.0016 69.999C25.6538 69.999 25.6538 63.4775 25.6538 63.4775V47.8258C25.6538 43.9121 28.2626 41.3044 32.1752 41.3044H47.828C53.0456 41.3044 56.9582 37.3917 56.9582 32.1741V25.6527H63.4797C63.4797 25.6527 70.0011 25.6527 70.0011 40.0006C70.0011 54.3483 63.4797 54.3483 63.4797 54.3483V54.3473ZM50.4346 63.4785C50.4346 64.9189 49.2662 66.0873 47.8258 66.0873C46.3855 66.0873 45.2171 64.9189 45.2171 63.4785C45.2171 62.0381 46.3855 60.8698 47.8258 60.8698C49.2662 60.8698 50.4346 62.0381 50.4346 63.4785Z" fill="#6DBFB8"/>
</g>
</g>
<path d="M17.346 80.986C18.294 80.986 19.104 81.148 19.776 81.472C20.448 81.784 20.964 82.24 21.324 82.84C21.696 83.44 21.882 84.166 21.882 85.018C21.882 85.534 21.804 86.044 21.648 86.548C21.492 87.04 21.24 87.49 20.892 87.898C20.556 88.294 20.112 88.612 19.56 88.852C19.008 89.092 18.336 89.212 17.544 89.212H15.618V94H13.872V80.986H17.346ZM17.526 87.538C18.042 87.538 18.468 87.454 18.804 87.286C19.14 87.118 19.404 86.908 19.596 86.656C19.788 86.392 19.926 86.116 20.01 85.828C20.094 85.54 20.136 85.282 20.136 85.054C20.136 84.79 20.094 84.52 20.01 84.244C19.926 83.956 19.782 83.698 19.578 83.47C19.386 83.23 19.128 83.038 18.804 82.894C18.492 82.738 18.102 82.66 17.634 82.66H15.618V87.538H17.526ZM24.7931 97.582L29.7071 86.548H31.2551L26.4491 97.582H24.7931ZM26.6291 94.054L23.0471 86.548H24.9371L27.9431 93.208L26.6291 94.054ZM33.7776 83.272H35.4516V86.584H37.5036V87.898H35.4516V94H33.7776V87.898H32.4096V86.584H33.7776V83.272ZM39.5264 94V80.068H41.1644V88.276L41.1284 87.97C41.3804 87.478 41.7644 87.07 42.2804 86.746C42.8084 86.422 43.4264 86.26 44.1344 86.26C44.8424 86.26 45.4184 86.47 45.8624 86.89C46.3184 87.298 46.5524 87.832 46.5644 88.492V94H44.8724V89.086C44.8604 88.678 44.7404 88.348 44.5124 88.096C44.2964 87.832 43.9544 87.7 43.4864 87.7C43.0544 87.7 42.6644 87.826 42.3164 88.078C41.9684 88.318 41.6924 88.648 41.4884 89.068C41.2964 89.488 41.2004 89.968 41.2004 90.508V94H39.5264ZM48.8276 90.202C48.8276 89.458 49.0016 88.786 49.3496 88.186C49.7096 87.586 50.2016 87.112 50.8256 86.764C51.4496 86.416 52.1576 86.242 52.9496 86.242C53.7656 86.242 54.4796 86.416 55.0916 86.764C55.7036 87.112 56.1776 87.586 56.5136 88.186C56.8496 88.786 57.0176 89.458 57.0176 90.202C57.0176 90.946 56.8496 91.624 56.5136 92.236C56.1776 92.836 55.6976 93.31 55.0736 93.658C54.4616 94.006 53.7476 94.18 52.9316 94.18C52.1396 94.18 51.4316 94.018 50.8076 93.694C50.1956 93.358 49.7096 92.896 49.3496 92.308C49.0016 91.708 48.8276 91.006 48.8276 90.202ZM50.5016 90.22C50.5016 90.7 50.6096 91.138 50.8256 91.534C51.0416 91.918 51.3296 92.224 51.6896 92.452C52.0616 92.68 52.4696 92.794 52.9136 92.794C53.3816 92.794 53.7956 92.68 54.1556 92.452C54.5276 92.224 54.8156 91.918 55.0196 91.534C55.2236 91.138 55.3256 90.7 55.3256 90.22C55.3256 89.74 55.2236 89.308 55.0196 88.924C54.8156 88.528 54.5276 88.216 54.1556 87.988C53.7956 87.748 53.3816 87.628 52.9136 87.628C52.4576 87.628 52.0436 87.748 51.6716 87.988C51.3116 88.228 51.0236 88.546 50.8076 88.942C50.6036 89.326 50.5016 89.752 50.5016 90.22ZM60.7782 86.548L60.9222 88.366L60.8502 88.078C61.0902 87.526 61.4802 87.088 62.0202 86.764C62.5602 86.428 63.1842 86.26 63.8922 86.26C64.6002 86.26 65.1762 86.47 65.6202 86.89C66.0762 87.298 66.3102 87.832 66.3222 88.492V94H64.6302V89.086C64.6182 88.678 64.4982 88.348 64.2702 88.096C64.0542 87.832 63.7122 87.7 63.2442 87.7C62.8122 87.7 62.4222 87.82 62.0742 88.06C61.7262 88.3 61.4502 88.63 61.2462 89.05C61.0542 89.47 60.9582 89.956 60.9582 90.508V94H59.2842V86.548H60.7782Z" fill="#6DBFB8"/>
<defs>
<clipPath id="clip0_2015_554">
<rect width="60" height="60" fill="white" transform="translate(10 10)"/>
</clipPath>
</defs>
</svg>
