<svg width="77" height="124" viewBox="0 0 77 124" fill="none" xmlns="http://www.w3.org/2000/svg">
<g clip-path="url(#clip0_1_2612)">
<path d="M16.0039 19.8008V60.3008C11.1039 54.9008 8.10388 47.8008 8.10388 40.0008C8.10388 32.2008 11.1039 25.1008 16.0039 19.8008Z" fill="#6DBFB8"/>
<path d="M19.2054 24.1992L36.5054 58.8992H19.2054V24.1992Z" fill="#6DBFB8"/>
<path d="M38.1039 55.0016L21.1039 21.1016H55.1039L38.1039 55.0016Z" fill="#6DBFB8"/>
<path d="M38.1008 10C45.9008 10 53.0008 13 58.3008 17.9H17.9008C23.2008 13 30.3008 10 38.1008 10Z" fill="#6DBFB8"/>
<path d="M57.0054 58.8992H39.7054L57.0054 24.1992V58.8992Z" fill="#6DBFB8"/>
<path d="M58.3008 62.1016C53.0008 67.0016 45.9008 70.0016 38.1008 70.0016C30.3008 70.0016 23.2008 67.0016 17.9008 62.1016H58.3008Z" fill="#6DBFB8"/>
<path d="M60.2054 60.2008V19.8008C65.1054 25.1008 68.1054 32.2008 68.1054 40.0008C68.1054 47.8008 65.1054 54.9008 60.2054 60.2008Z" fill="#6DBFB8"/>
<path d="M19.2054 24.2031L36.5054 58.9031H19.2054V24.2031Z" fill="#6DBFB8"/>
<path d="M38.1039 55.0016L21.1039 21.1016H55.1039L38.1039 55.0016Z" fill="#6DBFB8"/>
<path d="M39.7054 58.9031L57.0054 24.2031V58.9031H39.7054Z" fill="#6DBFB8"/>
<path d="M21.1039 21.1016H55.1039L38.1039 55.0016L21.1039 21.1016Z" fill="#6DBFB8"/>
</g>
<path d="M2.37627 96V82.572H2.39427L9.21627 92.256L8.47827 92.112L15.2823 82.572H15.3183V96H13.5903V86.532L13.6983 87.414L8.78427 94.362H8.74827L3.76227 87.414L4.06827 86.604V96H2.37627ZM21.7399 96.18C21.0439 96.18 20.4079 96.03 19.8319 95.73C19.2679 95.43 18.8179 94.992 18.4819 94.416C18.1579 93.828 17.9959 93.114 17.9959 92.274C17.9959 91.446 18.1699 90.732 18.5179 90.132C18.8659 89.52 19.3279 89.052 19.9039 88.728C20.4919 88.404 21.1339 88.242 21.8299 88.242C22.5259 88.242 23.1139 88.404 23.5939 88.728C24.0739 89.04 24.4399 89.412 24.6919 89.844L24.5839 90.132L24.7459 88.548H26.2939V96H24.6199V94.056L24.7999 94.488C24.7519 94.608 24.6439 94.764 24.4759 94.956C24.3199 95.136 24.1039 95.322 23.8279 95.514C23.5639 95.706 23.2579 95.868 22.9099 96C22.5619 96.12 22.1719 96.18 21.7399 96.18ZM22.1899 94.794C22.6099 94.794 22.9879 94.716 23.3239 94.56C23.6599 94.404 23.9359 94.188 24.1519 93.912C24.3799 93.624 24.5359 93.282 24.6199 92.886V91.428C24.5239 91.068 24.3559 90.756 24.1159 90.492C23.8759 90.216 23.5879 90.006 23.2519 89.862C22.9159 89.706 22.5439 89.628 22.1359 89.628C21.6919 89.628 21.2839 89.736 20.9119 89.952C20.5399 90.168 20.2399 90.468 20.0119 90.852C19.7959 91.236 19.6879 91.686 19.6879 92.202C19.6879 92.682 19.8019 93.12 20.0299 93.516C20.2579 93.912 20.5639 94.224 20.9479 94.452C21.3319 94.68 21.7459 94.794 22.1899 94.794ZM29.9108 85.272H31.5848V88.584H33.6368V89.898H31.5848V96H29.9108V89.898H28.5428V88.584H29.9108V85.272ZM39.1155 96.18C38.2635 96.18 37.5315 96.012 36.9195 95.676C36.3075 95.328 35.8335 94.86 35.4975 94.272C35.1735 93.672 35.0115 92.988 35.0115 92.22C35.0115 91.488 35.1975 90.822 35.5695 90.222C35.9415 89.622 36.4395 89.142 37.0635 88.782C37.6875 88.422 38.3835 88.242 39.1515 88.242C40.1355 88.242 40.9515 88.53 41.5995 89.106C42.2475 89.682 42.6855 90.474 42.9135 91.482L36.7755 93.642L36.3795 92.652L41.4195 90.816L41.0595 91.05C40.9155 90.654 40.6755 90.312 40.3395 90.024C40.0035 89.724 39.5655 89.574 39.0255 89.574C38.5695 89.574 38.1615 89.688 37.8015 89.916C37.4415 90.132 37.1595 90.432 36.9555 90.816C36.7515 91.2 36.6495 91.638 36.6495 92.13C36.6495 92.646 36.7575 93.102 36.9735 93.498C37.1895 93.882 37.4835 94.188 37.8555 94.416C38.2395 94.632 38.6715 94.74 39.1515 94.74C39.4755 94.74 39.7875 94.68 40.0875 94.56C40.3995 94.44 40.6875 94.284 40.9515 94.092L41.7255 95.334C41.3535 95.586 40.9335 95.79 40.4655 95.946C40.0095 96.102 39.5595 96.18 39.1155 96.18ZM46.5051 88.548L46.6671 90.708L46.5771 90.42C46.7691 89.964 47.0451 89.58 47.4051 89.268C47.7771 88.944 48.1611 88.698 48.5571 88.53C48.9651 88.35 49.3191 88.26 49.6191 88.26L49.5291 89.916C48.9651 89.88 48.4671 89.988 48.0351 90.24C47.6151 90.492 47.2791 90.828 47.0271 91.248C46.7871 91.668 46.6671 92.118 46.6671 92.598V96H45.0111V88.548H46.5051ZM51.7787 88.548H53.4527V96H51.7787V88.548ZM51.6527 85.848C51.6527 85.584 51.7547 85.362 51.9587 85.182C52.1747 85.002 52.4087 84.912 52.6607 84.912C52.9127 84.912 53.1347 85.002 53.3267 85.182C53.5307 85.362 53.6327 85.584 53.6327 85.848C53.6327 86.124 53.5307 86.352 53.3267 86.532C53.1347 86.7 52.9127 86.784 52.6607 86.784C52.4087 86.784 52.1747 86.694 51.9587 86.514C51.7547 86.334 51.6527 86.112 51.6527 85.848ZM59.445 96.18C58.749 96.18 58.113 96.03 57.537 95.73C56.973 95.43 56.523 94.992 56.187 94.416C55.863 93.828 55.701 93.114 55.701 92.274C55.701 91.446 55.875 90.732 56.223 90.132C56.571 89.52 57.033 89.052 57.609 88.728C58.197 88.404 58.839 88.242 59.535 88.242C60.231 88.242 60.819 88.404 61.299 88.728C61.779 89.04 62.145 89.412 62.397 89.844L62.289 90.132L62.451 88.548H63.999V96H62.325V94.056L62.505 94.488C62.457 94.608 62.349 94.764 62.181 94.956C62.025 95.136 61.809 95.322 61.533 95.514C61.269 95.706 60.963 95.868 60.615 96C60.267 96.12 59.877 96.18 59.445 96.18ZM59.895 94.794C60.315 94.794 60.693 94.716 61.029 94.56C61.365 94.404 61.641 94.188 61.857 93.912C62.085 93.624 62.241 93.282 62.325 92.886V91.428C62.229 91.068 62.061 90.756 61.821 90.492C61.581 90.216 61.293 90.006 60.957 89.862C60.621 89.706 60.249 89.628 59.841 89.628C59.397 89.628 58.989 89.736 58.617 89.952C58.245 90.168 57.945 90.468 57.717 90.852C57.501 91.236 57.393 91.686 57.393 92.202C57.393 92.682 57.507 93.12 57.735 93.516C57.963 93.912 58.269 94.224 58.653 94.452C59.037 94.68 59.451 94.794 59.895 94.794ZM66.8959 82.068H68.5699V96H66.8959V82.068ZM12.22 118V104.986H15.766C17.05 104.986 18.142 105.184 19.042 105.58C19.954 105.976 20.686 106.498 21.238 107.146C21.79 107.794 22.192 108.514 22.444 109.306C22.708 110.086 22.84 110.866 22.84 111.646C22.84 112.63 22.666 113.512 22.318 114.292C21.982 115.072 21.514 115.738 20.914 116.29C20.314 116.842 19.624 117.268 18.844 117.568C18.076 117.856 17.26 118 16.396 118H12.22ZM13.966 116.326H16.054C16.774 116.326 17.434 116.218 18.034 116.002C18.646 115.786 19.174 115.474 19.618 115.066C20.074 114.658 20.428 114.16 20.68 113.572C20.932 112.972 21.058 112.294 21.058 111.538C21.058 110.734 20.926 110.032 20.662 109.432C20.398 108.82 20.038 108.31 19.582 107.902C19.126 107.494 18.61 107.188 18.034 106.984C17.458 106.768 16.852 106.66 16.216 106.66H13.966V116.326ZM28.8148 118.18C27.9628 118.18 27.2308 118.012 26.6188 117.676C26.0068 117.328 25.5328 116.86 25.1968 116.272C24.8728 115.672 24.7108 114.988 24.7108 114.22C24.7108 113.488 24.8968 112.822 25.2688 112.222C25.6408 111.622 26.1388 111.142 26.7628 110.782C27.3868 110.422 28.0828 110.242 28.8508 110.242C29.8348 110.242 30.6508 110.53 31.2988 111.106C31.9468 111.682 32.3848 112.474 32.6128 113.482L26.4748 115.642L26.0788 114.652L31.1188 112.816L30.7588 113.05C30.6148 112.654 30.3748 112.312 30.0388 112.024C29.7028 111.724 29.2648 111.574 28.7248 111.574C28.2688 111.574 27.8608 111.688 27.5008 111.916C27.1408 112.132 26.8588 112.432 26.6548 112.816C26.4508 113.2 26.3488 113.638 26.3488 114.13C26.3488 114.646 26.4568 115.102 26.6728 115.498C26.8888 115.882 27.1828 116.188 27.5548 116.416C27.9388 116.632 28.3708 116.74 28.8508 116.74C29.1748 116.74 29.4868 116.68 29.7868 116.56C30.0988 116.44 30.3868 116.284 30.6508 116.092L31.4248 117.334C31.0528 117.586 30.6328 117.79 30.1648 117.946C29.7088 118.102 29.2588 118.18 28.8148 118.18ZM36.7983 118.144C36.2703 118.144 35.7543 118.054 35.2503 117.874C34.7583 117.682 34.3503 117.4 34.0263 117.028L34.7283 116.056C35.0403 116.356 35.3583 116.584 35.6823 116.74C36.0183 116.884 36.3483 116.956 36.6723 116.956C36.9123 116.956 37.1343 116.926 37.3383 116.866C37.5423 116.806 37.7043 116.71 37.8243 116.578C37.9563 116.434 38.0223 116.242 38.0223 116.002C38.0223 115.738 37.9323 115.528 37.7523 115.372C37.5843 115.216 37.3623 115.09 37.0863 114.994C36.8223 114.898 36.5403 114.808 36.2403 114.724C35.6283 114.52 35.1603 114.238 34.8363 113.878C34.5123 113.518 34.3503 113.08 34.3503 112.564C34.3503 112.168 34.4463 111.802 34.6383 111.466C34.8423 111.118 35.1363 110.836 35.5203 110.62C35.9163 110.404 36.4023 110.296 36.9783 110.296C37.4943 110.296 37.9563 110.362 38.3643 110.494C38.7723 110.614 39.1563 110.818 39.5163 111.106L38.8503 112.15C38.6343 111.922 38.3763 111.754 38.0763 111.646C37.7763 111.538 37.5063 111.478 37.2663 111.466C37.0623 111.454 36.8643 111.484 36.6723 111.556C36.4923 111.628 36.3423 111.73 36.2223 111.862C36.1023 111.994 36.0423 112.15 36.0423 112.33C36.0423 112.582 36.1263 112.786 36.2943 112.942C36.4623 113.098 36.6783 113.224 36.9423 113.32C37.2183 113.404 37.4883 113.494 37.7523 113.59C38.1243 113.698 38.4543 113.842 38.7423 114.022C39.0303 114.202 39.2583 114.424 39.4263 114.688C39.6063 114.952 39.6963 115.282 39.6963 115.678C39.6963 116.122 39.5883 116.536 39.3723 116.92C39.1683 117.292 38.8503 117.592 38.4183 117.82C37.9983 118.036 37.4583 118.144 36.7983 118.144ZM42.0404 110.548H43.7144V118H42.0404V110.548ZM41.9144 107.848C41.9144 107.584 42.0164 107.362 42.2204 107.182C42.4364 107.002 42.6704 106.912 42.9224 106.912C43.1744 106.912 43.3964 107.002 43.5884 107.182C43.7924 107.362 43.8944 107.584 43.8944 107.848C43.8944 108.124 43.7924 108.352 43.5884 108.532C43.3964 108.7 43.1744 108.784 42.9224 108.784C42.6704 108.784 42.4364 108.694 42.2204 108.514C42.0164 108.334 41.9144 108.112 41.9144 107.848ZM50.1927 121.69C49.6407 121.69 49.1547 121.624 48.7347 121.492C48.3147 121.372 47.9307 121.198 47.5827 120.97C47.2467 120.742 46.9227 120.484 46.6107 120.196L47.5827 119.062C47.9787 119.434 48.3807 119.722 48.7887 119.926C49.1967 120.13 49.6527 120.232 50.1567 120.232C50.7207 120.232 51.1947 120.136 51.5787 119.944C51.9747 119.764 52.2747 119.506 52.4787 119.17C52.6827 118.846 52.7847 118.468 52.7847 118.036L52.8027 116.02L52.9467 116.344C52.7307 116.86 52.3407 117.298 51.7767 117.658C51.2127 118.006 50.5287 118.18 49.7247 118.18C49.0407 118.18 48.4107 118.006 47.8347 117.658C47.2707 117.31 46.8147 116.842 46.4667 116.254C46.1307 115.654 45.9627 114.982 45.9627 114.238C45.9627 113.458 46.1427 112.774 46.5027 112.186C46.8627 111.586 47.3367 111.112 47.9247 110.764C48.5127 110.416 49.1547 110.242 49.8507 110.242C50.5107 110.242 51.1107 110.38 51.6507 110.656C52.2027 110.92 52.6047 111.262 52.8567 111.682L52.7667 111.988L52.9467 110.548H54.4767V118.054C54.4767 118.726 54.3027 119.338 53.9547 119.89C53.6067 120.442 53.1147 120.88 52.4787 121.204C51.8427 121.528 51.0807 121.69 50.1927 121.69ZM47.6367 114.202C47.6367 114.682 47.7507 115.12 47.9787 115.516C48.2067 115.912 48.5127 116.224 48.8967 116.452C49.2927 116.68 49.7307 116.794 50.2107 116.794C50.6547 116.794 51.0507 116.716 51.3987 116.56C51.7587 116.392 52.0587 116.17 52.2987 115.894C52.5387 115.606 52.7067 115.276 52.8027 114.904V113.428C52.6947 113.068 52.5147 112.756 52.2627 112.492C52.0107 112.216 51.7107 112.006 51.3627 111.862C51.0147 111.706 50.6307 111.628 50.2107 111.628C49.7307 111.628 49.2927 111.736 48.8967 111.952C48.5127 112.168 48.2067 112.474 47.9787 112.87C47.7507 113.254 47.6367 113.698 47.6367 114.202ZM58.8625 110.548L59.0065 112.366L58.9345 112.078C59.1745 111.526 59.5645 111.088 60.1045 110.764C60.6445 110.428 61.2685 110.26 61.9765 110.26C62.6845 110.26 63.2605 110.47 63.7045 110.89C64.1605 111.298 64.3945 111.832 64.4065 112.492V118H62.7145V113.086C62.7025 112.678 62.5825 112.348 62.3545 112.096C62.1385 111.832 61.7965 111.7 61.3285 111.7C60.8965 111.7 60.5065 111.82 60.1585 112.06C59.8105 112.3 59.5345 112.63 59.3305 113.05C59.1385 113.47 59.0425 113.956 59.0425 114.508V118H57.3685V110.548H58.8625Z" fill="#6DBFB8"/>
<defs>
<clipPath id="clip0_1_2612">
<rect width="60" height="60" fill="white" transform="translate(8.10388 10)"/>
</clipPath>
</defs>
</svg>
