<svg width="58" height="100" viewBox="0 0 58 100" fill="none" xmlns="http://www.w3.org/2000/svg">
<path d="M6.872 81.986H8.618V93.326H15.224V95H6.872V81.986ZM17.6553 87.548H19.3293V95H17.6553V87.548ZM17.5293 84.848C17.5293 84.584 17.6313 84.362 17.8353 84.182C18.0513 84.002 18.2853 83.912 18.5373 83.912C18.7893 83.912 19.0113 84.002 19.2033 84.182C19.4073 84.362 19.5093 84.584 19.5093 84.848C19.5093 85.124 19.4073 85.352 19.2033 85.532C19.0113 85.7 18.7893 85.784 18.5373 85.784C18.2853 85.784 18.0513 85.694 17.8353 85.514C17.6313 85.334 17.5293 85.112 17.5293 84.848ZM23.7196 87.548L23.8636 89.366L23.7916 89.078C24.0316 88.526 24.4216 88.088 24.9616 87.764C25.5016 87.428 26.1256 87.26 26.8336 87.26C27.5416 87.26 28.1176 87.47 28.5616 87.89C29.0176 88.298 29.2516 88.832 29.2636 89.492V95H27.5716V90.086C27.5596 89.678 27.4396 89.348 27.2116 89.096C26.9956 88.832 26.6536 88.7 26.1856 88.7C25.7536 88.7 25.3636 88.82 25.0156 89.06C24.6676 89.3 24.3916 89.63 24.1876 90.05C23.9956 90.47 23.8996 90.956 23.8996 91.508V95H22.2256V87.548H23.7196ZM34.5328 95.288C33.8608 95.288 33.3028 95.084 32.8588 94.676C32.4268 94.256 32.1988 93.716 32.1748 93.056V87.548H33.8488V92.462C33.8728 92.87 33.9868 93.2 34.1908 93.452C34.4068 93.704 34.7428 93.836 35.1988 93.848C35.6188 93.848 35.9908 93.728 36.3148 93.488C36.6508 93.236 36.9208 92.9 37.1248 92.48C37.3288 92.048 37.4308 91.562 37.4308 91.022V87.548H39.1048V95H37.5748L37.4308 93.164L37.5208 93.488C37.3768 93.836 37.1548 94.148 36.8548 94.424C36.5668 94.688 36.2248 94.898 35.8288 95.054C35.4328 95.21 35.0008 95.288 34.5328 95.288ZM44.809 90.32L46.591 87.548H48.283L45.421 91.544L44.809 90.32ZM48.571 95H46.555L40.885 87.548H42.955L48.571 95ZM44.629 92.228L42.667 95H40.975L43.819 91.112L44.629 92.228Z" fill="#6DBFB8"/>
<path d="M25.0207 12.066C21.6457 13.7831 20.6983 16.0923 20.5799 23.3752C20.4615 30.2436 20.047 31.4278 16.3167 36.3423C13.3562 40.191 10.8101 45.816 10.6917 48.8357C10.5733 51.737 9.27066 53.7502 6.6654 54.816C4.77066 55.5857 4.53382 56.1778 4.06014 61.4476C3.76408 65.3555 4.47461 66.362 8.14566 66.9542C9.4483 67.191 12.0536 67.8423 13.9483 68.4936C18.3891 69.9739 19.5141 69.9147 22.2378 68.0199C24.3101 66.5989 25.0799 66.4213 29.4023 66.4213C34.0207 66.4805 34.3167 66.5397 36.093 68.3752C38.8759 71.0989 41.5404 70.8028 45.4483 67.2502C46.4549 66.362 48.4681 64.941 49.9483 64.112C51.4878 63.2239 52.8496 62.0989 53.0865 61.6252C53.2641 61.0923 52.7904 59.4936 51.9615 58.1318C51.1325 56.7107 50.4812 55.1712 50.4812 54.6976C50.4812 54.1647 50.0667 53.3949 49.5338 52.9805C48.8825 52.4476 48.7049 51.6186 48.9417 50.1976C49.6523 45.5791 48.172 42.1449 41.0075 32.1975C39.1128 29.5331 38.9944 28.941 38.6391 23.1975C38.1654 16.0923 37.0996 13.6646 33.9023 12.066C32.7773 11.4738 30.7641 11.0002 29.4615 11.0002C28.1588 11.0002 26.1457 11.4738 25.0207 12.066ZM32.8365 20.2962C34.1983 21.4804 34.3167 25.2107 33.0141 25.2107C32.422 25.2107 32.1259 24.6186 32.1259 23.5528C32.1259 21.4804 31.593 20.8883 30.5273 21.7173C29.1062 22.9607 29.6391 24.6186 31.8299 25.566C32.9549 26.0396 33.9023 26.8094 33.9023 27.2831C33.9023 28.4081 28.8102 31.7239 27.0338 31.7239C26.3233 31.7239 25.4351 31.3094 25.0207 30.8357C24.4286 30.1252 24.4286 29.9475 25.0207 29.9475C25.4351 29.9475 25.1391 29.4147 24.3694 28.8225C23.5996 28.1712 22.8299 27.816 22.7115 27.9344C22.5338 28.0528 22.9483 28.5857 23.5996 29.0594C24.4878 29.7107 24.547 29.9475 23.8365 29.9475C22.2378 30.0068 25.6128 32.316 27.3299 32.316C28.1588 32.316 30.0536 31.6647 31.4746 30.8357C32.8365 30.0068 34.0799 29.3554 34.1983 29.3554C34.3167 29.3554 34.5536 30.066 34.7904 30.9541C34.968 31.9015 36.4483 35.5133 37.9878 39.1252C39.5865 42.6778 41.0075 46.112 41.1852 46.6449C41.422 47.237 41.8957 47.7107 42.2509 47.7107C42.7246 47.7107 42.8431 46.6449 42.6654 44.2765C42.3694 41.1383 42.4286 41.0199 43.1391 42.6778C43.5536 43.6252 43.9088 45.2239 43.9681 46.112C43.9681 47.237 44.5602 48.3028 45.7444 49.3094C46.751 50.0791 47.5207 51.0857 47.5207 51.441C47.5207 51.8555 47.2246 51.6778 46.8694 51.0857C46.1588 49.9015 43.2575 48.3028 41.7773 48.3028C39.8233 48.3028 37.3957 52.1515 36.8036 56.237C36.093 61.3291 35.9154 61.6844 33.2509 62.7502C29.1062 64.4081 24.7246 63.9344 21.9417 61.4476C20.9944 60.6186 20.9351 60.5002 21.8825 59.8489C23.422 58.7239 22.3562 56.3555 19.218 53.8686C17.6786 52.6252 15.9615 51.1449 15.4286 50.4936C14.0075 48.9541 14.0667 45.1055 15.547 41.9081C17.0865 38.4739 17.5009 38.7699 16.0207 42.3226C15.1325 44.3949 14.8957 45.7568 15.1917 47.3555C15.7246 50.0199 16.4351 49.7239 16.968 46.6449C17.1457 45.4015 18.1522 42.5002 19.1588 40.2502C21.468 35.2173 23.3036 29.4739 22.6523 29.0594C22.4154 28.941 22.2378 26.8686 22.297 24.5002C22.3562 20.5331 22.4746 20.1778 23.6588 20.0002C25.0799 19.7633 26.5009 21.7765 25.968 23.1975C25.7312 23.7304 26.0865 24.0265 26.9746 24.0265C27.9812 24.0265 28.2773 23.6712 28.3957 22.4278C28.4549 20.8883 29.8759 19.2896 31.1786 19.2896C31.4746 19.2896 32.2444 19.7041 32.8365 20.2962ZM40.4746 38.0594C41.2444 39.0068 41.1852 39.066 40.297 38.2962C39.7049 37.8818 39.2312 37.4081 39.2312 37.2897C39.2312 36.816 39.7049 37.112 40.4746 38.0594ZM14.4812 51.9739C14.9549 52.3884 16.1391 54.0462 17.0272 55.7041C17.9746 57.3028 19.5733 59.7897 20.6983 61.2107C22.9483 64.2305 23.1851 66.2436 21.3496 67.487C19.5733 68.7305 17.3825 68.6713 13.7707 67.2502C12.1128 66.5989 9.98119 66.066 8.97461 66.066C5.48119 66.066 4.94829 65.3555 5.12593 60.6186C5.30356 56.4147 6.1325 54.816 8.20487 54.816C8.61935 54.816 9.50751 53.987 10.218 53.0397C11.5799 51.1449 13.0009 50.7897 14.4812 51.9739ZM41.2444 54.1647C42.0141 54.816 42.6062 54.6976 44.8562 53.6318C47.4615 52.3884 47.6391 52.3291 48.7049 53.3357C49.3562 53.9278 49.8891 54.816 49.8891 55.3489C49.8891 55.8818 50.422 57.066 51.0733 58.0726C52.8496 60.737 52.5536 61.7436 49.7707 63.1647C48.3496 63.8752 46.2181 65.3555 45.0338 66.4213C42.547 68.612 40.5338 69.3226 38.3431 68.7897C35.9154 68.1976 35.4417 66.4805 36.5075 62.0397C36.9812 59.8489 37.5141 56.8884 37.7509 55.4081C38.1654 52.2107 39.2312 50.612 39.8825 52.2699C40.1194 52.862 40.7115 53.7502 41.2444 54.1647Z" fill="#6DBFB8"/>
<path d="M23.2444 23.8487C23.2444 25.8619 23.3036 25.9803 24.1918 25.0921C24.7839 24.5 25.0207 23.7303 24.7246 22.9014C24.1325 20.8882 23.2444 21.4803 23.2444 23.8487Z" fill="#6DBFB8"/>
</svg>
