<svg width="60" height="100" viewBox="0 0 60 100" fill="none" xmlns="http://www.w3.org/2000/svg">
<path d="M58.8744 35.3573L32.6427 9.12561C31.1419 7.6248 28.6623 7.6248 27.1615 9.12561L21.7455 14.5416L28.6623 21.4584C30.2936 20.9364 32.1207 21.2626 33.3605 22.5677C34.6656 23.8728 34.9918 25.6998 34.4698 27.3312L41.1256 33.9869C42.7569 33.4649 44.584 33.7912 45.8891 35.0962C47.7162 36.8581 47.7162 39.7945 45.8891 41.6215C44.062 43.4486 41.1909 43.4486 39.3638 41.6215C37.9935 40.2512 37.6672 38.2936 38.385 36.5971L32.186 30.398V46.7113C32.6427 46.907 33.0343 47.2333 33.4258 47.5595C35.2529 49.3214 35.2529 52.2577 33.4258 54.0848C31.5987 55.8467 28.7276 55.8467 26.9005 54.0848C25.0734 52.2577 25.0734 49.3866 26.9005 47.5595C27.3573 47.1028 27.8793 46.7765 28.4013 46.5807V30.0718C27.8793 29.876 27.3573 29.4845 26.9005 29.093C25.5302 27.7227 25.2039 25.7651 25.9217 24.0685L19.0701 17.2822L1.12561 35.2268C-0.375204 36.7276 -0.375204 39.2072 1.12561 40.708L27.292 66.8744C28.7928 68.3752 31.2724 68.3752 32.7733 66.8744L58.8091 40.8385C60.3752 39.2724 60.3752 36.8581 58.8744 35.3573Z" fill="#6DBFB8"/>
<path d="M27.056 92.884C26.876 93.04 26.624 93.196 26.3 93.352C25.976 93.496 25.616 93.628 25.22 93.748C24.836 93.868 24.434 93.964 24.014 94.036C23.606 94.108 23.222 94.144 22.862 94.144C21.818 94.144 20.876 93.982 20.036 93.658C19.208 93.334 18.494 92.884 17.894 92.308C17.306 91.732 16.85 91.054 16.526 90.274C16.214 89.494 16.058 88.648 16.058 87.736C16.058 86.656 16.232 85.69 16.58 84.838C16.94 83.974 17.426 83.248 18.038 82.66C18.662 82.06 19.376 81.61 20.18 81.31C20.984 80.998 21.836 80.842 22.736 80.842C23.492 80.842 24.194 80.932 24.842 81.112C25.49 81.292 26.06 81.52 26.552 81.796L25.958 83.398C25.718 83.254 25.418 83.122 25.058 83.002C24.71 82.882 24.35 82.786 23.978 82.714C23.606 82.63 23.258 82.588 22.934 82.588C22.166 82.588 21.47 82.708 20.846 82.948C20.222 83.176 19.688 83.512 19.244 83.956C18.8 84.388 18.458 84.916 18.218 85.54C17.978 86.152 17.858 86.842 17.858 87.61C17.858 88.318 17.978 88.966 18.218 89.554C18.458 90.142 18.8 90.652 19.244 91.084C19.688 91.504 20.216 91.834 20.828 92.074C21.452 92.302 22.136 92.416 22.88 92.416C23.324 92.416 23.762 92.374 24.194 92.29C24.626 92.194 24.998 92.062 25.31 91.894V89.302H22.718V87.628H27.056V92.884ZM30.3855 80.986H32.1315V94H30.3855V80.986ZM34.9159 80.986H43.5559V82.66H40.0639V94H38.3179V82.66H34.9159V80.986Z" fill="#6DBFB8"/>
</svg>
