<svg width="99" height="100" viewBox="0 0 99 100" fill="none" xmlns="http://www.w3.org/2000/svg">
<path fill-rule="evenodd" clip-rule="evenodd" d="M50.7748 63.6293C51.8453 64.5323 53.1002 64.9174 54.4551 64.9887C55.0154 65.0186 55.5918 64.9906 56.1431 64.8882C57.0177 64.7261 57.8899 64.5226 58.7405 64.2612C60.4728 63.728 61.9697 62.8067 63.0874 61.3187C63.7241 60.4706 64.2469 59.5534 64.5825 58.5395C64.8598 57.703 65.1201 56.8578 65.3274 56.0017C65.4911 55.3271 65.5724 54.6307 65.6716 53.9415C65.7378 53.4858 65.7778 53.0251 65.8191 52.565C65.886 51.8186 65.9559 51.0734 66.0043 50.3251C66.0383 49.8048 66.0371 49.282 66.0568 48.761C66.0634 48.6019 66.0885 48.4442 66.1034 48.2863C66.1159 48.1394 66.1889 48.0889 66.3358 48.0914C66.8519 48.0993 67.3692 48.1126 67.8847 48.0889C68.4624 48.0627 69.0442 48.0371 69.6128 47.9402C70.4221 47.802 71.225 47.6271 72.019 47.4162C72.9556 47.1658 73.8152 46.7179 74.6432 46.2085C75.6061 45.6144 76.4854 44.9179 77.1968 44.0204C77.8175 43.2392 78.1114 42.3338 77.9614 41.346C77.744 39.911 76.5619 38.9709 75.1874 38.9069C74.6891 38.8838 74.1838 38.9374 73.688 39.0014C73.0876 39.0793 72.4963 39.217 71.8977 39.3078C71.4844 39.3712 71.0656 39.3992 70.6534 39.4431L70.6421 39.3882C71.4127 37.9033 72.2155 36.4354 72.9443 34.9304C73.504 33.7751 73.9819 32.579 74.4759 31.3908C75.2943 29.4238 75.9472 27.3966 76.4884 25.3352C77.0063 23.3622 77.4495 21.3678 77.5899 19.3205C77.6461 18.5034 77.6849 17.6826 77.6795 16.8643C77.6759 16.2111 77.6066 15.5573 77.5427 14.9065C77.4698 14.1607 77.2488 13.4538 76.943 12.7739C76.5403 11.8769 75.9149 11.1415 75.2573 10.4432C74.731 9.88379 74.1515 9.37439 73.5775 8.86499C72.7585 8.13867 71.8374 7.55798 70.8816 7.04309C69.7982 6.45609 68.6505 6.00202 67.4624 5.69037C66.7384 5.50417 66.0098 5.33736 65.2773 5.19011C65.0169 5.13649 64.754 5 64.4918 5H59.5528C59.3743 5 59.1974 5.11943 59.0177 5.13954C57.8356 5.27114 56.6685 5.517 55.5321 5.87378C55.108 6.00722 54.7209 5.92923 54.3177 5.89084C54.0083 5.86159 53.7042 5.78055 53.3947 5.76471C52.2174 5.705 51.0388 5.61847 49.8608 5.63127C48.733 5.64345 47.6165 5.83357 46.5252 6.1492C45.6119 6.41487 44.7176 6.73721 43.8981 7.22772C43.548 7.43733 43.2696 7.39772 42.9071 7.2917C41.6893 6.9278 40.461 6.60186 39.2237 6.31433C38.4526 6.13823 37.6587 6.04927 36.8708 5.9664C36.1146 5.88629 35.3555 5.8381 34.5955 5.82199C33.8536 5.80554 33.1069 5.80614 32.3679 5.87318C31.1918 5.97981 30.0383 6.22354 28.9164 6.61717C27.6798 7.04843 26.5243 7.69155 25.4996 8.51889C24.4542 9.36282 23.6156 10.392 22.9423 11.5686C22.2321 12.8098 21.744 14.1387 21.4418 15.5335C20.8436 18.287 20.8905 21.379 21.357 24.1671C21.4967 25.0092 21.6228 25.8483 21.7924 26.6843C22.0296 27.8524 22.256 29.0193 22.5188 30.1818C22.71 31.0282 22.9172 31.8697 23.1448 32.7063C23.4913 33.9847 23.8294 35.2649 24.2219 36.5281C24.5868 37.7022 25.0026 38.8594 25.4178 40.0171C25.9866 41.6179 26.6839 43.1682 27.5025 44.6522C28.2163 45.9386 29.0306 47.1432 30.1237 48.1334C30.8447 48.7866 31.6458 49.2881 32.5782 49.5391C33.3066 49.7365 34.07 49.7582 34.8081 49.6025C35.6637 49.4251 36.4629 49.0347 37.1348 48.4661C37.2136 48.4009 37.2991 48.3503 37.3928 48.471C37.7477 48.9292 38.222 49.235 38.7184 49.4989C40.0576 50.2118 41.517 50.4257 42.9991 50.5122C43.3586 50.533 43.7207 50.4806 44.0821 50.4708C44.7875 50.4506 45.4721 50.3106 46.1453 50.1119C46.4989 50.0077 46.8436 49.8749 47.2032 49.7518C47.2217 50.1423 47.2456 50.5177 47.2576 50.8937L47.3071 52.9428C47.3167 53.2548 47.3286 53.5668 47.3567 53.8775C47.4296 54.6782 47.5007 55.4789 47.5945 56.2771C47.659 56.8274 47.727 57.3812 47.8537 57.9186C48.1083 59.0017 48.4566 60.0595 48.8943 61.0798C49.3134 62.0702 49.9581 62.9442 50.7748 63.6293ZM48.6297 53.412C48.5873 52.4498 48.5556 51.4873 48.5347 50.5244C48.5096 49.341 48.5013 48.1571 48.4851 46.9738L48.4821 46.9287C47.8925 47.2901 47.3113 47.6849 46.6967 48.0109C45.9756 48.393 45.1931 48.6142 44.3825 48.6769C43.7475 48.7257 43.103 48.7702 42.471 48.719C41.434 48.633 40.397 48.4679 39.4687 47.9463C39.0924 47.7349 38.6993 47.4771 38.4395 47.1402C37.8176 46.3304 38.1157 45.3073 39.0535 44.815C39.7017 44.4738 40.4089 44.3318 41.1114 44.166C41.7229 44.0246 42.328 43.8558 42.9249 43.6602C43.5139 43.4634 43.8855 42.976 44.2529 42.4977L44.8347 41.7348L44.1352 41.6605C43.4411 41.5946 42.7786 41.399 42.1455 41.1126C41.6042 40.8683 41.5958 40.8415 41.198 41.2814C40.535 42.0157 39.8898 42.7682 39.2393 43.5153C38.7609 44.0649 38.2859 44.6175 37.8087 45.169C37.3379 45.7143 36.8959 46.2902 36.3876 46.7971C35.6336 47.5502 34.7245 48.003 33.6397 47.9518C32.9438 47.9189 32.307 47.6703 31.7335 47.2638C30.5514 46.4242 29.7551 45.2482 29.0294 44.0143C28.1005 42.4325 27.3866 40.7477 26.7767 39.0172C26.3544 37.8204 25.9297 36.6231 25.5617 35.4093C25.1609 34.0901 24.8091 32.7557 24.4632 31.42C24.2016 30.4128 23.9698 29.397 23.7488 28.3794C23.4943 27.2228 23.2589 26.0618 23.0427 24.8971C22.8987 24.1105 22.8157 23.3122 22.6992 22.5207C22.5421 21.4526 22.5134 20.3758 22.5708 19.3041C22.6216 18.3382 22.7572 17.3755 22.8922 16.4165C23.0791 15.0893 23.508 13.8371 24.1245 12.6544C24.5048 11.9337 24.9708 11.2637 25.5121 10.6595C26.4022 9.65469 27.4792 8.92898 28.6775 8.38362C29.5144 8.00278 30.3991 7.77429 31.3005 7.59454C32.6386 7.32886 33.9886 7.33983 35.3386 7.36786C35.9288 7.38066 36.5171 7.48973 37.1067 7.55006C38.3767 7.67862 39.621 7.9516 40.8498 8.28734C41.7458 8.5323 42.6233 8.85037 43.511 9.12578C43.5993 9.15321 43.7302 9.15077 43.8036 9.10263C45.0073 8.30075 46.3221 7.77185 47.7217 7.46902C48.2527 7.35446 48.8011 7.30388 49.3441 7.26854C50.0036 7.2265 50.6696 7.18628 51.3279 7.22589C52.1194 7.2722 52.9085 7.39102 53.6952 7.5007C54.0775 7.55432 54.4503 7.68898 54.8326 7.72554C55.0165 7.74321 55.2107 7.60733 55.4043 7.56102C56.3923 7.32765 57.3761 7.06868 58.3731 6.88527C59.115 6.74878 59.8736 6.68419 60.6275 6.64032C61.4698 6.59097 62.3168 6.55502 63.1579 6.59645C64.2211 6.64885 65.2767 6.80302 66.3184 7.0504C67.61 7.3569 68.8476 7.8017 70.0251 8.41957C70.9049 8.88206 71.7407 9.41705 72.4939 10.0751C72.9873 10.5071 73.4926 10.9331 73.9377 11.4144C74.4873 12.0079 75.0475 12.6008 75.3929 13.3606C75.6527 13.934 75.8378 14.5275 75.8892 15.1545C75.9526 15.935 76.0296 16.7181 76.023 17.4998C76.0165 18.2469 75.9161 18.9933 75.8456 19.7391C75.6837 21.4379 75.3223 23.1002 74.8821 24.7406C74.5148 26.0954 74.0985 27.4361 73.6342 28.7597C73.2107 29.9802 72.7215 31.1781 72.2274 32.3718C71.8633 33.2556 71.468 34.1257 71.0423 34.9803C70.2335 36.5963 69.3925 38.1958 68.4193 39.7191C68.2515 39.9818 68.092 40.251 67.9283 40.5198C68.3531 40.8117 68.8339 40.9146 69.3178 40.9682C69.7783 41.0188 70.2479 41.0499 70.7078 41.0146C71.4444 40.9585 72.1785 40.8513 72.9109 40.747C73.636 40.6434 74.3462 40.4333 75.0918 40.4887C75.8349 40.5442 76.3677 41.1206 76.317 41.831C76.2847 42.2807 76.0822 42.6665 75.7895 42.9961C74.4066 44.5523 72.6707 45.4956 70.6851 45.9605C69.9306 46.1372 69.1529 46.228 68.3805 46.3018C67.7209 46.3611 67.0583 46.377 66.3967 46.3493C65.9116 46.331 65.4308 46.2177 64.935 46.1446C64.8848 46.607 64.8377 47.089 64.7803 47.5691L64.5491 49.4111C64.4792 49.9949 64.4249 50.581 64.3526 51.1648C64.2821 51.7315 64.1943 52.2951 64.1202 52.8612C64.0515 53.3882 64.0008 53.9184 63.9231 54.4448C63.8054 55.2516 63.6925 56.0602 63.5378 56.8609C63.3526 57.8175 63.0694 58.7437 62.6053 59.6071C62.0402 60.6606 61.2392 61.4631 60.2189 62.0572C59.1676 62.6696 58.0176 62.9883 56.8535 63.2552C56.0278 63.4446 55.179 63.4751 54.3433 63.3978C52.8948 63.2643 51.6583 62.6324 50.7234 61.4863C49.8316 60.3926 49.2277 59.1398 49.012 57.7206C48.9104 57.0454 48.8315 56.3668 48.7755 55.6861C48.7108 54.9292 48.6621 54.171 48.6297 53.412ZM50.258 43.6907C50.267 44.1965 50.2156 44.7022 50.218 45.208C50.2282 47.5618 50.2449 49.9163 50.2646 52.2707C50.2682 52.6552 50.2867 53.041 50.3136 53.4248C50.3703 54.2291 50.4265 55.0341 50.503 55.8359C50.5579 56.4057 50.6326 56.9736 50.7204 57.539C50.8459 58.339 51.2031 59.052 51.6081 59.7338C51.9569 60.32 52.4115 60.8172 53.0095 61.1609C54.0262 61.744 55.1199 61.7928 56.2226 61.5783C56.9675 61.4338 57.6998 61.2005 58.4227 60.9598C59.134 60.7271 59.7836 60.3308 60.321 59.8014C60.8282 59.3006 61.1878 58.6894 61.4303 58.0149C61.9005 56.7073 62.048 55.3296 62.2421 53.9634C62.315 53.4516 62.3783 52.9386 62.4446 52.4262C62.5205 51.843 62.597 51.2605 62.6698 50.6774C62.7248 50.2422 62.7738 49.8078 62.8258 49.3734C62.9004 48.7494 62.9787 48.1261 63.0497 47.5021C63.1041 47.0195 63.1495 46.5351 63.1985 46.0513C63.2606 45.4328 63.3269 44.8162 63.3813 44.1965C63.4219 43.7273 63.4052 43.249 63.487 42.7877C63.6369 41.9426 64.0288 41.2235 64.7635 40.758C65.0706 40.5642 65.4182 40.4363 65.7588 40.2718L65.7002 40.181C65.3854 39.7642 65.0628 39.3542 64.754 38.9325C64.269 38.2707 63.9201 37.5328 63.5695 36.7913C63.2373 36.0881 62.8311 35.4227 62.4817 34.7274C61.8718 33.5149 61.2505 32.3054 60.6884 31.0702C59.9818 29.5165 59.425 27.909 59.25 26.1883C59.1754 25.4607 59.1562 24.7332 59.3014 24.0124C59.5325 22.8607 60.1215 21.9602 61.1131 21.3422C62.0331 20.7695 63.0575 20.5842 64.1071 20.5264C64.7582 20.4904 65.4135 20.5197 66.0891 20.5197L66.067 20.4033C65.6465 19.5064 65.254 18.5942 64.7934 17.7192C64.1447 16.4834 63.3132 15.3696 62.3885 14.3356C61.7061 13.5667 60.9563 12.863 60.1484 12.2334C59.3492 11.6161 58.5069 11.0647 57.6078 10.6144C56.5399 10.0725 55.412 9.66334 54.2483 9.39572C53.1224 9.14102 51.9903 8.98503 50.8351 8.97223C49.8507 8.96126 48.8722 9.00758 47.9128 9.23364C46.4648 9.57547 45.1405 10.1836 43.9894 11.1683C43.3519 11.7134 42.7823 12.3363 42.2935 13.023C41.7159 13.8304 41.2512 14.7042 40.8534 15.6188C40.3074 16.8746 39.9328 18.1805 39.6759 19.5234C39.5481 20.1937 39.4478 20.8682 39.3456 21.5427C39.3098 21.7798 39.3074 22.0205 39.2859 22.2916L39.7232 22.0594L40.1496 21.8645C41.5935 21.1912 43.0886 20.7579 44.6955 20.8073C45.3789 20.828 46.0312 20.9663 46.6393 21.2716C47.8041 21.8578 48.4851 22.854 48.7814 24.1142C48.9857 24.9842 49.1261 25.8714 49.2623 26.7568C49.3686 27.4478 49.4779 28.1461 49.4898 28.8431C49.5072 29.8619 49.457 30.8832 49.4026 31.9014C49.3562 32.7672 49.1805 33.6207 48.8817 34.4326C48.3418 35.9047 47.7396 37.3531 47.1775 38.8167C46.9917 39.3005 46.849 39.8008 46.6739 40.3327L47.3836 40.3334C47.4696 40.3351 47.5574 40.3376 47.6405 40.3577C48.2862 40.513 48.8471 40.8117 49.3065 41.3186C49.9206 41.9913 50.242 42.7786 50.258 43.6907ZM37.9245 36.7109C37.5585 35.8322 37.3377 34.8979 37.2711 33.9457C37.2089 33.0475 37.3134 32.1542 37.4042 31.2598C37.4914 30.3939 37.5655 29.5238 37.5906 28.6549C37.633 27.2248 37.5386 25.7983 37.4717 24.3694C37.4317 23.5188 37.5284 22.6578 37.6026 21.8054C37.6695 21.0376 37.7531 20.268 37.8959 19.5112C38.1342 18.2414 38.4514 16.9898 38.9024 15.7766C39.3295 14.6262 39.8217 13.5069 40.5146 12.4984C40.9908 11.8062 41.5296 11.161 42.0474 10.4846L41.8933 10.4285C40.207 9.88258 38.4926 9.45482 36.7286 9.26898C35.8954 9.18062 35.0585 9.12944 34.2227 9.07826C33.9659 9.06302 33.7054 9.09837 33.448 9.12335C32.8106 9.18611 32.1649 9.21048 31.5376 9.33235C30.4702 9.53952 29.4457 9.88806 28.4977 10.4553C27.6587 10.9589 26.9232 11.6233 26.3317 12.4119C25.6704 13.2838 25.2242 14.2698 24.9046 15.3202C24.5271 16.5602 24.3467 17.8368 24.2983 19.1243C24.2559 20.2534 24.235 21.3886 24.4262 22.5134C24.5677 23.35 24.6627 24.1964 24.8192 25.0306C25.0296 26.1679 25.2658 27.3002 25.5277 28.4264C25.9058 30.0374 26.2845 31.6498 26.7331 33.2413C27.162 34.7653 27.6453 36.2758 28.171 37.7686C28.5998 38.9867 29.0963 40.1822 29.6189 41.3613C29.9594 42.1296 30.3716 42.8694 30.8041 43.5884C31.2635 44.3525 31.7867 45.0776 32.4952 45.6321C33.3906 46.3316 34.083 46.4406 34.9933 45.6723C35.3828 45.3438 35.7119 44.9368 36.0512 44.5499C36.5894 43.9357 37.1092 43.3032 37.6455 42.6859C38.3283 41.9006 39.0195 41.123 39.7058 40.34C39.851 40.1749 39.9914 40.0043 40.1323 39.8374L39.8976 39.6283C39.0513 38.8037 38.3798 37.8107 37.9245 36.7109ZM63.8143 13.3106C64.3758 13.9759 64.9083 14.6659 65.4105 15.3787C66.373 16.7555 67.1477 18.2593 67.7133 19.8488C67.9642 20.5526 68.1648 21.263 68.0753 22.0326C68.0132 22.5719 68.0173 23.1185 67.9714 23.6608C67.9325 24.1117 67.862 24.5602 67.8053 25.0098C67.7192 25.6874 67.595 26.3638 67.558 27.0444C67.5221 27.6927 67.5598 28.3471 67.5998 28.9961C67.6398 29.656 67.727 30.3129 67.7861 30.971C67.8531 31.7186 67.9438 32.4644 67.9642 33.2133C67.9809 33.8275 67.9271 34.4447 67.8751 35.059C67.8084 35.7949 67.6332 36.5163 67.3555 37.1989C67.1625 37.6827 66.9325 38.1507 66.7157 38.6345L66.8029 38.7283L66.9355 38.8331L67.0699 38.5894C68.1979 36.779 69.2002 34.8901 70.0692 32.9366C70.6264 31.6758 71.155 30.4019 71.6546 29.1162C72.4335 27.1174 73.0628 25.0613 73.5369 22.9655C73.7519 22.0247 73.9168 21.0693 74.0626 20.1138C74.1766 19.3668 74.271 18.6113 74.2925 17.8575C74.3146 17.0581 74.2716 16.2526 74.1993 15.4555C74.145 14.8535 73.9992 14.2478 73.63 13.7573C73.0351 12.9694 72.3936 12.2163 71.6044 11.6198C70.9396 11.1183 70.2765 10.6022 69.5639 10.1805C68.4331 9.51088 67.2091 9.06607 65.9302 8.76262C64.6811 8.46588 63.4171 8.33792 62.1448 8.3105C61.3945 8.29405 60.6406 8.3763 59.8921 8.44882C59.2136 8.51341 58.5392 8.6243 57.8564 8.7157C58.5894 9.13614 59.3127 9.51027 59.9937 9.95082C61.4273 10.877 62.7128 11.9915 63.8143 13.3106ZM45.1889 39.2457C45.6519 37.7346 46.2833 36.2904 46.8944 34.839C47.3907 33.6611 47.6614 32.4211 47.7516 31.1464C47.7964 30.5182 47.7844 29.8821 47.7539 29.252C47.7242 28.551 47.6612 27.8519 47.5652 27.1571C47.4368 26.2712 47.291 25.3846 47.0855 24.515C46.8627 23.5742 46.3012 22.9186 45.3383 22.6767C44.7523 22.5298 44.1693 22.536 43.576 22.6316C42.1287 22.8638 40.8038 23.4079 39.5697 24.205C39.3211 24.3652 39.1837 24.495 39.2273 24.8575C39.3182 25.6277 39.3378 26.4101 39.3343 27.187C39.3295 28.2868 39.2835 29.3866 39.2429 30.4859C39.2298 30.8436 39.1789 31.2006 39.1408 31.5571C39.0834 32.103 38.9717 32.6484 38.9753 33.1938C38.9789 33.7556 39.035 34.3302 39.1688 34.8743C39.5935 36.5999 40.492 38.0112 41.9656 39.0074C42.8718 39.6204 43.8741 39.9287 44.9751 39.9878C45.048 39.7301 45.1154 39.487 45.1889 39.2457ZM43.459 24.4456C43.2648 24.0306 43.376 23.6864 43.8252 23.5267C43.9351 23.4883 44.0474 23.4457 44.1609 23.4347C44.318 23.4189 44.4763 23.4305 44.6346 23.4305C45.2051 23.4341 45.7534 23.5151 46.2235 23.8844C46.5258 24.1221 46.607 24.4358 46.4111 24.76C46.1333 25.2189 45.711 25.4492 45.1913 25.493C44.3736 25.5619 43.7995 25.1731 43.459 24.4456ZM66.1435 24.2939L66.3292 22.6334C66.3561 22.4117 66.242 22.3507 66.0592 22.3452C65.484 22.3294 64.9093 22.3081 64.3341 22.2983C63.6865 22.2862 63.0552 22.3922 62.4554 22.6432C61.79 22.9229 61.2834 23.3702 61.0761 24.1093C60.9244 24.6539 60.8766 25.2231 60.9351 25.7862C61.016 26.6573 61.2094 27.5137 61.5104 28.3331C61.913 29.4257 62.3336 30.5176 62.8371 31.5644C63.5187 32.9811 64.2893 34.3534 65.0133 35.7487C65.2062 36.121 65.3699 36.5104 65.5712 36.9448C65.9777 36.0806 66.1996 35.138 66.2223 34.1797C66.242 33.387 66.1805 32.5924 66.1351 31.7996C66.107 31.3146 66.0395 30.832 65.9935 30.3482C65.9296 29.6743 65.8316 28.9998 65.8161 28.324C65.8011 27.6366 65.849 26.9457 65.9063 26.259C65.96 25.6021 66.0664 24.9495 66.1435 24.2939ZM64.8478 23.7614C64.6339 24.3627 64.1775 24.7027 63.585 24.8021C63.033 24.8953 62.5491 24.6875 62.1896 24.2378C61.9333 23.9179 62.0313 23.5395 62.4154 23.3226C62.8562 23.074 63.3406 23.0112 63.9124 22.9734C64.0682 23.0021 64.3012 23.0271 64.5234 23.091C64.8454 23.1837 64.9649 23.4323 64.8478 23.7614ZM47.7647 42.2869C47.4493 42.0236 47.0312 42.0084 46.7313 42.2972C46.3586 42.6567 46.0306 43.0674 45.7027 43.472C45.3245 43.9399 44.9685 44.4262 44.4811 44.7888C43.7708 45.3158 42.9411 45.534 42.1084 45.7406C41.4465 45.905 40.7811 46.058 40.1174 46.2152L40.109 46.303C40.3062 46.3956 40.4968 46.5119 40.7028 46.5784C41.7154 46.905 42.7457 47.0682 43.8162 46.9757C44.588 46.908 45.324 46.7362 46.021 46.3992C46.981 45.9355 47.7199 45.2001 48.3477 44.3458C48.4529 44.2032 48.5006 43.9924 48.5126 43.8083C48.555 43.1588 48.2319 42.6756 47.7647 42.2869ZM66.2497 42.0054C65.7534 42.1754 65.3495 42.4343 65.2295 42.9821C65.1477 43.3526 65.1178 43.7358 65.0861 44.1154C65.0801 44.1825 65.162 44.3055 65.2241 44.3226C65.6064 44.4256 65.9911 44.5469 66.3818 44.5828C66.8626 44.6273 67.3513 44.6133 67.8351 44.5889C68.3572 44.5621 68.8829 44.5274 69.3978 44.4396C70.6098 44.2312 71.7836 43.8937 72.8254 43.1917C73.2018 42.9388 73.5733 42.6805 73.9473 42.4234L73.9162 42.3691C73.5177 42.4294 73.1205 42.5031 72.7203 42.5464C71.9055 42.6354 71.0901 42.7292 70.2723 42.7774C69.8775 42.8005 69.4772 42.7231 69.0795 42.6902C68.4116 42.6348 67.7593 42.4837 67.1948 42.1193C66.8692 41.9097 66.5969 41.8865 66.2497 42.0054Z" fill="#6DBFB8"/>
<path d="M5.346 80.986C6.294 80.986 7.104 81.148 7.776 81.472C8.448 81.784 8.964 82.24 9.324 82.84C9.696 83.44 9.882 84.166 9.882 85.018C9.882 85.534 9.804 86.044 9.648 86.548C9.492 87.04 9.24 87.49 8.892 87.898C8.556 88.294 8.112 88.612 7.56 88.852C7.008 89.092 6.336 89.212 5.544 89.212H3.618V94H1.872V80.986H5.346ZM5.526 87.538C6.042 87.538 6.468 87.454 6.804 87.286C7.14 87.118 7.404 86.908 7.596 86.656C7.788 86.392 7.926 86.116 8.01 85.828C8.094 85.54 8.136 85.282 8.136 85.054C8.136 84.79 8.094 84.52 8.01 84.244C7.926 83.956 7.782 83.698 7.578 83.47C7.386 83.23 7.128 83.038 6.804 82.894C6.492 82.738 6.102 82.66 5.634 82.66H3.618V87.538H5.526ZM11.5151 90.202C11.5151 89.458 11.6891 88.786 12.0371 88.186C12.3971 87.586 12.8891 87.112 13.5131 86.764C14.1371 86.416 14.8451 86.242 15.6371 86.242C16.4531 86.242 17.1671 86.416 17.7791 86.764C18.3911 87.112 18.8651 87.586 19.2011 88.186C19.5371 88.786 19.7051 89.458 19.7051 90.202C19.7051 90.946 19.5371 91.624 19.2011 92.236C18.8651 92.836 18.3851 93.31 17.7611 93.658C17.1491 94.006 16.4351 94.18 15.6191 94.18C14.8271 94.18 14.1191 94.018 13.4951 93.694C12.8831 93.358 12.3971 92.896 12.0371 92.308C11.6891 91.708 11.5151 91.006 11.5151 90.202ZM13.1891 90.22C13.1891 90.7 13.2971 91.138 13.5131 91.534C13.7291 91.918 14.0171 92.224 14.3771 92.452C14.7491 92.68 15.1571 92.794 15.6011 92.794C16.0691 92.794 16.4831 92.68 16.8431 92.452C17.2151 92.224 17.5031 91.918 17.7071 91.534C17.9111 91.138 18.0131 90.7 18.0131 90.22C18.0131 89.74 17.9111 89.308 17.7071 88.924C17.5031 88.528 17.2151 88.216 16.8431 87.988C16.4831 87.748 16.0691 87.628 15.6011 87.628C15.1451 87.628 14.7311 87.748 14.3591 87.988C13.9991 88.228 13.7111 88.546 13.4951 88.942C13.2911 89.326 13.1891 89.752 13.1891 90.22ZM24.0597 94.144C23.5317 94.144 23.0157 94.054 22.5117 93.874C22.0197 93.682 21.6117 93.4 21.2877 93.028L21.9897 92.056C22.3017 92.356 22.6197 92.584 22.9437 92.74C23.2797 92.884 23.6097 92.956 23.9337 92.956C24.1737 92.956 24.3957 92.926 24.5997 92.866C24.8037 92.806 24.9657 92.71 25.0857 92.578C25.2177 92.434 25.2837 92.242 25.2837 92.002C25.2837 91.738 25.1937 91.528 25.0137 91.372C24.8457 91.216 24.6237 91.09 24.3477 90.994C24.0837 90.898 23.8017 90.808 23.5017 90.724C22.8897 90.52 22.4217 90.238 22.0977 89.878C21.7737 89.518 21.6117 89.08 21.6117 88.564C21.6117 88.168 21.7077 87.802 21.8997 87.466C22.1037 87.118 22.3977 86.836 22.7817 86.62C23.1777 86.404 23.6637 86.296 24.2397 86.296C24.7557 86.296 25.2177 86.362 25.6257 86.494C26.0337 86.614 26.4177 86.818 26.7777 87.106L26.1117 88.15C25.8957 87.922 25.6377 87.754 25.3377 87.646C25.0377 87.538 24.7677 87.478 24.5277 87.466C24.3237 87.454 24.1257 87.484 23.9337 87.556C23.7537 87.628 23.6037 87.73 23.4837 87.862C23.3637 87.994 23.3037 88.15 23.3037 88.33C23.3037 88.582 23.3877 88.786 23.5557 88.942C23.7237 89.098 23.9397 89.224 24.2037 89.32C24.4797 89.404 24.7497 89.494 25.0137 89.59C25.3857 89.698 25.7157 89.842 26.0037 90.022C26.2917 90.202 26.5197 90.424 26.6877 90.688C26.8677 90.952 26.9577 91.282 26.9577 91.678C26.9577 92.122 26.8497 92.536 26.6337 92.92C26.4297 93.292 26.1117 93.592 25.6797 93.82C25.2597 94.036 24.7197 94.144 24.0597 94.144ZM30.0218 83.272H31.6958V86.584H33.7478V87.898H31.6958V94H30.0218V87.898H28.6538V86.584H30.0218V83.272ZM39.3525 97.69C38.8005 97.69 38.3145 97.624 37.8945 97.492C37.4745 97.372 37.0905 97.198 36.7425 96.97C36.4065 96.742 36.0825 96.484 35.7705 96.196L36.7425 95.062C37.1385 95.434 37.5405 95.722 37.9485 95.926C38.3565 96.13 38.8125 96.232 39.3165 96.232C39.8805 96.232 40.3545 96.136 40.7385 95.944C41.1345 95.764 41.4345 95.506 41.6385 95.17C41.8425 94.846 41.9445 94.468 41.9445 94.036L41.9625 92.02L42.1065 92.344C41.8905 92.86 41.5005 93.298 40.9365 93.658C40.3725 94.006 39.6885 94.18 38.8845 94.18C38.2005 94.18 37.5705 94.006 36.9945 93.658C36.4305 93.31 35.9745 92.842 35.6265 92.254C35.2905 91.654 35.1225 90.982 35.1225 90.238C35.1225 89.458 35.3025 88.774 35.6625 88.186C36.0225 87.586 36.4965 87.112 37.0845 86.764C37.6725 86.416 38.3145 86.242 39.0105 86.242C39.6705 86.242 40.2705 86.38 40.8105 86.656C41.3625 86.92 41.7645 87.262 42.0165 87.682L41.9265 87.988L42.1065 86.548H43.6365V94.054C43.6365 94.726 43.4625 95.338 43.1145 95.89C42.7665 96.442 42.2745 96.88 41.6385 97.204C41.0025 97.528 40.2405 97.69 39.3525 97.69ZM36.7965 90.202C36.7965 90.682 36.9105 91.12 37.1385 91.516C37.3665 91.912 37.6725 92.224 38.0565 92.452C38.4525 92.68 38.8905 92.794 39.3705 92.794C39.8145 92.794 40.2105 92.716 40.5585 92.56C40.9185 92.392 41.2185 92.17 41.4585 91.894C41.6985 91.606 41.8665 91.276 41.9625 90.904V89.428C41.8545 89.068 41.6745 88.756 41.4225 88.492C41.1705 88.216 40.8705 88.006 40.5225 87.862C40.1745 87.706 39.7905 87.628 39.3705 87.628C38.8905 87.628 38.4525 87.736 38.0565 87.952C37.6725 88.168 37.3665 88.474 37.1385 88.87C36.9105 89.254 36.7965 89.698 36.7965 90.202ZM48.0223 86.548L48.1843 88.708L48.0943 88.42C48.2863 87.964 48.5623 87.58 48.9223 87.268C49.2943 86.944 49.6783 86.698 50.0743 86.53C50.4823 86.35 50.8363 86.26 51.1363 86.26L51.0463 87.916C50.4823 87.88 49.9843 87.988 49.5523 88.24C49.1323 88.492 48.7963 88.828 48.5443 89.248C48.3043 89.668 48.1843 90.118 48.1843 90.598V94H46.5283V86.548H48.0223ZM56.4355 94.18C55.5835 94.18 54.8515 94.012 54.2395 93.676C53.6275 93.328 53.1535 92.86 52.8175 92.272C52.4935 91.672 52.3315 90.988 52.3315 90.22C52.3315 89.488 52.5175 88.822 52.8895 88.222C53.2615 87.622 53.7595 87.142 54.3835 86.782C55.0075 86.422 55.7035 86.242 56.4715 86.242C57.4555 86.242 58.2715 86.53 58.9195 87.106C59.5675 87.682 60.0055 88.474 60.2335 89.482L54.0955 91.642L53.6995 90.652L58.7395 88.816L58.3795 89.05C58.2355 88.654 57.9955 88.312 57.6595 88.024C57.3235 87.724 56.8855 87.574 56.3455 87.574C55.8895 87.574 55.4815 87.688 55.1215 87.916C54.7615 88.132 54.4795 88.432 54.2755 88.816C54.0715 89.2 53.9695 89.638 53.9695 90.13C53.9695 90.646 54.0775 91.102 54.2935 91.498C54.5095 91.882 54.8035 92.188 55.1755 92.416C55.5595 92.632 55.9915 92.74 56.4715 92.74C56.7955 92.74 57.1075 92.68 57.4075 92.56C57.7195 92.44 58.0075 92.284 58.2715 92.092L59.0455 93.334C58.6735 93.586 58.2535 93.79 57.7855 93.946C57.3295 94.102 56.8795 94.18 56.4355 94.18ZM69.477 83.308C69.033 83.08 68.547 82.882 68.019 82.714C67.491 82.546 66.975 82.462 66.471 82.462C65.775 82.462 65.217 82.624 64.797 82.948C64.389 83.272 64.185 83.704 64.185 84.244C64.185 84.652 64.317 85 64.581 85.288C64.845 85.564 65.193 85.804 65.625 86.008C66.057 86.212 66.507 86.404 66.975 86.584C67.383 86.74 67.785 86.914 68.181 87.106C68.577 87.298 68.931 87.538 69.243 87.826C69.567 88.114 69.819 88.468 69.999 88.888C70.191 89.308 70.287 89.83 70.287 90.454C70.287 91.138 70.113 91.762 69.765 92.326C69.429 92.89 68.943 93.334 68.307 93.658C67.671 93.982 66.915 94.144 66.039 94.144C65.463 94.144 64.911 94.078 64.383 93.946C63.867 93.814 63.387 93.646 62.943 93.442C62.499 93.226 62.103 93.004 61.755 92.776L62.529 91.408C62.817 91.612 63.147 91.81 63.519 92.002C63.891 92.182 64.281 92.332 64.689 92.452C65.097 92.56 65.493 92.614 65.877 92.614C66.285 92.614 66.687 92.542 67.083 92.398C67.491 92.242 67.827 92.008 68.091 91.696C68.355 91.384 68.487 90.97 68.487 90.454C68.487 90.01 68.367 89.644 68.127 89.356C67.899 89.056 67.593 88.804 67.209 88.6C66.825 88.384 66.417 88.192 65.985 88.024C65.577 87.868 65.163 87.7 64.743 87.52C64.323 87.328 63.933 87.1 63.573 86.836C63.213 86.56 62.925 86.224 62.709 85.828C62.493 85.432 62.385 84.952 62.385 84.388C62.385 83.704 62.547 83.11 62.871 82.606C63.207 82.09 63.663 81.688 64.239 81.4C64.815 81.1 65.475 80.938 66.219 80.914C67.059 80.914 67.797 81.016 68.433 81.22C69.081 81.424 69.651 81.676 70.143 81.976L69.477 83.308ZM81.7896 92.308H86.2536V94H79.4676L81.7896 92.308ZM72.4116 87.502C72.4116 86.602 72.5796 85.756 72.9156 84.964C73.2636 84.16 73.7436 83.452 74.3556 82.84C74.9676 82.216 75.6696 81.73 76.4616 81.382C77.2656 81.022 78.1296 80.842 79.0536 80.842C79.9656 80.842 80.8176 81.022 81.6096 81.382C82.4136 81.73 83.1216 82.216 83.7336 82.84C84.3576 83.452 84.8436 84.16 85.1916 84.964C85.5396 85.756 85.7136 86.602 85.7136 87.502C85.7136 88.426 85.5396 89.29 85.1916 90.094C84.8436 90.898 84.3576 91.606 83.7336 92.218C83.1216 92.818 82.4136 93.292 81.6096 93.64C80.8176 93.976 79.9656 94.144 79.0536 94.144C78.1296 94.144 77.2656 93.976 76.4616 93.64C75.6696 93.304 74.9676 92.836 74.3556 92.236C73.7436 91.636 73.2636 90.934 72.9156 90.13C72.5796 89.326 72.4116 88.45 72.4116 87.502ZM74.2116 87.52C74.2116 88.204 74.3376 88.846 74.5896 89.446C74.8416 90.034 75.1896 90.556 75.6336 91.012C76.0776 91.468 76.5936 91.822 77.1816 92.074C77.7696 92.326 78.4056 92.452 79.0896 92.452C79.7616 92.452 80.3916 92.326 80.9796 92.074C81.5676 91.822 82.0776 91.468 82.5096 91.012C82.9416 90.556 83.2836 90.034 83.5356 89.446C83.7876 88.846 83.9136 88.198 83.9136 87.502C83.9136 86.83 83.7876 86.194 83.5356 85.594C83.2836 84.994 82.9356 84.472 82.4916 84.028C82.0476 83.572 81.5316 83.218 80.9436 82.966C80.3556 82.702 79.7256 82.57 79.0536 82.57C78.3696 82.57 77.7336 82.702 77.1456 82.966C76.5576 83.218 76.0416 83.572 75.5976 84.028C75.1536 84.484 74.8116 85.012 74.5716 85.612C74.3316 86.212 74.2116 86.848 74.2116 87.52ZM89.1825 80.986H90.9285V92.326H97.5345V94H89.1825V80.986Z" fill="#6DBFB8"/>
</svg>
