<svg width="80" height="105" viewBox="0 0 80 105" fill="none" xmlns="http://www.w3.org/2000/svg">
<path fill-rule="evenodd" clip-rule="evenodd" d="M47.8379 9.30444H38.2272V23.8113C36.7925 23.4439 35.6052 23.3212 34.0466 23.3212C24.0031 23.3212 17.5217 29.6191 17.5217 39.323C17.5217 49.3945 23.6319 54.6385 35.3701 54.6507C39.2912 54.6507 42.9151 54.2844 47.8379 53.3532V9.30444ZM35.3233 31.2593C36.5109 31.2593 37.4384 31.3818 38.564 31.7494V47.0295C37.1911 47.2132 36.3252 47.2732 35.2617 47.2732C30.3389 47.2732 27.6548 44.4796 27.6548 39.4205C27.6548 34.2243 30.4625 31.2593 35.3233 31.2593Z" fill="#6DBFB8"/>
<path d="M63.5552 46.5583V24.5039H53.9568V43.2745C53.9568 51.5572 53.5238 54.7062 52.1511 57.425C50.8399 60.0837 48.7867 61.8259 44.5442 63.7975L53.4622 68C57.7047 65.8915 59.7578 63.9825 61.3164 60.955C62.9862 57.8059 63.5552 54.1535 63.5552 46.5583Z" fill="#6DBFB8"/>
<path d="M62.5989 9.30444H52.9883V19.0697H62.5989V9.30444Z" fill="#6DBFB8"/>
<path d="M11.872 99V85.986H15.418C16.702 85.986 17.794 86.184 18.694 86.58C19.606 86.976 20.338 87.498 20.89 88.146C21.442 88.794 21.844 89.514 22.096 90.306C22.36 91.086 22.492 91.866 22.492 92.646C22.492 93.63 22.318 94.512 21.97 95.292C21.634 96.072 21.166 96.738 20.566 97.29C19.966 97.842 19.276 98.268 18.496 98.568C17.728 98.856 16.912 99 16.048 99H11.872ZM13.618 97.326H15.706C16.426 97.326 17.086 97.218 17.686 97.002C18.298 96.786 18.826 96.474 19.27 96.066C19.726 95.658 20.08 95.16 20.332 94.572C20.584 93.972 20.71 93.294 20.71 92.538C20.71 91.734 20.578 91.032 20.314 90.432C20.05 89.82 19.69 89.31 19.234 88.902C18.778 88.494 18.262 88.188 17.686 87.984C17.11 87.768 16.504 87.66 15.868 87.66H13.618V97.326ZM25.1007 102.582L24.1107 101.556C24.4467 101.268 24.7107 100.908 24.9027 100.476C25.0947 100.056 25.1907 99.558 25.1907 98.982V91.548H26.8827V99.054C26.8827 99.894 26.7387 100.602 26.4507 101.178C26.1747 101.766 25.7247 102.234 25.1007 102.582ZM25.0467 88.848C25.0467 88.584 25.1487 88.362 25.3527 88.182C25.5687 88.002 25.8027 87.912 26.0547 87.912C26.3067 87.912 26.5287 88.002 26.7207 88.182C26.9247 88.362 27.0267 88.584 27.0267 88.848C27.0267 89.124 26.9247 89.352 26.7207 89.532C26.5287 89.7 26.3067 89.784 26.0547 89.784C25.8027 89.784 25.5687 89.694 25.3527 89.514C25.1487 89.334 25.0467 89.112 25.0467 88.848ZM32.7649 99.18C32.0689 99.18 31.4329 99.03 30.8569 98.73C30.2929 98.43 29.8429 97.992 29.5069 97.416C29.1829 96.828 29.0209 96.114 29.0209 95.274C29.0209 94.446 29.1949 93.732 29.5429 93.132C29.8909 92.52 30.3529 92.052 30.9289 91.728C31.5169 91.404 32.1589 91.242 32.8549 91.242C33.5509 91.242 34.1389 91.404 34.6189 91.728C35.0989 92.04 35.4649 92.412 35.7169 92.844L35.6089 93.132L35.7709 91.548H37.3189V99H35.6449V97.056L35.8249 97.488C35.7769 97.608 35.6689 97.764 35.5009 97.956C35.3449 98.136 35.1289 98.322 34.8529 98.514C34.5889 98.706 34.2829 98.868 33.9349 99C33.5869 99.12 33.1969 99.18 32.7649 99.18ZM33.2149 97.794C33.6349 97.794 34.0129 97.716 34.3489 97.56C34.6849 97.404 34.9609 97.188 35.1769 96.912C35.4049 96.624 35.5609 96.282 35.6449 95.886V94.428C35.5489 94.068 35.3809 93.756 35.1409 93.492C34.9009 93.216 34.6129 93.006 34.2769 92.862C33.9409 92.706 33.5689 92.628 33.1609 92.628C32.7169 92.628 32.3089 92.736 31.9369 92.952C31.5649 93.168 31.2649 93.468 31.0369 93.852C30.8209 94.236 30.7129 94.686 30.7129 95.202C30.7129 95.682 30.8269 96.12 31.0549 96.516C31.2829 96.912 31.5889 97.224 31.9729 97.452C32.3569 97.68 32.7709 97.794 33.2149 97.794ZM41.7098 91.548L41.8538 93.366L41.7818 93.078C42.0218 92.526 42.4118 92.088 42.9518 91.764C43.4918 91.428 44.1158 91.26 44.8238 91.26C45.5318 91.26 46.1078 91.47 46.5518 91.89C47.0078 92.298 47.2418 92.832 47.2538 93.492V99H45.5618V94.086C45.5498 93.678 45.4298 93.348 45.2018 93.096C44.9858 92.832 44.6438 92.7 44.1758 92.7C43.7438 92.7 43.3538 92.82 43.0058 93.06C42.6578 93.3 42.3818 93.63 42.1778 94.05C41.9858 94.47 41.8898 94.956 41.8898 95.508V99H40.2158V91.548H41.7098ZM53.747 102.69C53.195 102.69 52.709 102.624 52.289 102.492C51.869 102.372 51.485 102.198 51.137 101.97C50.801 101.742 50.477 101.484 50.165 101.196L51.137 100.062C51.533 100.434 51.935 100.722 52.343 100.926C52.751 101.13 53.207 101.232 53.711 101.232C54.275 101.232 54.749 101.136 55.133 100.944C55.529 100.764 55.829 100.506 56.033 100.17C56.237 99.846 56.339 99.468 56.339 99.036L56.357 97.02L56.501 97.344C56.285 97.86 55.895 98.298 55.331 98.658C54.767 99.006 54.083 99.18 53.279 99.18C52.595 99.18 51.965 99.006 51.389 98.658C50.825 98.31 50.369 97.842 50.021 97.254C49.685 96.654 49.517 95.982 49.517 95.238C49.517 94.458 49.697 93.774 50.057 93.186C50.417 92.586 50.891 92.112 51.479 91.764C52.067 91.416 52.709 91.242 53.405 91.242C54.065 91.242 54.665 91.38 55.205 91.656C55.757 91.92 56.159 92.262 56.411 92.682L56.321 92.988L56.501 91.548H58.031V99.054C58.031 99.726 57.857 100.338 57.509 100.89C57.161 101.442 56.669 101.88 56.033 102.204C55.397 102.528 54.635 102.69 53.747 102.69ZM51.191 95.202C51.191 95.682 51.305 96.12 51.533 96.516C51.761 96.912 52.067 97.224 52.451 97.452C52.847 97.68 53.285 97.794 53.765 97.794C54.209 97.794 54.605 97.716 54.953 97.56C55.313 97.392 55.613 97.17 55.853 96.894C56.093 96.606 56.261 96.276 56.357 95.904V94.428C56.249 94.068 56.069 93.756 55.817 93.492C55.565 93.216 55.265 93.006 54.917 92.862C54.569 92.706 54.185 92.628 53.765 92.628C53.285 92.628 52.847 92.736 52.451 92.952C52.067 93.168 51.761 93.474 51.533 93.87C51.305 94.254 51.191 94.698 51.191 95.202ZM60.2748 95.202C60.2748 94.458 60.4488 93.786 60.7968 93.186C61.1568 92.586 61.6488 92.112 62.2728 91.764C62.8968 91.416 63.6048 91.242 64.3968 91.242C65.2128 91.242 65.9268 91.416 66.5388 91.764C67.1508 92.112 67.6248 92.586 67.9608 93.186C68.2968 93.786 68.4648 94.458 68.4648 95.202C68.4648 95.946 68.2968 96.624 67.9608 97.236C67.6248 97.836 67.1448 98.31 66.5208 98.658C65.9088 99.006 65.1948 99.18 64.3788 99.18C63.5868 99.18 62.8788 99.018 62.2548 98.694C61.6428 98.358 61.1568 97.896 60.7968 97.308C60.4488 96.708 60.2748 96.006 60.2748 95.202ZM61.9488 95.22C61.9488 95.7 62.0568 96.138 62.2728 96.534C62.4888 96.918 62.7768 97.224 63.1368 97.452C63.5088 97.68 63.9168 97.794 64.3608 97.794C64.8288 97.794 65.2428 97.68 65.6028 97.452C65.9748 97.224 66.2628 96.918 66.4668 96.534C66.6708 96.138 66.7728 95.7 66.7728 95.22C66.7728 94.74 66.6708 94.308 66.4668 93.924C66.2628 93.528 65.9748 93.216 65.6028 92.988C65.2428 92.748 64.8288 92.628 64.3608 92.628C63.9048 92.628 63.4908 92.748 63.1188 92.988C62.7588 93.228 62.4708 93.546 62.2548 93.942C62.0508 94.326 61.9488 94.752 61.9488 95.22Z" fill="#6DBFB8"/>
</svg>
