<svg width="80" height="101" viewBox="0 0 80 101" fill="none" xmlns="http://www.w3.org/2000/svg">
<mask id="mask0_2015_590" style="mask-type:luminance" maskUnits="userSpaceOnUse" x="10" y="6" width="60" height="60">
<path d="M70 6H10V66H70V6Z" fill="white"/>
</mask>
<g mask="url(#mask0_2015_590)">
<path d="M43.817 6.24703C27.387 4.13953 12.3546 15.7495 10.2471 32.182C8.13958 48.612 19.747 63.642 36.1796 65.752C52.6121 67.8595 67.647 56.2495 69.7496 39.817C71.8596 23.387 60.2521 8.35703 43.817 6.24703ZM49.9946 24.9595C49.4378 24.9669 48.906 25.191 48.5121 25.5846L37.3796 36.717L36.6121 35.9495L35.0046 34.342C45.977 23.402 47.9546 23.297 49.9946 24.9595ZM37.837 37.112L48.937 26.012C49.0826 25.8594 49.2577 25.7382 49.4516 25.6555C49.6456 25.573 49.8544 25.5308 50.0652 25.5317C50.2761 25.5326 50.4845 25.5764 50.6778 25.6606C50.871 25.7447 51.0451 25.8674 51.1894 26.0213C51.3336 26.175 51.445 26.3566 51.5166 26.5549C51.5882 26.7531 51.6187 26.964 51.6061 27.1744C51.5934 27.3849 51.5381 27.5906 51.4432 27.7788C51.3484 27.9671 51.2162 28.1341 51.0546 28.2695L39.307 38.582L37.837 37.112ZM38.6621 38.847L35.9121 39.442C35.8792 39.4494 35.8449 39.4456 35.8145 39.431C35.7841 39.4166 35.7594 39.3922 35.7446 39.362C35.7278 39.3332 35.7212 39.2995 35.7258 39.2665C35.7303 39.2334 35.7457 39.2028 35.7696 39.1795L37.3821 37.567L38.6621 38.847ZM31.6546 37.6995L34.5846 34.7695L36.7821 36.9646L31.8346 38.0295C31.7934 38.0402 31.7497 38.0364 31.711 38.0186C31.6722 38.0009 31.6409 37.9702 31.6221 37.932C31.5988 37.8958 31.5893 37.8524 31.5952 37.8098C31.6012 37.7671 31.6222 37.728 31.6546 37.6995ZM22.5396 52.8446C22.5146 52.8423 22.4902 52.8352 22.4681 52.8236C22.4458 52.8119 22.4262 52.796 22.4101 52.7767C22.3941 52.7574 22.382 52.7351 22.3746 52.7112C22.3672 52.6872 22.3646 52.662 22.367 52.637C22.3718 52.5936 22.3912 52.553 22.4221 52.522H22.427L24.7921 50.157L27.847 53.212L22.5396 52.8446ZM28.6021 49.7046C28.4887 49.7631 28.3983 49.858 28.3453 49.974C28.2922 50.0901 28.2797 50.2205 28.3096 50.3446L28.817 52.507C28.8334 52.5737 28.8274 52.6438 28.8 52.7067C28.7726 52.7696 28.7252 52.8217 28.6652 52.855C28.6051 52.8882 28.5358 52.9009 28.468 52.8908C28.4001 52.8808 28.3374 52.8487 28.2896 52.7995H28.2821L25.947 50.4646L25.2121 49.727L34.617 40.332L39.167 39.3495L41.3521 41.5346C38.2146 44.2895 33.9246 47.037 28.6021 49.7046ZM41.7996 41.1346H41.7946L39.697 39.037L51.4446 28.7246C51.5532 28.628 51.6528 28.5218 51.7421 28.407C51.3721 31.7695 46.6696 36.5195 41.7996 41.1346ZM50.9421 24.9846L50.9346 24.9795C50.108 24.149 49.6333 23.0319 49.609 21.8605C49.5849 20.689 50.013 19.5533 50.8046 18.6893C51.5961 17.8254 52.6901 17.2997 53.8592 17.2214C55.0283 17.1433 56.1826 17.5186 57.0821 18.2695L53.057 22.302C53.0292 22.3297 53.007 22.3626 52.9919 22.3989C52.9768 22.4351 52.969 22.474 52.969 22.5133C52.969 22.5526 52.9768 22.5914 52.9919 22.6277C53.007 22.664 53.0292 22.6969 53.057 22.7246L56.1746 25.842C55.3225 26.265 54.359 26.4098 53.4202 26.2559C52.4814 26.1021 51.6146 25.6574 50.9421 24.9846ZM57.387 24.9846C57.1803 25.1887 56.9533 25.3713 56.7096 25.5295L53.6896 22.512L57.5221 18.6795C59.1746 20.4795 59.1146 23.2595 57.387 24.9846ZM57.137 21.1246C57.077 21.1681 57.0319 21.2293 57.0082 21.2996C56.9845 21.37 56.9832 21.4459 57.0046 21.517C57.0936 21.6973 57.1285 21.8995 57.105 22.0991C57.0814 22.2988 57.0006 22.4874 56.8721 22.642C56.8434 22.6781 56.8222 22.7195 56.8096 22.7638C56.797 22.8081 56.7932 22.8545 56.7986 22.9002C56.8039 22.946 56.8182 22.9902 56.8407 23.0304C56.8632 23.0706 56.8934 23.106 56.9296 23.1346C56.9896 23.1816 57.0633 23.2079 57.1396 23.2095C57.1902 23.2091 57.2401 23.1977 57.2858 23.1761C57.3315 23.1545 57.3721 23.1233 57.4046 23.0846C57.6193 22.8266 57.7542 22.5116 57.7929 22.1782C57.8315 21.8447 57.7722 21.5073 57.6221 21.207C57.5959 21.1694 57.5625 21.1374 57.5238 21.113C57.4852 21.0884 57.442 21.0718 57.3969 21.0642C57.3518 21.0565 57.3055 21.0578 57.2609 21.0682C57.2163 21.0786 57.1742 21.0978 57.137 21.1246Z" fill="#6DBFB8"/>
</g>
<path d="M10.346 81.986C11.294 81.986 12.104 82.148 12.776 82.472C13.448 82.784 13.964 83.24 14.324 83.84C14.696 84.44 14.882 85.166 14.882 86.018C14.882 86.534 14.804 87.044 14.648 87.548C14.492 88.04 14.24 88.49 13.892 88.898C13.556 89.294 13.112 89.612 12.56 89.852C12.008 90.092 11.336 90.212 10.544 90.212H8.618V95H6.872V81.986H10.346ZM10.526 88.538C11.042 88.538 11.468 88.454 11.804 88.286C12.14 88.118 12.404 87.908 12.596 87.656C12.788 87.392 12.926 87.116 13.01 86.828C13.094 86.54 13.136 86.282 13.136 86.054C13.136 85.79 13.094 85.52 13.01 85.244C12.926 84.956 12.782 84.698 12.578 84.47C12.386 84.23 12.128 84.038 11.804 83.894C11.492 83.738 11.102 83.66 10.634 83.66H8.618V88.538H10.526ZM16.5151 91.202C16.5151 90.458 16.6891 89.786 17.0371 89.186C17.3971 88.586 17.8891 88.112 18.5131 87.764C19.1371 87.416 19.8451 87.242 20.6371 87.242C21.4531 87.242 22.1671 87.416 22.7791 87.764C23.3911 88.112 23.8651 88.586 24.2011 89.186C24.5371 89.786 24.7051 90.458 24.7051 91.202C24.7051 91.946 24.5371 92.624 24.2011 93.236C23.8651 93.836 23.3851 94.31 22.7611 94.658C22.1491 95.006 21.4351 95.18 20.6191 95.18C19.8271 95.18 19.1191 95.018 18.4951 94.694C17.8831 94.358 17.3971 93.896 17.0371 93.308C16.6891 92.708 16.5151 92.006 16.5151 91.202ZM18.1891 91.22C18.1891 91.7 18.2971 92.138 18.5131 92.534C18.7291 92.918 19.0171 93.224 19.3771 93.452C19.7491 93.68 20.1571 93.794 20.6011 93.794C21.0691 93.794 21.4831 93.68 21.8431 93.452C22.2151 93.224 22.5031 92.918 22.7071 92.534C22.9111 92.138 23.0131 91.7 23.0131 91.22C23.0131 90.74 22.9111 90.308 22.7071 89.924C22.5031 89.528 22.2151 89.216 21.8431 88.988C21.4831 88.748 21.0691 88.628 20.6011 88.628C20.1451 88.628 19.7311 88.748 19.3591 88.988C18.9991 89.228 18.7111 89.546 18.4951 89.942C18.2911 90.326 18.1891 90.752 18.1891 91.22ZM29.0597 95.144C28.5317 95.144 28.0157 95.054 27.5117 94.874C27.0197 94.682 26.6117 94.4 26.2877 94.028L26.9897 93.056C27.3017 93.356 27.6197 93.584 27.9437 93.74C28.2797 93.884 28.6097 93.956 28.9337 93.956C29.1737 93.956 29.3957 93.926 29.5997 93.866C29.8037 93.806 29.9657 93.71 30.0857 93.578C30.2177 93.434 30.2837 93.242 30.2837 93.002C30.2837 92.738 30.1937 92.528 30.0137 92.372C29.8457 92.216 29.6237 92.09 29.3477 91.994C29.0837 91.898 28.8017 91.808 28.5017 91.724C27.8897 91.52 27.4217 91.238 27.0977 90.878C26.7737 90.518 26.6117 90.08 26.6117 89.564C26.6117 89.168 26.7077 88.802 26.8997 88.466C27.1037 88.118 27.3977 87.836 27.7817 87.62C28.1777 87.404 28.6637 87.296 29.2397 87.296C29.7557 87.296 30.2177 87.362 30.6257 87.494C31.0337 87.614 31.4177 87.818 31.7777 88.106L31.1117 89.15C30.8957 88.922 30.6377 88.754 30.3377 88.646C30.0377 88.538 29.7677 88.478 29.5277 88.466C29.3237 88.454 29.1257 88.484 28.9337 88.556C28.7537 88.628 28.6037 88.73 28.4837 88.862C28.3637 88.994 28.3037 89.15 28.3037 89.33C28.3037 89.582 28.3877 89.786 28.5557 89.942C28.7237 90.098 28.9397 90.224 29.2037 90.32C29.4797 90.404 29.7497 90.494 30.0137 90.59C30.3857 90.698 30.7157 90.842 31.0037 91.022C31.2917 91.202 31.5197 91.424 31.6877 91.688C31.8677 91.952 31.9577 92.282 31.9577 92.678C31.9577 93.122 31.8497 93.536 31.6337 93.92C31.4297 94.292 31.1117 94.592 30.6797 94.82C30.2597 95.036 29.7197 95.144 29.0597 95.144ZM35.0218 84.272H36.6958V87.584H38.7478V88.898H36.6958V95H35.0218V88.898H33.6538V87.584H35.0218V84.272ZM42.2645 87.548L42.4085 89.222L42.3365 89.078C42.6125 88.514 43.0025 88.07 43.5065 87.746C44.0225 87.422 44.6105 87.26 45.2705 87.26C45.6905 87.26 46.0625 87.326 46.3865 87.458C46.7105 87.59 46.9745 87.782 47.1785 88.034C47.3945 88.274 47.5325 88.574 47.5925 88.934L47.5025 88.988C47.7905 88.448 48.1865 88.028 48.6905 87.728C49.2065 87.416 49.7465 87.26 50.3105 87.26C51.0425 87.26 51.6185 87.47 52.0385 87.89C52.4705 88.298 52.6925 88.832 52.7045 89.492V95H51.0305V90.086C51.0185 89.702 50.9225 89.384 50.7425 89.132C50.5745 88.868 50.2745 88.724 49.8425 88.7C49.4105 88.7 49.0205 88.832 48.6725 89.096C48.3365 89.36 48.0725 89.702 47.8805 90.122C47.6885 90.53 47.5865 90.974 47.5745 91.454V95H45.9005V90.086C45.8885 89.702 45.7865 89.384 45.5945 89.132C45.4145 88.868 45.1085 88.724 44.6765 88.7C44.2325 88.7 43.8425 88.832 43.5065 89.096C43.1705 89.36 42.9065 89.702 42.7145 90.122C42.5345 90.542 42.4445 90.992 42.4445 91.472V95H40.7705V87.548H42.2645ZM58.72 95.18C58.024 95.18 57.388 95.03 56.812 94.73C56.248 94.43 55.798 93.992 55.462 93.416C55.138 92.828 54.976 92.114 54.976 91.274C54.976 90.446 55.15 89.732 55.498 89.132C55.846 88.52 56.308 88.052 56.884 87.728C57.472 87.404 58.114 87.242 58.81 87.242C59.506 87.242 60.094 87.404 60.574 87.728C61.054 88.04 61.42 88.412 61.672 88.844L61.564 89.132L61.726 87.548H63.274V95H61.6V93.056L61.78 93.488C61.732 93.608 61.624 93.764 61.456 93.956C61.3 94.136 61.084 94.322 60.808 94.514C60.544 94.706 60.238 94.868 59.89 95C59.542 95.12 59.152 95.18 58.72 95.18ZM59.17 93.794C59.59 93.794 59.968 93.716 60.304 93.56C60.64 93.404 60.916 93.188 61.132 92.912C61.36 92.624 61.516 92.282 61.6 91.886V90.428C61.504 90.068 61.336 89.756 61.096 89.492C60.856 89.216 60.568 89.006 60.232 88.862C59.896 88.706 59.524 88.628 59.116 88.628C58.672 88.628 58.264 88.736 57.892 88.952C57.52 89.168 57.22 89.468 56.992 89.852C56.776 90.236 56.668 90.686 56.668 91.202C56.668 91.682 56.782 92.12 57.01 92.516C57.238 92.912 57.544 93.224 57.928 93.452C58.312 93.68 58.726 93.794 59.17 93.794ZM67.6649 87.548L67.8089 89.366L67.7369 89.078C67.9769 88.526 68.3669 88.088 68.9069 87.764C69.4469 87.428 70.0709 87.26 70.7789 87.26C71.4869 87.26 72.0629 87.47 72.5069 87.89C72.9629 88.298 73.1969 88.832 73.2089 89.492V95H71.5169V90.086C71.5049 89.678 71.3849 89.348 71.1569 89.096C70.9409 88.832 70.5989 88.7 70.1309 88.7C69.6989 88.7 69.3089 88.82 68.9609 89.06C68.6129 89.3 68.3369 89.63 68.1329 90.05C67.9409 90.47 67.8449 90.956 67.8449 91.508V95H66.1709V87.548H67.6649Z" fill="#6DBFB8"/>
</svg>
