<svg width="80" height="105" viewBox="0 0 80 105" fill="none" xmlns="http://www.w3.org/2000/svg">
<path fill-rule="evenodd" clip-rule="evenodd" d="M21.8059 17.4154C21.0263 18.1446 20.898 18.6568 20.898 18.9267C20.898 19.1966 21.0263 19.7089 21.8059 20.4381C22.5895 21.171 23.8564 21.9439 25.6262 22.6442C29.1517 24.0389 34.1894 24.9554 39.8778 24.9554C45.5662 24.9554 50.6038 24.0389 54.1292 22.6442C55.8991 21.9439 57.1659 21.171 57.9496 20.4381C58.7292 19.7089 58.8575 19.1966 58.8575 18.9267C58.8575 18.6568 58.7292 18.1446 57.9496 17.4154C57.1659 16.6824 55.8991 15.9095 54.1292 15.2093C50.6038 13.8146 45.5662 12.898 39.8778 12.898C34.1894 12.898 29.1517 13.8146 25.6262 15.2093C23.8564 15.9095 22.5895 16.6824 21.8059 17.4154ZM23.8244 10.6548C28.0546 8.98121 33.7314 8 39.8778 8C46.0242 8 51.7008 8.98121 55.9311 10.6548C58.039 11.4888 59.9104 12.5427 61.2954 13.8383C62.6846 15.1376 63.7555 16.8556 63.7555 18.9267C63.7555 20.9979 62.6846 22.7158 61.2954 24.0152C59.9104 25.3107 58.039 26.3647 55.9311 27.1986C51.7008 28.8722 46.0242 29.8534 39.8778 29.8534C33.7314 29.8534 28.0546 28.8722 23.8244 27.1986C21.7164 26.3647 19.8451 25.3107 18.4601 24.0152C17.0709 22.7158 16 20.9979 16 18.9267C16 16.8556 17.0709 15.1376 18.4601 13.8383C19.8451 12.5427 21.7164 11.4888 23.8244 10.6548Z" fill="#6DBFB8"/>
<path fill-rule="evenodd" clip-rule="evenodd" d="M18.449 16.4783C19.8015 16.4783 20.898 17.5742 20.898 18.9268V31.6439C20.898 31.914 21.0264 32.4263 21.8059 33.1554C22.5895 33.8884 23.8563 34.6612 25.6262 35.3614C29.1515 36.7561 34.1892 37.6726 39.8778 37.6726C45.5663 37.6726 50.604 36.7561 54.1294 35.3614C55.8992 34.6612 57.166 33.8884 57.9496 33.1554C58.7291 32.4263 58.8575 31.914 58.8575 31.6439V18.9268C58.8575 17.5742 59.9539 16.4783 61.3065 16.4783C62.659 16.4783 63.7555 17.5742 63.7555 18.9268V31.6439C63.7555 33.7151 62.6846 35.4331 61.2955 36.7324C59.9104 38.028 58.0391 39.082 55.9312 39.916C51.7009 41.5895 46.0242 42.5706 39.8778 42.5706C33.7313 42.5706 28.0546 41.5895 23.8243 39.916C21.7164 39.082 19.845 38.028 18.46 36.7324C17.0708 35.4331 16 33.7151 16 31.6439V18.9268C16 17.5742 17.0965 16.4783 18.449 16.4783Z" fill="#6DBFB8"/>
<path fill-rule="evenodd" clip-rule="evenodd" d="M18.449 29.1948C19.8015 29.1948 20.898 30.2913 20.898 31.6439V44.3604C20.898 44.6305 21.0264 45.1428 21.8059 45.872C22.5895 46.605 23.8563 47.3778 25.6262 48.078C29.1515 49.4727 34.1892 50.3891 39.8778 50.3891C45.5663 50.3891 50.604 49.4727 54.1294 48.078C55.8992 47.3778 57.166 46.605 57.9496 45.872C58.7291 45.1428 58.8575 44.6305 58.8575 44.3604V31.6439C58.8575 30.2913 59.9539 29.1948 61.3065 29.1948C62.659 29.1948 63.7555 30.2913 63.7555 31.6439V44.3604C63.7555 46.4316 62.6846 48.1496 61.2955 49.4491C59.9104 50.7447 58.0391 51.7986 55.9312 52.6325C51.7009 54.3061 46.0242 55.2871 39.8778 55.2871C33.7313 55.2871 28.0546 54.3061 23.8243 52.6325C21.7164 51.7986 19.845 50.7447 18.46 49.4491C17.0708 48.1496 16 46.4316 16 44.3604V31.6439C16 30.2913 17.0965 29.1948 18.449 29.1948Z" fill="#6DBFB8"/>
<path fill-rule="evenodd" clip-rule="evenodd" d="M18.449 41.9077C19.8015 41.9077 20.898 43.0042 20.898 44.3567V57.0733C20.898 57.3434 21.0264 57.8557 21.8059 58.5849C22.5895 59.3179 23.8563 60.0907 25.6262 60.7908C29.1515 62.1856 34.1892 63.102 39.8778 63.102C45.5663 63.102 50.604 62.1856 54.1294 60.7908C55.8992 60.0907 57.166 59.3179 57.9496 58.5849C58.7291 57.8557 58.8575 57.3434 58.8575 57.0733V44.3567C58.8575 43.0042 59.9539 41.9077 61.3065 41.9077C62.659 41.9077 63.7555 43.0042 63.7555 44.3567V57.0733C63.7555 59.1445 62.6846 60.8625 61.2955 62.1619C59.9104 63.4575 58.0391 64.5115 55.9312 65.3454C51.7009 67.0189 46.0242 68 39.8778 68C33.7313 68 28.0546 67.0189 23.8243 65.3454C21.7164 64.5115 19.845 63.4575 18.46 62.1619C17.0708 60.8625 16 59.1445 16 57.0733V44.3567C16 43.0042 17.0965 41.9077 18.449 41.9077Z" fill="#6DBFB8"/>
<path d="M29.604 88.308C29.16 88.08 28.674 87.882 28.146 87.714C27.618 87.546 27.102 87.462 26.598 87.462C25.902 87.462 25.344 87.624 24.924 87.948C24.516 88.272 24.312 88.704 24.312 89.244C24.312 89.652 24.444 90 24.708 90.288C24.972 90.564 25.32 90.804 25.752 91.008C26.184 91.212 26.634 91.404 27.102 91.584C27.51 91.74 27.912 91.914 28.308 92.106C28.704 92.298 29.058 92.538 29.37 92.826C29.694 93.114 29.946 93.468 30.126 93.888C30.318 94.308 30.414 94.83 30.414 95.454C30.414 96.138 30.24 96.762 29.892 97.326C29.556 97.89 29.07 98.334 28.434 98.658C27.798 98.982 27.042 99.144 26.166 99.144C25.59 99.144 25.038 99.078 24.51 98.946C23.994 98.814 23.514 98.646 23.07 98.442C22.626 98.226 22.23 98.004 21.882 97.776L22.656 96.408C22.944 96.612 23.274 96.81 23.646 97.002C24.018 97.182 24.408 97.332 24.816 97.452C25.224 97.56 25.62 97.614 26.004 97.614C26.412 97.614 26.814 97.542 27.21 97.398C27.618 97.242 27.954 97.008 28.218 96.696C28.482 96.384 28.614 95.97 28.614 95.454C28.614 95.01 28.494 94.644 28.254 94.356C28.026 94.056 27.72 93.804 27.336 93.6C26.952 93.384 26.544 93.192 26.112 93.024C25.704 92.868 25.29 92.7 24.87 92.52C24.45 92.328 24.06 92.1 23.7 91.836C23.34 91.56 23.052 91.224 22.836 90.828C22.62 90.432 22.512 89.952 22.512 89.388C22.512 88.704 22.674 88.11 22.998 87.606C23.334 87.09 23.79 86.688 24.366 86.4C24.942 86.1 25.602 85.938 26.346 85.914C27.186 85.914 27.924 86.016 28.56 86.22C29.208 86.424 29.778 86.676 30.27 86.976L29.604 88.308ZM41.9166 97.308H46.3806V99H39.5946L41.9166 97.308ZM32.5386 92.502C32.5386 91.602 32.7066 90.756 33.0426 89.964C33.3906 89.16 33.8706 88.452 34.4826 87.84C35.0946 87.216 35.7966 86.73 36.5886 86.382C37.3926 86.022 38.2566 85.842 39.1806 85.842C40.0926 85.842 40.9446 86.022 41.7366 86.382C42.5406 86.73 43.2486 87.216 43.8606 87.84C44.4846 88.452 44.9706 89.16 45.3186 89.964C45.6666 90.756 45.8406 91.602 45.8406 92.502C45.8406 93.426 45.6666 94.29 45.3186 95.094C44.9706 95.898 44.4846 96.606 43.8606 97.218C43.2486 97.818 42.5406 98.292 41.7366 98.64C40.9446 98.976 40.0926 99.144 39.1806 99.144C38.2566 99.144 37.3926 98.976 36.5886 98.64C35.7966 98.304 35.0946 97.836 34.4826 97.236C33.8706 96.636 33.3906 95.934 33.0426 95.13C32.7066 94.326 32.5386 93.45 32.5386 92.502ZM34.3386 92.52C34.3386 93.204 34.4646 93.846 34.7166 94.446C34.9686 95.034 35.3166 95.556 35.7606 96.012C36.2046 96.468 36.7206 96.822 37.3086 97.074C37.8966 97.326 38.5326 97.452 39.2166 97.452C39.8886 97.452 40.5186 97.326 41.1066 97.074C41.6946 96.822 42.2046 96.468 42.6366 96.012C43.0686 95.556 43.4106 95.034 43.6626 94.446C43.9146 93.846 44.0406 93.198 44.0406 92.502C44.0406 91.83 43.9146 91.194 43.6626 90.594C43.4106 89.994 43.0626 89.472 42.6186 89.028C42.1746 88.572 41.6586 88.218 41.0706 87.966C40.4826 87.702 39.8526 87.57 39.1806 87.57C38.4966 87.57 37.8606 87.702 37.2726 87.966C36.6846 88.218 36.1686 88.572 35.7246 89.028C35.2806 89.484 34.9386 90.012 34.6986 90.612C34.4586 91.212 34.3386 91.848 34.3386 92.52ZM49.3095 85.986H51.0555V97.326H57.6615V99H49.3095V85.986Z" fill="#6DBFB8"/>
</svg>
