<svg width="65" height="100" viewBox="0 0 65 100" fill="none" xmlns="http://www.w3.org/2000/svg">
<path fill-rule="evenodd" clip-rule="evenodd" d="M62.7422 23.7639L57.0604 31.7083L51.3786 23.7639H54.4765C54.2403 17.8611 49.3643 13.1389 43.4046 13.1389C38.3758 13.1389 34.111 16.5139 32.7634 21.1111C31.1242 20.5833 29.4294 20.25 27.7068 20.0972C27.9013 19.3611 28.1513 18.625 28.4569 17.9167C29.2766 15.9861 30.4435 14.25 31.9299 12.7639C33.4164 11.2778 35.1528 10.0972 37.0838 9.29167C39.0843 8.43056 41.2097 8 43.4046 8C45.5996 8 47.725 8.43056 49.7254 9.27778C51.6564 10.0972 53.3929 11.2639 54.8793 12.75C56.3658 14.2361 57.5327 15.9722 58.3523 17.9028C59.1442 19.7639 59.5748 21.7361 59.6165 23.7639H62.7422V23.7639Z" fill="#6DBFB8"/>
<path fill-rule="evenodd" clip-rule="evenodd" d="M54.7963 67.9999V64.5832H35.2087C35.3477 64.5138 35.4866 64.4582 35.6255 64.3888C37.751 63.3749 39.7097 62.0554 41.4601 60.4443C41.6963 60.2221 41.9185 60.0138 42.1269 59.8054C42.3631 59.5693 42.6131 59.3193 42.8493 59.0554C43.1271 58.7499 43.405 58.4304 43.655 58.111H54.7963V54.6943L64.1039 61.3471L54.7963 67.9999Z" fill="#6DBFB8"/>
<path fill-rule="evenodd" clip-rule="evenodd" d="M47.5717 43.3195C47.5717 46.2778 46.9882 49.1528 45.8491 51.8611C44.8767 54.1667 43.5153 56.2778 41.8204 58.125C41.5982 58.3611 41.3759 58.5973 41.1536 58.8334C40.9453 59.0417 40.7369 59.2361 40.5285 59.4445C38.8893 60.9584 37.0555 62.1945 35.0551 63.1528C34.7773 63.2917 34.4855 63.4167 34.1938 63.5417C34.1799 63.5417 34.1799 63.5556 34.166 63.5556C32.499 64.2639 30.7069 64.6111 28.8871 64.6111H-0.00805664V58.1528H26.8172C34.9301 58.1528 41.5843 51.6667 41.6954 43.5556C41.6954 43.4861 41.6954 43.4167 41.6954 43.3473C41.6954 34.4861 34.4994 27.2917 25.6364 27.2917C16.7734 27.2639 9.57735 34.4445 9.57735 43.3195H13.3004L6.64616 52.625L-0.00805664 43.3195H3.71497C3.71497 40.3611 4.29843 37.4861 5.43757 34.7778C6.54892 32.1667 8.1187 29.8195 10.133 27.8056C12.1474 25.7917 14.4951 24.2084 17.1068 23.1111C19.8157 21.9722 22.6913 21.3889 25.6503 21.3889C26.2476 21.3889 26.8311 21.4167 27.4145 21.4584C29.1371 21.5972 30.8181 21.9306 32.4573 22.4722C33.0408 22.6667 33.6103 22.875 34.1799 23.125C36.7916 24.2361 39.1393 25.8056 41.1536 27.8195C43.168 29.8334 44.7516 32.1806 45.8491 34.7917C46.9882 37.4861 47.5717 40.3611 47.5717 43.3195Z" fill="#6DBFB8"/>
<path d="M15.1519 83.308C14.7079 83.08 14.2219 82.882 13.6939 82.714C13.1659 82.546 12.6499 82.462 12.1459 82.462C11.4499 82.462 10.8919 82.624 10.4719 82.948C10.0639 83.272 9.85991 83.704 9.85991 84.244C9.85991 84.652 9.99191 85 10.2559 85.288C10.5199 85.564 10.8679 85.804 11.2999 86.008C11.7319 86.212 12.1819 86.404 12.6499 86.584C13.0579 86.74 13.4599 86.914 13.8559 87.106C14.2519 87.298 14.6059 87.538 14.9179 87.826C15.2419 88.114 15.4939 88.468 15.6739 88.888C15.8659 89.308 15.9619 89.83 15.9619 90.454C15.9619 91.138 15.7879 91.762 15.4399 92.326C15.1039 92.89 14.6179 93.334 13.9819 93.658C13.3459 93.982 12.5899 94.144 11.7139 94.144C11.1379 94.144 10.5859 94.078 10.0579 93.946C9.54191 93.814 9.06191 93.646 8.61791 93.442C8.17391 93.226 7.77791 93.004 7.42991 92.776L8.20391 91.408C8.49191 91.612 8.82191 91.81 9.19391 92.002C9.56591 92.182 9.95591 92.332 10.3639 92.452C10.7719 92.56 11.1679 92.614 11.5519 92.614C11.9599 92.614 12.3619 92.542 12.7579 92.398C13.1659 92.242 13.5019 92.008 13.7659 91.696C14.0299 91.384 14.1619 90.97 14.1619 90.454C14.1619 90.01 14.0419 89.644 13.8019 89.356C13.5739 89.056 13.2679 88.804 12.8839 88.6C12.4999 88.384 12.0919 88.192 11.6599 88.024C11.2519 87.868 10.8379 87.7 10.4179 87.52C9.99791 87.328 9.60791 87.1 9.24791 86.836C8.88791 86.56 8.59991 86.224 8.38391 85.828C8.16791 85.432 8.05991 84.952 8.05991 84.388C8.05991 83.704 8.22191 83.11 8.54591 82.606C8.88191 82.09 9.33791 81.688 9.91391 81.4C10.4899 81.1 11.1499 80.938 11.8939 80.914C12.7339 80.914 13.4719 81.016 14.1079 81.22C14.7559 81.424 15.3259 81.676 15.8179 81.976L15.1519 83.308ZM24.5305 93.316C24.1945 93.58 23.7925 93.79 23.3245 93.946C22.8565 94.102 22.3885 94.18 21.9205 94.18C21.1045 94.18 20.3905 94.018 19.7785 93.694C19.1665 93.37 18.6865 92.92 18.3385 92.344C18.0025 91.756 17.8345 91.066 17.8345 90.274C17.8345 89.482 18.0145 88.792 18.3745 88.204C18.7465 87.616 19.2265 87.166 19.8145 86.854C20.4145 86.53 21.0565 86.368 21.7405 86.368C22.3405 86.368 22.8745 86.452 23.3425 86.62C23.8225 86.788 24.2305 87.016 24.5665 87.304L23.7385 88.384C23.5225 88.216 23.2585 88.066 22.9465 87.934C22.6345 87.802 22.2805 87.736 21.8845 87.736C21.4525 87.736 21.0505 87.85 20.6785 88.078C20.3185 88.294 20.0305 88.594 19.8145 88.978C19.6105 89.362 19.5085 89.794 19.5085 90.274C19.5085 90.73 19.6165 91.156 19.8325 91.552C20.0485 91.936 20.3485 92.242 20.7325 92.47C21.1165 92.686 21.5545 92.794 22.0465 92.794C22.3705 92.794 22.6645 92.746 22.9285 92.65C23.2045 92.554 23.4505 92.422 23.6665 92.254L24.5305 93.316ZM28.1855 86.548L28.3475 88.708L28.2575 88.42C28.4495 87.964 28.7255 87.58 29.0855 87.268C29.4575 86.944 29.8415 86.698 30.2375 86.53C30.6455 86.35 30.9995 86.26 31.2995 86.26L31.2095 87.916C30.6455 87.88 30.1475 87.988 29.7155 88.24C29.2955 88.492 28.9595 88.828 28.7075 89.248C28.4675 89.668 28.3475 90.118 28.3475 90.598V94H26.6915V86.548H28.1855ZM35.817 94.288C35.145 94.288 34.587 94.084 34.143 93.676C33.711 93.256 33.483 92.716 33.459 92.056V86.548H35.133V91.462C35.157 91.87 35.271 92.2 35.475 92.452C35.691 92.704 36.027 92.836 36.483 92.848C36.903 92.848 37.275 92.728 37.599 92.488C37.935 92.236 38.205 91.9 38.409 91.48C38.613 91.048 38.715 90.562 38.715 90.022V86.548H40.389V94H38.859L38.715 92.164L38.805 92.488C38.661 92.836 38.439 93.148 38.139 93.424C37.851 93.688 37.509 93.898 37.113 94.054C36.717 94.21 36.285 94.288 35.817 94.288ZM44.7792 86.548L44.9232 88.222L44.8512 88.078C45.1272 87.514 45.5172 87.07 46.0212 86.746C46.5372 86.422 47.1252 86.26 47.7852 86.26C48.2052 86.26 48.5772 86.326 48.9012 86.458C49.2252 86.59 49.4892 86.782 49.6932 87.034C49.9092 87.274 50.0472 87.574 50.1072 87.934L50.0172 87.988C50.3052 87.448 50.7012 87.028 51.2052 86.728C51.7212 86.416 52.2612 86.26 52.8252 86.26C53.5572 86.26 54.1332 86.47 54.5532 86.89C54.9852 87.298 55.2072 87.832 55.2192 88.492V94H53.5452V89.086C53.5332 88.702 53.4372 88.384 53.2572 88.132C53.0892 87.868 52.7892 87.724 52.3572 87.7C51.9252 87.7 51.5352 87.832 51.1872 88.096C50.8512 88.36 50.5872 88.702 50.3952 89.122C50.2032 89.53 50.1012 89.974 50.0892 90.454V94H48.4152V89.086C48.4032 88.702 48.3012 88.384 48.1092 88.132C47.9292 87.868 47.6232 87.724 47.1912 87.7C46.7472 87.7 46.3572 87.832 46.0212 88.096C45.6852 88.36 45.4212 88.702 45.2292 89.122C45.0492 89.542 44.9592 89.992 44.9592 90.472V94H43.2852V86.548H44.7792Z" fill="#6DBFB8"/>
</svg>
