<svg width="81" height="101" viewBox="0 0 81 101" fill="none" xmlns="http://www.w3.org/2000/svg">
<path d="M69.848 34.8012L68.5496 34.7496C54.362 34.1904 42.8096 22.6392 42.2504 8.4516L42.1988 7.152C42.1736 6.5088 41.6444 6 41 6C40.3556 6 39.8264 6.5088 39.8012 7.152L39.7496 8.4516C39.1904 22.6392 27.6392 34.1904 13.4504 34.7496L12.152 34.8012C11.5088 34.8264 11 35.3556 11 36C11 36.6444 11.5088 37.1736 12.1532 37.1988L13.4516 37.2492C27.6392 37.8096 39.1904 49.3608 39.7496 63.5484L39.8012 64.848C39.8264 65.4912 40.3556 66 41 66C41.6444 66 42.1736 65.4912 42.1988 64.848L42.2504 63.5484C42.8096 49.3608 54.3608 37.8096 68.5484 37.2492L69.8468 37.1988C70.4912 37.1736 71 36.6444 71 36C71 35.3556 70.4912 34.8264 69.848 34.8012Z" fill="#6DBFB8"/>
<path d="M12.06 93.884C11.88 94.04 11.628 94.196 11.304 94.352C10.98 94.496 10.62 94.628 10.224 94.748C9.84 94.868 9.438 94.964 9.018 95.036C8.61 95.108 8.226 95.144 7.866 95.144C6.822 95.144 5.88 94.982 5.04 94.658C4.212 94.334 3.498 93.884 2.898 93.308C2.31 92.732 1.854 92.054 1.53 91.274C1.218 90.494 1.062 89.648 1.062 88.736C1.062 87.656 1.236 86.69 1.584 85.838C1.944 84.974 2.43 84.248 3.042 83.66C3.666 83.06 4.38 82.61 5.184 82.31C5.988 81.998 6.84 81.842 7.74 81.842C8.496 81.842 9.198 81.932 9.846 82.112C10.494 82.292 11.064 82.52 11.556 82.796L10.962 84.398C10.722 84.254 10.422 84.122 10.062 84.002C9.714 83.882 9.354 83.786 8.982 83.714C8.61 83.63 8.262 83.588 7.938 83.588C7.17 83.588 6.474 83.708 5.85 83.948C5.226 84.176 4.692 84.512 4.248 84.956C3.804 85.388 3.462 85.916 3.222 86.54C2.982 87.152 2.862 87.842 2.862 88.61C2.862 89.318 2.982 89.966 3.222 90.554C3.462 91.142 3.804 91.652 4.248 92.084C4.692 92.504 5.22 92.834 5.832 93.074C6.456 93.302 7.14 93.416 7.884 93.416C8.328 93.416 8.766 93.374 9.198 93.29C9.63 93.194 10.002 93.062 10.314 92.894V90.302H7.722V88.628H12.06V93.884ZM18.4316 95.18C17.5796 95.18 16.8476 95.012 16.2356 94.676C15.6236 94.328 15.1496 93.86 14.8136 93.272C14.4896 92.672 14.3276 91.988 14.3276 91.22C14.3276 90.488 14.5136 89.822 14.8856 89.222C15.2576 88.622 15.7556 88.142 16.3796 87.782C17.0036 87.422 17.6996 87.242 18.4676 87.242C19.4516 87.242 20.2676 87.53 20.9156 88.106C21.5636 88.682 22.0016 89.474 22.2296 90.482L16.0916 92.642L15.6956 91.652L20.7356 89.816L20.3756 90.05C20.2316 89.654 19.9916 89.312 19.6556 89.024C19.3196 88.724 18.8816 88.574 18.3416 88.574C17.8856 88.574 17.4776 88.688 17.1176 88.916C16.7576 89.132 16.4756 89.432 16.2716 89.816C16.0676 90.2 15.9656 90.638 15.9656 91.13C15.9656 91.646 16.0736 92.102 16.2896 92.498C16.5056 92.882 16.7996 93.188 17.1716 93.416C17.5556 93.632 17.9876 93.74 18.4676 93.74C18.7916 93.74 19.1036 93.68 19.4036 93.56C19.7156 93.44 20.0036 93.284 20.2676 93.092L21.0416 94.334C20.6696 94.586 20.2496 94.79 19.7816 94.946C19.3256 95.102 18.8756 95.18 18.4316 95.18ZM25.8211 87.548L25.9651 89.222L25.8931 89.078C26.1691 88.514 26.5591 88.07 27.0631 87.746C27.5791 87.422 28.1671 87.26 28.8271 87.26C29.2471 87.26 29.6191 87.326 29.9431 87.458C30.2671 87.59 30.5311 87.782 30.7351 88.034C30.9511 88.274 31.0891 88.574 31.1491 88.934L31.0591 88.988C31.3471 88.448 31.7431 88.028 32.2471 87.728C32.7631 87.416 33.3031 87.26 33.8671 87.26C34.5991 87.26 35.1751 87.47 35.5951 87.89C36.0271 88.298 36.2491 88.832 36.2611 89.492V95H34.5871V90.086C34.5751 89.702 34.4791 89.384 34.2991 89.132C34.1311 88.868 33.8311 88.724 33.3991 88.7C32.9671 88.7 32.5771 88.832 32.2291 89.096C31.8931 89.36 31.6291 89.702 31.4371 90.122C31.2451 90.53 31.1431 90.974 31.1311 91.454V95H29.4571V90.086C29.4451 89.702 29.3431 89.384 29.1511 89.132C28.9711 88.868 28.6651 88.724 28.2331 88.7C27.7891 88.7 27.3991 88.832 27.0631 89.096C26.7271 89.36 26.4631 89.702 26.2711 90.122C26.0911 90.542 26.0011 90.992 26.0011 91.472V95H24.3271V87.548H25.8211ZM39.1807 87.548H40.8547V95H39.1807V87.548ZM39.0547 84.848C39.0547 84.584 39.1567 84.362 39.3607 84.182C39.5767 84.002 39.8107 83.912 40.0627 83.912C40.3147 83.912 40.5367 84.002 40.7287 84.182C40.9327 84.362 41.0347 84.584 41.0347 84.848C41.0347 85.124 40.9327 85.352 40.7287 85.532C40.5367 85.7 40.3147 85.784 40.0627 85.784C39.8107 85.784 39.5767 85.694 39.3607 85.514C39.1567 85.334 39.0547 85.112 39.0547 84.848ZM45.245 87.548L45.389 89.366L45.317 89.078C45.557 88.526 45.947 88.088 46.487 87.764C47.027 87.428 47.651 87.26 48.359 87.26C49.067 87.26 49.643 87.47 50.087 87.89C50.543 88.298 50.777 88.832 50.789 89.492V95H49.097V90.086C49.085 89.678 48.965 89.348 48.737 89.096C48.521 88.832 48.179 88.7 47.711 88.7C47.279 88.7 46.889 88.82 46.541 89.06C46.193 89.3 45.917 89.63 45.713 90.05C45.521 90.47 45.425 90.956 45.425 91.508V95H43.751V87.548H45.245ZM53.7002 87.548H55.3742V95H53.7002V87.548ZM53.5742 84.848C53.5742 84.584 53.6762 84.362 53.8802 84.182C54.0962 84.002 54.3302 83.912 54.5822 83.912C54.8342 83.912 55.0562 84.002 55.2482 84.182C55.4522 84.362 55.5542 84.584 55.5542 84.848C55.5542 85.124 55.4522 85.352 55.2482 85.532C55.0562 85.7 54.8342 85.784 54.5822 85.784C54.3302 85.784 54.0962 85.694 53.8802 85.514C53.6762 85.334 53.5742 85.112 53.5742 84.848ZM57.7665 90.392H61.1325V91.868H57.7665V90.392ZM62.8553 95L68.5433 81.446H68.6513L74.3213 95H72.3233L68.0753 84.182L69.3173 83.372L64.5653 95H62.8553ZM66.1853 90.068H71.0273L71.6033 91.58H65.6813L66.1853 90.068ZM76.7724 81.986H78.5184V95H76.7724V81.986Z" fill="#6DBFB8"/>
</svg>
