<svg width="85" height="100" viewBox="0 0 85 100" fill="none" xmlns="http://www.w3.org/2000/svg">
<path d="M72.4181 12.7749C71.9816 10.4829 70.2081 8.62756 67.9434 8.13643C67.8342 8.10914 67.7251 8.10914 67.5887 8.08186C67.5614 8.08186 67.5341 8.02729 67.5068 8H17.4659C17.4386 8.02729 17.4113 8.08186 17.3568 8.08186C15.0921 8.46385 13.1821 10.2647 12.6637 12.5566C12.6364 12.6385 12.5819 12.7476 12.5273 12.8568V63.0341C12.5546 63.0887 12.6091 63.116 12.6091 63.1705C13.1548 65.6808 14.6828 67.236 17.1658 67.8636C17.2476 67.8909 17.3022 67.9454 17.3568 68H67.5887C67.6432 67.9727 67.6705 67.9181 67.7251 67.8909C70.2081 67.3179 71.736 65.8172 72.3636 63.3342C72.3909 63.2524 72.3636 63.1433 72.3909 63.0614C72.3909 63.0341 72.4454 63.0068 72.4727 62.9795V12.9386C72.4727 12.884 72.4181 12.8568 72.4181 12.7749ZM47.3158 41.2606H47.0157C44.751 41.2606 42.4591 41.2606 40.1944 41.2606C40.0853 41.2606 39.9761 41.2606 39.867 41.2606C39.867 41.2879 39.8397 41.2879 39.8397 41.3151C39.8397 41.4243 39.8397 41.5334 39.8397 41.6426V62.6794H33.8643V41.2879H26.3608V36.513H47.2885V41.2606H47.3158ZM67.4523 55.5307C67.3977 56.4584 67.2613 57.3588 66.8793 58.2319C66.7701 58.5048 66.6883 58.7503 66.5518 59.0232C66.0607 60.06 65.2422 60.7967 64.2872 61.397C63.1958 62.0791 61.9952 62.4611 60.7401 62.7067C59.3486 62.9795 57.957 63.0614 56.5382 63.0068C55.8561 62.9795 55.1739 62.9795 54.4918 62.8977C52.882 62.7067 51.2995 62.352 49.8261 61.6426C49.7442 61.6153 49.6351 61.4789 49.6351 61.397C49.6351 59.6235 49.6351 57.8499 49.6351 56.0764C49.6351 56.0491 49.6351 56.0218 49.6351 55.9673C50.0716 56.2674 50.5082 56.5675 50.9447 56.8131C52.0089 57.4407 53.1821 57.8772 54.3827 58.1501C55.4195 58.3956 56.4563 58.4229 57.4932 58.3684C58.2845 58.3411 59.0757 58.1501 59.7851 57.7954C60.4127 57.4679 60.9311 57.0314 61.0675 56.2947C61.204 55.6398 61.1494 54.985 60.7674 54.412C60.2217 53.5935 59.4577 53.075 58.6119 52.6385C57.6569 52.1746 56.7019 51.7654 55.7196 51.3288C54.2735 50.6739 52.8547 49.9645 51.6814 48.8731C50.7265 47.9727 50.0171 46.9086 49.6896 45.6262C49.4986 44.8622 49.4441 44.0982 49.4713 43.3342C49.4986 41.4516 50.1808 39.8417 51.5177 38.5048C52.6091 37.4134 53.9461 36.7585 55.4195 36.3765C56.4291 36.131 57.4386 35.94 58.4754 35.9127C59.2121 35.9127 59.9488 35.8308 60.6583 35.8581C61.7769 35.8854 62.8684 35.94 63.9598 36.2128C64.6692 36.4038 65.4059 36.5948 66.1153 36.7585C66.2517 36.7858 66.3063 36.8677 66.3063 37.0314C66.3063 38.7231 66.3063 40.442 66.3063 42.1337C66.3063 42.1883 66.3063 42.2428 66.279 42.3247C66.0607 42.1883 65.8697 42.0791 65.6787 41.97C64.8056 41.4789 63.8779 41.1514 62.9229 40.9059C61.8588 40.6603 60.7947 40.4966 59.7033 40.5239C58.9666 40.5512 58.2026 40.6603 57.5205 40.9059C56.6746 41.206 55.9925 41.6971 55.6924 42.5975C55.4468 43.307 55.6378 43.9072 56.0744 44.4802C56.6201 45.1896 57.3568 45.6808 58.148 46.0628C59.2121 46.5812 60.3035 47.0177 61.3404 47.5089C62.5409 48.0819 63.7415 48.6548 64.751 49.5007C65.6241 50.2374 66.4154 51.0559 66.852 52.1473C67.0975 52.8022 67.3158 53.4843 67.3158 54.221C67.425 54.6576 67.4795 55.0941 67.4523 55.5307Z" fill="#6DBFB8"/>
<path d="M0.918 80.986H9.558V82.66H6.066V94H4.32V82.66H0.918V80.986ZM10.754 97.582L15.668 86.548H17.216L12.41 97.582H10.754ZM12.59 94.054L9.00802 86.548H10.898L13.904 93.208L12.59 94.054ZM23.4105 94.18C22.8465 94.18 22.3005 94.048 21.7725 93.784C21.2565 93.52 20.8545 93.166 20.5665 92.722L20.6745 92.2V97.582H19.0185V86.44H20.4585L20.6925 88.348L20.5125 87.826C20.8725 87.37 21.3285 86.992 21.8805 86.692C22.4325 86.392 23.0505 86.242 23.7345 86.242C24.4305 86.242 25.0545 86.41 25.6065 86.746C26.1705 87.082 26.6145 87.55 26.9385 88.15C27.2625 88.75 27.4245 89.452 27.4245 90.256C27.4245 91.06 27.2505 91.756 26.9025 92.344C26.5545 92.932 26.0745 93.388 25.4625 93.712C24.8625 94.024 24.1785 94.18 23.4105 94.18ZM23.0865 92.848C23.5665 92.848 24.0045 92.74 24.4005 92.524C24.8085 92.296 25.1325 91.99 25.3725 91.606C25.6125 91.21 25.7325 90.766 25.7325 90.274C25.7325 89.77 25.6185 89.326 25.3905 88.942C25.1625 88.546 24.8565 88.234 24.4725 88.006C24.1005 87.778 23.6805 87.664 23.2125 87.664C22.7805 87.664 22.3905 87.748 22.0425 87.916C21.6945 88.084 21.4065 88.318 21.1785 88.618C20.9505 88.906 20.7885 89.242 20.6925 89.626V90.868C20.7525 91.252 20.8965 91.594 21.1245 91.894C21.3525 92.194 21.6345 92.428 21.9705 92.596C22.3185 92.764 22.6905 92.848 23.0865 92.848ZM33.1445 94.18C32.2925 94.18 31.5605 94.012 30.9485 93.676C30.3365 93.328 29.8625 92.86 29.5265 92.272C29.2025 91.672 29.0405 90.988 29.0405 90.22C29.0405 89.488 29.2265 88.822 29.5985 88.222C29.9705 87.622 30.4685 87.142 31.0925 86.782C31.7165 86.422 32.4125 86.242 33.1805 86.242C34.1645 86.242 34.9805 86.53 35.6285 87.106C36.2765 87.682 36.7145 88.474 36.9425 89.482L30.8045 91.642L30.4085 90.652L35.4485 88.816L35.0885 89.05C34.9445 88.654 34.7045 88.312 34.3685 88.024C34.0325 87.724 33.5945 87.574 33.0545 87.574C32.5985 87.574 32.1905 87.688 31.8305 87.916C31.4705 88.132 31.1885 88.432 30.9845 88.816C30.7805 89.2 30.6785 89.638 30.6785 90.13C30.6785 90.646 30.7865 91.102 31.0025 91.498C31.2185 91.882 31.5125 92.188 31.8845 92.416C32.2685 92.632 32.7005 92.74 33.1805 92.74C33.5045 92.74 33.8165 92.68 34.1165 92.56C34.4285 92.44 34.7165 92.284 34.9805 92.092L35.7545 93.334C35.3825 93.586 34.9625 93.79 34.4945 93.946C34.0385 94.102 33.5885 94.18 33.1445 94.18ZM46.186 83.308C45.742 83.08 45.256 82.882 44.728 82.714C44.2 82.546 43.684 82.462 43.18 82.462C42.484 82.462 41.926 82.624 41.506 82.948C41.098 83.272 40.894 83.704 40.894 84.244C40.894 84.652 41.026 85 41.29 85.288C41.554 85.564 41.902 85.804 42.334 86.008C42.766 86.212 43.216 86.404 43.684 86.584C44.092 86.74 44.494 86.914 44.89 87.106C45.286 87.298 45.64 87.538 45.952 87.826C46.276 88.114 46.528 88.468 46.708 88.888C46.9 89.308 46.996 89.83 46.996 90.454C46.996 91.138 46.822 91.762 46.474 92.326C46.138 92.89 45.652 93.334 45.016 93.658C44.38 93.982 43.624 94.144 42.748 94.144C42.172 94.144 41.62 94.078 41.092 93.946C40.576 93.814 40.096 93.646 39.652 93.442C39.208 93.226 38.812 93.004 38.464 92.776L39.238 91.408C39.526 91.612 39.856 91.81 40.228 92.002C40.6 92.182 40.99 92.332 41.398 92.452C41.806 92.56 42.202 92.614 42.586 92.614C42.994 92.614 43.396 92.542 43.792 92.398C44.2 92.242 44.536 92.008 44.8 91.696C45.064 91.384 45.196 90.97 45.196 90.454C45.196 90.01 45.076 89.644 44.836 89.356C44.608 89.056 44.302 88.804 43.918 88.6C43.534 88.384 43.126 88.192 42.694 88.024C42.286 87.868 41.872 87.7 41.452 87.52C41.032 87.328 40.642 87.1 40.282 86.836C39.922 86.56 39.634 86.224 39.418 85.828C39.202 85.432 39.094 84.952 39.094 84.388C39.094 83.704 39.256 83.11 39.58 82.606C39.916 82.09 40.372 81.688 40.948 81.4C41.524 81.1 42.184 80.938 42.928 80.914C43.768 80.914 44.506 81.016 45.142 81.22C45.79 81.424 46.36 81.676 46.852 81.976L46.186 83.308ZM55.5646 93.316C55.2286 93.58 54.8266 93.79 54.3586 93.946C53.8906 94.102 53.4226 94.18 52.9546 94.18C52.1386 94.18 51.4246 94.018 50.8126 93.694C50.2006 93.37 49.7206 92.92 49.3726 92.344C49.0366 91.756 48.8686 91.066 48.8686 90.274C48.8686 89.482 49.0486 88.792 49.4086 88.204C49.7806 87.616 50.2606 87.166 50.8486 86.854C51.4486 86.53 52.0906 86.368 52.7746 86.368C53.3746 86.368 53.9086 86.452 54.3766 86.62C54.8566 86.788 55.2646 87.016 55.6006 87.304L54.7726 88.384C54.5566 88.216 54.2926 88.066 53.9806 87.934C53.6686 87.802 53.3146 87.736 52.9186 87.736C52.4866 87.736 52.0846 87.85 51.7126 88.078C51.3526 88.294 51.0646 88.594 50.8486 88.978C50.6446 89.362 50.5426 89.794 50.5426 90.274C50.5426 90.73 50.6506 91.156 50.8666 91.552C51.0826 91.936 51.3826 92.242 51.7666 92.47C52.1506 92.686 52.5886 92.794 53.0806 92.794C53.4046 92.794 53.6986 92.746 53.9626 92.65C54.2386 92.554 54.4846 92.422 54.7006 92.254L55.5646 93.316ZM59.2196 86.548L59.3816 88.708L59.2916 88.42C59.4836 87.964 59.7596 87.58 60.1196 87.268C60.4916 86.944 60.8756 86.698 61.2716 86.53C61.6796 86.35 62.0336 86.26 62.3336 86.26L62.2436 87.916C61.6796 87.88 61.1816 87.988 60.7496 88.24C60.3296 88.492 59.9936 88.828 59.7416 89.248C59.5016 89.668 59.3816 90.118 59.3816 90.598V94H57.7256V86.548H59.2196ZM64.4932 86.548H66.1672V94H64.4932V86.548ZM64.3672 83.848C64.3672 83.584 64.4692 83.362 64.6732 83.182C64.8892 83.002 65.1232 82.912 65.3752 82.912C65.6272 82.912 65.8492 83.002 66.0412 83.182C66.2452 83.362 66.3472 83.584 66.3472 83.848C66.3472 84.124 66.2452 84.352 66.0412 84.532C65.8492 84.7 65.6272 84.784 65.3752 84.784C65.1232 84.784 64.8892 84.694 64.6732 84.514C64.4692 84.334 64.3672 84.112 64.3672 83.848ZM73.4555 94.18C72.8915 94.18 72.3455 94.048 71.8175 93.784C71.3015 93.52 70.8995 93.166 70.6115 92.722L70.7195 92.2V97.582H69.0635V86.44H70.5035L70.7375 88.348L70.5575 87.826C70.9175 87.37 71.3735 86.992 71.9255 86.692C72.4775 86.392 73.0955 86.242 73.7795 86.242C74.4755 86.242 75.0995 86.41 75.6515 86.746C76.2155 87.082 76.6595 87.55 76.9835 88.15C77.3075 88.75 77.4695 89.452 77.4695 90.256C77.4695 91.06 77.2955 91.756 76.9475 92.344C76.5995 92.932 76.1195 93.388 75.5075 93.712C74.9075 94.024 74.2235 94.18 73.4555 94.18ZM73.1315 92.848C73.6115 92.848 74.0495 92.74 74.4455 92.524C74.8535 92.296 75.1775 91.99 75.4175 91.606C75.6575 91.21 75.7775 90.766 75.7775 90.274C75.7775 89.77 75.6635 89.326 75.4355 88.942C75.2075 88.546 74.9015 88.234 74.5175 88.006C74.1455 87.778 73.7255 87.664 73.2575 87.664C72.8255 87.664 72.4355 87.748 72.0875 87.916C71.7395 88.084 71.4515 88.318 71.2235 88.618C70.9955 88.906 70.8335 89.242 70.7375 89.626V90.868C70.7975 91.252 70.9415 91.594 71.1695 91.894C71.3975 92.194 71.6795 92.428 72.0155 92.596C72.3635 92.764 72.7355 92.848 73.1315 92.848ZM80.4534 83.272H82.1274V86.584H84.1794V87.898H82.1274V94H80.4534V87.898H79.0854V86.584H80.4534V83.272Z" fill="#6DBFB8"/>
</svg>
