<svg width="66" height="100" viewBox="0 0 66 100" fill="none" xmlns="http://www.w3.org/2000/svg">
<path d="M2.808 80.986L7.092 91.75L6.102 91.552L10.17 80.986H12.204L6.462 94.594L0.738 80.986H2.808ZM21.5415 83.308C21.0975 83.08 20.6115 82.882 20.0835 82.714C19.5555 82.546 19.0395 82.462 18.5355 82.462C17.8395 82.462 17.2815 82.624 16.8615 82.948C16.4535 83.272 16.2495 83.704 16.2495 84.244C16.2495 84.652 16.3815 85 16.6455 85.288C16.9095 85.564 17.2575 85.804 17.6895 86.008C18.1215 86.212 18.5715 86.404 19.0395 86.584C19.4475 86.74 19.8495 86.914 20.2455 87.106C20.6415 87.298 20.9955 87.538 21.3075 87.826C21.6315 88.114 21.8835 88.468 22.0635 88.888C22.2555 89.308 22.3515 89.83 22.3515 90.454C22.3515 91.138 22.1775 91.762 21.8295 92.326C21.4935 92.89 21.0075 93.334 20.3715 93.658C19.7355 93.982 18.9795 94.144 18.1035 94.144C17.5275 94.144 16.9755 94.078 16.4475 93.946C15.9315 93.814 15.4515 93.646 15.0075 93.442C14.5635 93.226 14.1675 93.004 13.8195 92.776L14.5935 91.408C14.8815 91.612 15.2115 91.81 15.5835 92.002C15.9555 92.182 16.3455 92.332 16.7535 92.452C17.1615 92.56 17.5575 92.614 17.9415 92.614C18.3495 92.614 18.7515 92.542 19.1475 92.398C19.5555 92.242 19.8915 92.008 20.1555 91.696C20.4195 91.384 20.5515 90.97 20.5515 90.454C20.5515 90.01 20.4315 89.644 20.1915 89.356C19.9635 89.056 19.6575 88.804 19.2735 88.6C18.8895 88.384 18.4815 88.192 18.0495 88.024C17.6415 87.868 17.2275 87.7 16.8075 87.52C16.3875 87.328 15.9975 87.1 15.6375 86.836C15.2775 86.56 14.9895 86.224 14.7735 85.828C14.5575 85.432 14.4495 84.952 14.4495 84.388C14.4495 83.704 14.6115 83.11 14.9355 82.606C15.2715 82.09 15.7275 81.688 16.3035 81.4C16.8795 81.1 17.5395 80.938 18.2835 80.914C19.1235 80.914 19.8615 81.016 20.4975 81.22C21.1455 81.424 21.7155 81.676 22.2075 81.976L21.5415 83.308ZM34.8441 93.028C34.6281 93.172 34.3341 93.334 33.9621 93.514C33.5901 93.694 33.1521 93.844 32.6481 93.964C32.1561 94.084 31.6161 94.144 31.0281 94.144C30.0201 94.132 29.1081 93.952 28.2921 93.604C27.4881 93.256 26.8041 92.782 26.2401 92.182C25.6761 91.582 25.2381 90.892 24.9261 90.112C24.6261 89.32 24.4761 88.48 24.4761 87.592C24.4761 86.62 24.6321 85.726 24.9441 84.91C25.2681 84.082 25.7181 83.368 26.2941 82.768C26.8701 82.156 27.5481 81.682 28.3281 81.346C29.1201 81.01 29.9841 80.842 30.9201 80.842C31.7001 80.842 32.4081 80.95 33.0441 81.166C33.6801 81.37 34.2261 81.616 34.6821 81.904L33.9801 83.524C33.6201 83.284 33.1821 83.056 32.6661 82.84C32.1621 82.624 31.5981 82.516 30.9741 82.516C30.3381 82.516 29.7381 82.642 29.1741 82.894C28.6101 83.146 28.1121 83.5 27.6801 83.956C27.2481 84.412 26.9061 84.946 26.6541 85.558C26.4141 86.158 26.2941 86.806 26.2941 87.502C26.2941 88.21 26.4021 88.87 26.6181 89.482C26.8461 90.082 27.1641 90.604 27.5721 91.048C27.9921 91.492 28.4961 91.84 29.0841 92.092C29.6721 92.344 30.3321 92.47 31.0641 92.47C31.7241 92.47 32.3121 92.368 32.8281 92.164C33.3441 91.96 33.7701 91.732 34.1061 91.48L34.8441 93.028ZM36.7221 90.202C36.7221 89.458 36.8961 88.786 37.2441 88.186C37.6041 87.586 38.0961 87.112 38.7201 86.764C39.3441 86.416 40.0521 86.242 40.8441 86.242C41.6601 86.242 42.3741 86.416 42.9861 86.764C43.5981 87.112 44.0721 87.586 44.4081 88.186C44.7441 88.786 44.9121 89.458 44.9121 90.202C44.9121 90.946 44.7441 91.624 44.4081 92.236C44.0721 92.836 43.5921 93.31 42.9681 93.658C42.3561 94.006 41.6421 94.18 40.8261 94.18C40.0341 94.18 39.3261 94.018 38.7021 93.694C38.0901 93.358 37.6041 92.896 37.2441 92.308C36.8961 91.708 36.7221 91.006 36.7221 90.202ZM38.3961 90.22C38.3961 90.7 38.5041 91.138 38.7201 91.534C38.9361 91.918 39.2241 92.224 39.5841 92.452C39.9561 92.68 40.3641 92.794 40.8081 92.794C41.2761 92.794 41.6901 92.68 42.0501 92.452C42.4221 92.224 42.7101 91.918 42.9141 91.534C43.1181 91.138 43.2201 90.7 43.2201 90.22C43.2201 89.74 43.1181 89.308 42.9141 88.924C42.7101 88.528 42.4221 88.216 42.0501 87.988C41.6901 87.748 41.2761 87.628 40.8081 87.628C40.3521 87.628 39.9381 87.748 39.5661 87.988C39.2061 88.228 38.9181 88.546 38.7021 88.942C38.4981 89.326 38.3961 89.752 38.3961 90.22ZM50.2027 94.18C49.5187 94.18 48.8947 94.018 48.3307 93.694C47.7787 93.358 47.3407 92.89 47.0167 92.29C46.6927 91.678 46.5307 90.976 46.5307 90.184C46.5307 89.356 46.6987 88.648 47.0347 88.06C47.3827 87.472 47.8507 87.022 48.4387 86.71C49.0267 86.398 49.6867 86.242 50.4187 86.242C51.0067 86.242 51.5647 86.368 52.0927 86.62C52.6327 86.872 53.0527 87.22 53.3527 87.664L53.2807 88.258V80.068H54.9367V94H53.2627V92.146L53.4427 92.614C53.0947 93.07 52.6447 93.448 52.0927 93.748C51.5407 94.036 50.9107 94.18 50.2027 94.18ZM50.7247 92.758C51.1687 92.758 51.5647 92.68 51.9127 92.524C52.2607 92.356 52.5487 92.128 52.7767 91.84C53.0047 91.552 53.1667 91.21 53.2627 90.814V89.41C53.1667 89.05 52.9927 88.738 52.7407 88.474C52.5007 88.198 52.2067 87.982 51.8587 87.826C51.5227 87.658 51.1447 87.574 50.7247 87.574C50.2687 87.574 49.8487 87.688 49.4647 87.916C49.0927 88.132 48.7927 88.432 48.5647 88.816C48.3367 89.2 48.2227 89.644 48.2227 90.148C48.2227 90.64 48.3367 91.084 48.5647 91.48C48.7927 91.864 49.0987 92.176 49.4827 92.416C49.8667 92.644 50.2807 92.758 50.7247 92.758ZM61.3046 94.18C60.4526 94.18 59.7206 94.012 59.1086 93.676C58.4966 93.328 58.0226 92.86 57.6866 92.272C57.3626 91.672 57.2006 90.988 57.2006 90.22C57.2006 89.488 57.3866 88.822 57.7586 88.222C58.1306 87.622 58.6286 87.142 59.2526 86.782C59.8766 86.422 60.5726 86.242 61.3406 86.242C62.3246 86.242 63.1406 86.53 63.7886 87.106C64.4366 87.682 64.8746 88.474 65.1026 89.482L58.9646 91.642L58.5686 90.652L63.6086 88.816L63.2486 89.05C63.1046 88.654 62.8646 88.312 62.5286 88.024C62.1926 87.724 61.7546 87.574 61.2146 87.574C60.7586 87.574 60.3506 87.688 59.9906 87.916C59.6306 88.132 59.3486 88.432 59.1446 88.816C58.9406 89.2 58.8386 89.638 58.8386 90.13C58.8386 90.646 58.9466 91.102 59.1626 91.498C59.3786 91.882 59.6726 92.188 60.0446 92.416C60.4286 92.632 60.8606 92.74 61.3406 92.74C61.6646 92.74 61.9766 92.68 62.2766 92.56C62.5886 92.44 62.8766 92.284 63.1406 92.092L63.9146 93.334C63.5426 93.586 63.1226 93.79 62.6546 93.946C62.1986 94.102 61.7486 94.18 61.3046 94.18Z" fill="#6DBFB8"/>
<path d="M57.648 14.3574L48.148 11.1074C47.518 10.8914 46.814 11.0054 46.284 11.4114L24.868 27.8314L14.034 21.2894C13.478 20.9514 12.794 20.9054 12.198 21.1674L8.198 22.9174C7.47 23.2354 7 23.9554 7 24.7494V44.7494C7 45.5434 7.47 46.2634 8.198 46.5814L12.198 48.3314C12.792 48.5934 13.476 48.5454 14.034 48.2094L24.866 41.6674L46.282 58.0874C46.636 58.3594 47.066 58.4994 47.498 58.4994C47.716 58.4994 47.934 58.4634 48.146 58.3914L57.646 55.1414C58.456 54.8654 59 54.1054 59 53.2494V16.2494C59 15.3934 58.456 14.6334 57.648 14.3574ZM15 38.2814V31.2174L20.846 34.7494L15 38.2814ZM47 44.1834L33.076 34.7494L47 25.3154V44.1834Z" fill="#6DBFB8"/>
</svg>
