<svg width="80" height="106" viewBox="0 0 80 106" fill="none" xmlns="http://www.w3.org/2000/svg">
<path d="M16.7588 9V11.2168H26.3585V9H16.7588ZM29.3125 9V11.2168H38.917V9H29.3125ZM41.705 9V11.2168H51.3095V9H41.705ZM54.044 9V11.2168H63.6485V9H54.044ZM16.339 13.7362C16.0318 13.7361 15.7275 13.7964 15.4437 13.9139C15.1598 14.0314 14.9019 14.2036 14.6846 14.4209C14.4674 14.6381 14.2951 14.896 14.1776 15.1799C14.0602 15.4638 13.9998 15.768 14 16.0752C14 17.3678 15.0463 18.419 16.339 18.419H64.1025C65.3953 18.419 66.4415 17.368 66.4415 16.0752C66.4417 15.768 66.3813 15.4638 66.2639 15.1799C66.1464 14.896 65.9741 14.6381 65.7569 14.4209C65.5397 14.2036 65.2817 14.0314 64.9978 13.9139C64.714 13.7964 64.4097 13.7361 64.1025 13.7362H16.339ZM16.759 20.8555V69H26.3582V20.8555H16.759ZM29.3125 20.8555V60.3575H38.917V20.8555H29.3125ZM41.705 20.8555V47.2275H51.3293V20.8555H41.705ZM54.044 20.8555V37.0907H63.6485V20.8555H54.044Z" fill="#6DBFB8"/>
<path d="M20.346 86.986C21.294 86.986 22.104 87.148 22.776 87.472C23.448 87.784 23.964 88.24 24.324 88.84C24.696 89.44 24.882 90.166 24.882 91.018C24.882 91.534 24.804 92.044 24.648 92.548C24.492 93.04 24.24 93.49 23.892 93.898C23.556 94.294 23.112 94.612 22.56 94.852C22.008 95.092 21.336 95.212 20.544 95.212H18.618V100H16.872V86.986H20.346ZM20.526 93.538C21.042 93.538 21.468 93.454 21.804 93.286C22.14 93.118 22.404 92.908 22.596 92.656C22.788 92.392 22.926 92.116 23.01 91.828C23.094 91.54 23.136 91.282 23.136 91.054C23.136 90.79 23.094 90.52 23.01 90.244C22.926 89.956 22.782 89.698 22.578 89.47C22.386 89.23 22.128 89.038 21.804 88.894C21.492 88.738 21.102 88.66 20.634 88.66H18.618V93.538H20.526ZM27.7931 103.582L32.7071 92.548H34.2551L29.4491 103.582H27.7931ZM29.6291 100.054L26.0471 92.548H27.9371L30.9431 99.208L29.6291 100.054ZM36.7776 89.272H38.4516V92.584H40.5036V93.898H38.4516V100H36.7776V93.898H35.4096V92.584H36.7776V89.272ZM45.9824 100.18C45.1304 100.18 44.3984 100.012 43.7864 99.676C43.1744 99.328 42.7004 98.86 42.3644 98.272C42.0404 97.672 41.8784 96.988 41.8784 96.22C41.8784 95.488 42.0644 94.822 42.4364 94.222C42.8084 93.622 43.3064 93.142 43.9304 92.782C44.5544 92.422 45.2504 92.242 46.0184 92.242C47.0024 92.242 47.8184 92.53 48.4664 93.106C49.1144 93.682 49.5524 94.474 49.7804 95.482L43.6424 97.642L43.2464 96.652L48.2864 94.816L47.9264 95.05C47.7824 94.654 47.5424 94.312 47.2064 94.024C46.8704 93.724 46.4324 93.574 45.8924 93.574C45.4364 93.574 45.0284 93.688 44.6684 93.916C44.3084 94.132 44.0264 94.432 43.8224 94.816C43.6184 95.2 43.5164 95.638 43.5164 96.13C43.5164 96.646 43.6244 97.102 43.8404 97.498C44.0564 97.882 44.3504 98.188 44.7224 98.416C45.1064 98.632 45.5384 98.74 46.0184 98.74C46.3424 98.74 46.6544 98.68 46.9544 98.56C47.2664 98.44 47.5544 98.284 47.8184 98.092L48.5924 99.334C48.2204 99.586 47.8004 99.79 47.3324 99.946C46.8764 100.102 46.4264 100.18 45.9824 100.18ZM53.9659 100.144C53.4379 100.144 52.9219 100.054 52.4179 99.874C51.9259 99.682 51.5179 99.4 51.1939 99.028L51.8959 98.056C52.2079 98.356 52.5259 98.584 52.8499 98.74C53.1859 98.884 53.5159 98.956 53.8399 98.956C54.0799 98.956 54.3019 98.926 54.5059 98.866C54.7099 98.806 54.8719 98.71 54.9919 98.578C55.1239 98.434 55.1899 98.242 55.1899 98.002C55.1899 97.738 55.0999 97.528 54.9199 97.372C54.7519 97.216 54.5299 97.09 54.2539 96.994C53.9899 96.898 53.7079 96.808 53.4079 96.724C52.7959 96.52 52.3279 96.238 52.0039 95.878C51.6799 95.518 51.5179 95.08 51.5179 94.564C51.5179 94.168 51.6139 93.802 51.8059 93.466C52.0099 93.118 52.3039 92.836 52.6879 92.62C53.0839 92.404 53.5699 92.296 54.1459 92.296C54.6619 92.296 55.1239 92.362 55.5319 92.494C55.9399 92.614 56.3239 92.818 56.6839 93.106L56.0179 94.15C55.8019 93.922 55.5439 93.754 55.2439 93.646C54.9439 93.538 54.6739 93.478 54.4339 93.466C54.2299 93.454 54.0319 93.484 53.8399 93.556C53.6599 93.628 53.5099 93.73 53.3899 93.862C53.2699 93.994 53.2099 94.15 53.2099 94.33C53.2099 94.582 53.2939 94.786 53.4619 94.942C53.6299 95.098 53.8459 95.224 54.1099 95.32C54.3859 95.404 54.6559 95.494 54.9199 95.59C55.2919 95.698 55.6219 95.842 55.9099 96.022C56.1979 96.202 56.4259 96.424 56.5939 96.688C56.7739 96.952 56.8639 97.282 56.8639 97.678C56.8639 98.122 56.7559 98.536 56.5399 98.92C56.3359 99.292 56.0179 99.592 55.5859 99.82C55.1659 100.036 54.6259 100.144 53.9659 100.144ZM59.928 89.272H61.602V92.584H63.654V93.898H61.602V100H59.928V93.898H58.56V92.584H59.928V89.272Z" fill="#6DBFB8"/>
</svg>
