<svg width="80" height="100" viewBox="0 0 80 100" fill="none" xmlns="http://www.w3.org/2000/svg">
<path d="M69.4169 26.3418C69.2496 26.2021 67.7468 25.058 64.5189 25.058C63.6838 25.058 62.8213 25.1417 61.9862 25.2813C61.3746 21.0099 57.8397 18.944 57.701 18.8318L56.8385 18.3291L56.2818 19.1387C55.5865 20.2277 55.0573 21.4565 54.7514 22.7127C54.1672 25.1417 54.5292 27.4308 55.7537 29.3856C54.2783 30.2227 51.8854 30.4185 51.3848 30.4461H11.8685C10.8387 30.4461 10.0037 31.2832 10.0037 32.3172C9.94759 35.779 10.5329 39.2409 11.7288 42.508C13.0919 46.082 15.1239 48.7342 17.7391 50.3534C20.6887 52.1685 25.5031 53.2014 30.9292 53.2014C33.3782 53.2014 35.8272 52.9781 38.2477 52.5315C41.6142 51.9177 44.8432 50.745 47.8203 49.0421C50.2694 47.6187 52.4675 45.8037 54.3323 43.6817C57.4766 40.1362 59.3414 36.1717 60.7046 32.6537H61.2613C64.6839 32.6537 66.7996 31.2853 67.968 30.1126C68.747 29.3866 69.3311 28.4934 69.7492 27.488L70 26.762L69.4158 26.3429L69.4169 26.3418Z" fill="#6DBFB8"/>
<path d="M15.5663 29.3232H20.8538C21.1046 29.3232 21.3269 29.1274 21.3269 28.848V24.0939C21.3269 23.8421 21.1321 23.6187 20.8538 23.6187H15.5663C15.3155 23.6187 15.0933 23.8146 15.0933 24.0939V28.848C15.1208 29.1274 15.3155 29.3232 15.5663 29.3232ZM22.8562 29.3232H28.1437C28.3945 29.3232 28.6168 29.1274 28.6168 28.848V24.0939C28.6168 23.8421 28.422 23.6187 28.1437 23.6187H22.8562C22.6053 23.6187 22.3831 23.8146 22.3831 24.0939V28.848C22.4106 29.1274 22.6053 29.3232 22.8562 29.3232ZM30.2868 29.3232H35.5743C35.8251 29.3232 36.0473 29.1274 36.0473 28.848V24.0939C36.0473 23.8421 35.8526 23.6187 35.5743 23.6187H30.2868C30.036 23.6187 29.8137 23.8146 29.8137 24.0939V28.848C29.8137 29.1274 30.0085 29.3232 30.2868 29.3232ZM37.6053 29.3232H42.8927C43.1436 29.3232 43.3658 29.1274 43.3658 28.848V24.0939C43.3658 23.8421 43.1711 23.6187 42.8927 23.6187H37.6053C37.3544 23.6187 37.1321 23.8146 37.1321 24.0939V28.848C37.1321 29.1274 37.3544 29.3232 37.6053 29.3232ZM22.8562 22.5286H28.1437C28.3945 22.5286 28.6168 22.3054 28.6168 22.0534V17.2994C28.6168 17.0475 28.422 16.8242 28.1437 16.8242H22.8562C22.6053 16.8242 22.3831 17.02 22.3831 17.2994V22.0534C22.4106 22.3054 22.6053 22.5286 22.8562 22.5286ZM30.2868 22.5286H35.5743C35.8251 22.5286 36.0473 22.3054 36.0473 22.0534V17.2994C36.0473 17.0475 35.8526 16.8242 35.5743 16.8242H30.2868C30.036 16.8242 29.8137 17.02 29.8137 17.2994V22.0534C29.8137 22.3054 30.0085 22.5286 30.2868 22.5286ZM37.6053 22.5286H42.8927C43.1436 22.5286 43.3658 22.3054 43.3658 22.0534V17.2994C43.3658 17.0475 43.1436 16.8242 42.8927 16.8242H37.6053C37.3544 16.8242 37.1321 17.02 37.1321 17.2994V22.0534C37.1321 22.3054 37.3544 22.5286 37.6053 22.5286ZM37.6053 15.7045H42.8927C43.1436 15.7045 43.3658 15.5086 43.3658 15.2293V10.4752C43.3658 10.2233 43.1436 10 42.8927 10H37.6053C37.3544 10 37.1321 10.1958 37.1321 10.4752V15.2293C37.1321 15.4811 37.3544 15.7045 37.6053 15.7045ZM44.9787 29.3232H50.2662C50.517 29.3232 50.7393 29.1274 50.7393 28.848V24.0939C50.7393 23.8421 50.5445 23.6187 50.2662 23.6187H44.9787C44.7279 23.6187 44.5057 23.8146 44.5057 24.0939V28.848C44.5332 29.1274 44.7279 29.3232 44.9787 29.3232Z" fill="#6DBFB8"/>
<path d="M12.872 94V80.986H16.418C17.702 80.986 18.794 81.184 19.694 81.58C20.606 81.976 21.338 82.498 21.89 83.146C22.442 83.794 22.844 84.514 23.096 85.306C23.36 86.086 23.492 86.866 23.492 87.646C23.492 88.63 23.318 89.512 22.97 90.292C22.634 91.072 22.166 91.738 21.566 92.29C20.966 92.842 20.276 93.268 19.496 93.568C18.728 93.856 17.912 94 17.048 94H12.872ZM14.618 92.326H16.706C17.426 92.326 18.086 92.218 18.686 92.002C19.298 91.786 19.826 91.474 20.27 91.066C20.726 90.658 21.08 90.16 21.332 89.572C21.584 88.972 21.71 88.294 21.71 87.538C21.71 86.734 21.578 86.032 21.314 85.432C21.05 84.82 20.69 84.31 20.234 83.902C19.778 83.494 19.262 83.188 18.686 82.984C18.11 82.768 17.504 82.66 16.868 82.66H14.618V92.326ZM25.3627 90.202C25.3627 89.458 25.5367 88.786 25.8847 88.186C26.2447 87.586 26.7367 87.112 27.3607 86.764C27.9847 86.416 28.6927 86.242 29.4847 86.242C30.3007 86.242 31.0147 86.416 31.6267 86.764C32.2387 87.112 32.7127 87.586 33.0487 88.186C33.3847 88.786 33.5527 89.458 33.5527 90.202C33.5527 90.946 33.3847 91.624 33.0487 92.236C32.7127 92.836 32.2327 93.31 31.6087 93.658C30.9967 94.006 30.2827 94.18 29.4667 94.18C28.6747 94.18 27.9667 94.018 27.3427 93.694C26.7307 93.358 26.2447 92.896 25.8847 92.308C25.5367 91.708 25.3627 91.006 25.3627 90.202ZM27.0367 90.22C27.0367 90.7 27.1447 91.138 27.3607 91.534C27.5767 91.918 27.8647 92.224 28.2247 92.452C28.5967 92.68 29.0047 92.794 29.4487 92.794C29.9167 92.794 30.3307 92.68 30.6907 92.452C31.0627 92.224 31.3507 91.918 31.5547 91.534C31.7587 91.138 31.8607 90.7 31.8607 90.22C31.8607 89.74 31.7587 89.308 31.5547 88.924C31.3507 88.528 31.0627 88.216 30.6907 87.988C30.3307 87.748 29.9167 87.628 29.4487 87.628C28.9927 87.628 28.5787 87.748 28.2067 87.988C27.8467 88.228 27.5587 88.546 27.3427 88.942C27.1387 89.326 27.0367 89.752 27.0367 90.22ZM41.8673 93.316C41.5313 93.58 41.1293 93.79 40.6613 93.946C40.1933 94.102 39.7253 94.18 39.2573 94.18C38.4413 94.18 37.7273 94.018 37.1153 93.694C36.5033 93.37 36.0233 92.92 35.6753 92.344C35.3393 91.756 35.1713 91.066 35.1713 90.274C35.1713 89.482 35.3513 88.792 35.7113 88.204C36.0833 87.616 36.5633 87.166 37.1513 86.854C37.7513 86.53 38.3933 86.368 39.0773 86.368C39.6773 86.368 40.2113 86.452 40.6793 86.62C41.1593 86.788 41.5673 87.016 41.9033 87.304L41.0753 88.384C40.8593 88.216 40.5953 88.066 40.2833 87.934C39.9713 87.802 39.6173 87.736 39.2213 87.736C38.7893 87.736 38.3873 87.85 38.0153 88.078C37.6553 88.294 37.3673 88.594 37.1513 88.978C36.9473 89.362 36.8453 89.794 36.8453 90.274C36.8453 90.73 36.9533 91.156 37.1693 91.552C37.3853 91.936 37.6853 92.242 38.0693 92.47C38.4533 92.686 38.8913 92.794 39.3833 92.794C39.7073 92.794 40.0013 92.746 40.2653 92.65C40.5413 92.554 40.7873 92.422 41.0033 92.254L41.8673 93.316ZM44.0283 94V80.068H45.7023V94H44.0283ZM47.5023 89.05L50.9223 94H48.9603L46.3863 89.986L47.5023 89.05ZM45.1803 91.624L45.0183 90.022L49.5363 86.386L50.5623 87.268L45.1803 91.624ZM56.1679 94.18C55.3159 94.18 54.5839 94.012 53.9719 93.676C53.3599 93.328 52.8859 92.86 52.5499 92.272C52.2259 91.672 52.0639 90.988 52.0639 90.22C52.0639 89.488 52.2499 88.822 52.6219 88.222C52.9939 87.622 53.4919 87.142 54.1159 86.782C54.7399 86.422 55.4359 86.242 56.2039 86.242C57.1879 86.242 58.0039 86.53 58.6519 87.106C59.2999 87.682 59.7379 88.474 59.9659 89.482L53.8279 91.642L53.4319 90.652L58.4719 88.816L58.1119 89.05C57.9679 88.654 57.7279 88.312 57.3919 88.024C57.0559 87.724 56.6179 87.574 56.0779 87.574C55.6219 87.574 55.2139 87.688 54.8539 87.916C54.4939 88.132 54.2119 88.432 54.0079 88.816C53.8039 89.2 53.7019 89.638 53.7019 90.13C53.7019 90.646 53.8099 91.102 54.0259 91.498C54.2419 91.882 54.5359 92.188 54.9079 92.416C55.2919 92.632 55.7239 92.74 56.2039 92.74C56.5279 92.74 56.8399 92.68 57.1399 92.56C57.4519 92.44 57.7399 92.284 58.0039 92.092L58.7779 93.334C58.4059 93.586 57.9859 93.79 57.5179 93.946C57.0619 94.102 56.6119 94.18 56.1679 94.18ZM63.5575 86.548L63.7195 88.708L63.6295 88.42C63.8215 87.964 64.0975 87.58 64.4575 87.268C64.8295 86.944 65.2135 86.698 65.6095 86.53C66.0175 86.35 66.3715 86.26 66.6715 86.26L66.5815 87.916C66.0175 87.88 65.5195 87.988 65.0875 88.24C64.6675 88.492 64.3315 88.828 64.0795 89.248C63.8395 89.668 63.7195 90.118 63.7195 90.598V94H62.0635V86.548H63.5575Z" fill="#6DBFB8"/>
</svg>
